Aykiz-BlackItalic.ufo
<glyph name="exclam" format="2">
  <advance width="314"/>
  <unicode hex="0021"/>
  <outline>
    <contour>
      <point x="72.02472266037873" y="331.48000461667345" type="line"/>
      <point x="68.79365485720143" y="297.43558288563463"/>
      <point x="95.56785496579406" y="268.0"/>
      <point x="129.76525910923098" y="268.0" type="curve"/>
      <point x="202.97990705298878" y="268.0" type="line"/>
      <point x="228.52946997661365" y="268.0"/>
      <point x="251.06980516667727" y="284.71874680919524"/>
      <point x="258.48407971605536" y="309.16887356744974" type="curve"/>
      <point x="354.30815379012944" y="625.1688735674497" type="line"/>
      <point x="365.60357435894286" y="662.4178940691856"/>
      <point x="337.72795900914883" y="700.0"/>
      <point x="298.80398112706285" y="700.0" type="curve"/>
      <point x="159.75599984997174" y="700.0" type="line"/>
      <point x="129.84635102890022" y="700.0"/>
      <point x="104.84141191185317" y="677.2558523395261"/>
      <point x="102.01546340111948" y="647.4800046166735" type="curve"/>
    </contour>
    <contour>
      <point x="117" y="-10" type="curve" smooth="yes"/>
      <point x="196" y="-10"/>
      <point x="256" y="47"/>
      <point x="256" y="120" type="curve" smooth="yes"/>
      <point x="256" y="181"/>
      <point x="205" y="228"/>
      <point x="131" y="228" type="curve" smooth="yes"/>
      <point x="52" y="228"/>
      <point x="-8" y="175"/>
      <point x="-8" y="100" type="curve" smooth="yes"/>
      <point x="-8" y="39"/>
      <point x="43" y="-10"/>
    </contour>
  </outline>
</glyph>
<glyph name="numbersign" format="2">
  <advance width="740"/>
  <unicode hex="0023"/>
  <outline>
    <contour>
      <point x="343.40130649225307" y="70.31800244204993" type="line"/>
      <point x="332.3167628148476" y="35.52347071925256"/>
      <point x="358.2825172507049" y="0.0"/>
      <point x="394.8" y="0.0" type="curve"/>
      <point x="442.6051065172662" y="0.0" type="line"/>
      <point x="467.85524849412894" y="0.0"/>
      <point x="490.20413053138935" y="16.33583574875581"/>
      <point x="497.86857727118075" y="40.394637174110066" type="curve"/>
      <point x="685.5986935077469" y="629.6819975579501" type="line"/>
      <point x="696.6832371851524" y="664.4765292807474"/>
      <point x="670.7174827492951" y="700.0"/>
      <point x="634.2" y="700.0" type="curve"/>
      <point x="586.3948934827338" y="700.0" type="line"/>
      <point x="561.144751505871" y="700.0"/>
      <point x="538.7958694686107" y="683.6641642512442"/>
      <point x="531.1314227288192" y="659.60536282589" type="curve"/>
    </contour>
    <contour>
      <point x="-1.4999999999999982" y="204.5" type="line"/>
      <point x="-8.484013331884038" y="169.5799333405798"/>
      <point x="18.22514317103372" y="137.0"/>
      <point x="53.8367634335026" y="137.0" type="curve"/>
      <point x="617.4513736423237" y="137.0" type="line"/>
      <point x="645.0988728044643" y="137.0"/>
      <point x="668.9029321504819" y="156.51466075240933"/>
      <point x="674.3250528323971" y="183.6252641619853" type="curve"/>
      <point x="681.5" y="219.5" type="line"/>
      <point x="688.4840133318841" y="254.4200666594202"/>
      <point x="661.7748568289662" y="287.0"/>
      <point x="626.1632365664974" y="287.0" type="curve"/>
      <point x="62.5486263576763" y="287.0" type="line"/>
      <point x="34.90112719553569" y="287.0"/>
      <point x="11.097067849518131" y="267.4853392475907"/>
      <point x="5.6749471676029355" y="240.3747358380147" type="curve"/>
    </contour>
    <contour>
      <point x="84.40130649225306" y="70.31800244204993" type="line"/>
      <point x="73.3167628148476" y="35.52347071925256"/>
      <point x="99.28251725070493" y="0.0"/>
      <point x="135.8" y="0.0" type="curve"/>
      <point x="183.6051065172662" y="0.0" type="line"/>
      <point x="208.85524849412897" y="0.0"/>
      <point x="231.20413053138935" y="16.33583574875581"/>
      <point x="238.86857727118078" y="40.394637174110066" type="curve"/>
      <point x="426.59869350774693" y="629.6819975579501" type="line"/>
      <point x="437.6832371851524" y="664.4765292807474"/>
      <point x="411.7174827492951" y="700.0"/>
      <point x="375.2" y="700.0" type="curve"/>
      <point x="327.3948934827338" y="700.0" type="line"/>
      <point x="302.14475150587106" y="700.0"/>
      <point x="279.79586946861065" y="683.6641642512442"/>
      <point x="272.13142272881925" y="659.60536282589" type="curve"/>
    </contour>
    <contour>
      <point x="88.5" y="480.5" type="line"/>
      <point x="81.51598666811596" y="445.5799333405798"/>
      <point x="108.22514317103372" y="413.0"/>
      <point x="143.8367634335026" y="413.0" type="curve"/>
      <point x="707.4513736423237" y="413.0" type="line"/>
      <point x="735.0988728044643" y="413.0"/>
      <point x="758.9029321504819" y="432.5146607524093"/>
      <point x="764.3250528323971" y="459.62526416198534" type="curve"/>
      <point x="771.5" y="495.5" type="line"/>
      <point x="778.4840133318841" y="530.4200666594202"/>
      <point x="751.7748568289662" y="563.0"/>
      <point x="716.1632365664974" y="563.0" type="curve"/>
      <point x="152.5486263576763" y="563.0" type="line"/>
      <point x="124.9011271955357" y="563.0"/>
      <point x="101.09706784951813" y="543.4853392475907"/>
      <point x="95.67494716760294" y="516.3747358380147" type="curve"/>
    </contour>
  </outline>
</glyph>
<glyph name="dollar" format="2">
  <advance width="658"/>
  <unicode hex="0024"/>
  <outline>
    <contour>
      <point x="204.4435687745178" y="-57.78215612741111" type="line"/>
      <point x="198.00608357322534" y="-89.96958213387336"/>
      <point x="222.625137340145" y="-120.0"/>
      <point x="255.45" y="-120.0" type="curve"/>
      <point x="285.4513736423237" y="-120.0" type="line"/>
      <point x="313.0988728044643" y="-120.0"/>
      <point x="336.9029321504819" y="-100.48533924759064"/>
      <point x="342.3250528323971" y="-73.37473583801466" type="curve"/>
      <point x="508.55643122548224" y="757.7821561274111" type="line"/>
      <point x="514.9939164267747" y="789.9695821338734"/>
      <point x="490.374862659855" y="820.0"/>
      <point x="457.55" y="820.0" type="curve"/>
      <point x="427.5486263576763" y="820.0" type="line"/>
      <point x="399.9011271955357" y="820.0"/>
      <point x="376.0970678495181" y="800.4853392475907"/>
      <point x="370.6749471676029" y="773.3747358380147" type="curve"/>
    </contour>
    <contour>
      <point x="281" y="-16" type="curve" smooth="yes"/>
      <point x="499" y="-16"/>
      <point x="635" y="89"/>
      <point x="635" y="245" type="curve" smooth="yes"/>
      <point x="635" y="461"/>
      <point x="301" y="412"/>
      <point x="301" y="489" type="curve" smooth="yes"/>
      <point x="301" y="513"/>
      <point x="335" y="536"/>
      <point x="404" y="536" type="curve" smooth="yes"/>
      <point x="461.8153998807484" y="536.0"/>
      <point x="519.6307997614967" y="523.7109541787837"/>
      <point x="570.0708076183026" y="498.51824653435585" type="curve"/>
      <point x="584.3161187605644" y="491.40330000362314"/>
      <point x="602.1398398479807" y="496.35191310593774"/>
      <point x="609.2275806760675" y="510.6107799483241" type="curve"/>
      <point x="665.8165596890063" y="624.4544906684715" type="line"/>
      <point x="674.3895496204026" y="641.7013292363393"/>
      <point x="668.3055168224723" y="662.8149082469442"/>
      <point x="650.849181360182" y="670.9528409806242" type="curve"/>
      <point x="588.6587440141517" y="699.9452716596417"/>
      <point x="507.8430540921654" y="716.0"/>
      <point x="419" y="716" type="curve" smooth="yes"/>
      <point x="198" y="716"/>
      <point x="65" y="612"/>
      <point x="65" y="453" type="curve" smooth="yes"/>
      <point x="65" y="236"/>
      <point x="398" y="279"/>
      <point x="398" y="205" type="curve" smooth="yes"/>
      <point x="398" y="180"/>
      <point x="366" y="164"/>
      <point x="305" y="164" type="curve" smooth="yes"/>
      <point x="238.9095968982665" y="164.0"/>
      <point x="171.3833156301459" y="178.3587816638712"/>
      <point x="104.85443226798436" y="210.11794008204643" type="curve"/>
      <point x="84.87818416713482" y="219.65408131835773"/>
      <point x="60.401378954900956" y="212.74766132135125"/>
      <point x="50.049591519460726" y="193.18164550931039" type="curve"/>
      <point x="-5.246288100665097" y="88.66635655698465" type="line"/>
      <point x="-14.718054605828156" y="70.76367700876436"/>
      <point x="-8.926112768765616" y="48.421062677105695"/>
      <point x="9.236750075987942" y="39.458322637516" type="curve"/>
      <point x="76.91989285758606" y="6.05904968153906"/>
      <point x="173.81283483643392" y="-16.0"/>
    </contour>
  </outline>
</glyph>
<glyph name="ampersand" format="2">
  <advance width="777"/>
  <unicode hex="0026"/>
  <outline>
    <contour>
      <point x="280" y="-16" type="curve" smooth="yes"/>
      <point x="496" y="-16"/>
      <point x="672" y="131"/>
      <point x="760" y="338" type="curve"/>
      <point x="589" y="392" type="line"/>
      <point x="532" y="241"/>
      <point x="417" y="152"/>
      <point x="320" y="152" type="curve" smooth="yes"/>
      <point x="261" y="152"/>
      <point x="235" y="179"/>
      <point x="235" y="210" type="curve" smooth="yes"/>
      <point x="235" y="261"/>
      <point x="296" y="292"/>
      <point x="367" y="316" type="curve" smooth="yes"/>
      <point x="517" y="367"/>
      <point x="638" y="432"/>
      <point x="638" y="553" type="curve" smooth="yes"/>
      <point x="638" y="657"/>
      <point x="544" y="712"/>
      <point x="419" y="712" type="curve" smooth="yes"/>
      <point x="277" y="712"/>
      <point x="151" y="633"/>
      <point x="151" y="495" type="curve" smooth="yes"/>
      <point x="151" y="442"/>
      <point x="173" y="396"/>
      <point x="217" y="351" type="curve" smooth="yes"/>
      <point x="528.6852740510942" y="27.770826909976414" type="line"/>
      <point x="550.5476291040434" y="5.098755003214297"/>
      <point x="586.508167459336" y="4.017576791470095"/>
      <point x="609.6931049550886" y="25.33527099897414" type="curve"/>
      <point x="672.9765791051676" y="83.52208951280511" type="line"/>
      <point x="697.0688775550893" y="105.67406862447814"/>
      <point x="698.0723595161992" y="143.36062572362633"/>
      <point x="675.1930477890771" y="166.7633203987545" type="curve"/>
      <point x="411" y="437" type="line" smooth="yes"/>
      <point x="370" y="479"/>
      <point x="357" y="497"/>
      <point x="357" y="517" type="curve" smooth="yes"/>
      <point x="357" y="547"/>
      <point x="380" y="566"/>
      <point x="410" y="566" type="curve" smooth="yes"/>
      <point x="433" y="566"/>
      <point x="448" y="554"/>
      <point x="448" y="535" type="curve" smooth="yes"/>
      <point x="448" y="507"/>
      <point x="427" y="479"/>
      <point x="298" y="436" type="curve" smooth="yes"/>
      <point x="141" y="384"/>
      <point x="9" y="309"/>
      <point x="9" y="172" type="curve" smooth="yes"/>
      <point x="9" y="54"/>
      <point x="128" y="-16"/>
    </contour>
  </outline>
</glyph>
<glyph name="parenleft" format="2">
  <advance width="381"/>
  <unicode hex="0028"/>
  <outline>
    <contour>
      <point x="80.755127021726" y="-164.42744786478642" type="curve"/>
      <point x="88.04415734247732" y="-182.94413124166067"/>
      <point x="106.50343826142057" y="-194.0"/>
      <point x="126.40312484931044" y="-194.0" type="curve"/>
      <point x="254.89593966545982" y="-194.0" type="line"/>
      <point x="277.97693933509134" y="-194.0"/>
      <point x="294.2045817739704" y="-171.26270316266175"/>
      <point x="287.7702876782533" y="-149.0966840063191" type="curve"/>
      <point x="263.51633031885336" y="-65.54226833181194"/>
      <point x="252.0" y="17.00909518916569"/>
      <point x="252" y="101" type="curve" smooth="yes"/>
      <point x="252.0" y="299.8932987325152"/>
      <point x="307.55120291803655" y="475.9573359918646"/>
      <point x="430.6025222331229" y="660.3920525288053" type="curve"/>
      <point x="453.4202020152898" y="694.5921921622426"/>
      <point x="429.7632103050603" y="742.0"/>
      <point x="388.65" y="742.0" type="curve"/>
      <point x="291.8538935581474" y="742.0" type="line"/>
      <point x="275.39837711592105" y="742.0"/>
      <point x="259.6356405378545" y="735.0775171905264"/>
      <point x="249.00915867146088" y="722.5132064444651" type="curve"/>
      <point x="108.858816625898" y="556.8052637060453"/>
      <point x="33.0" y="339.9907232120768"/>
      <point x="33" y="113" type="curve" smooth="yes"/>
      <point x="33.0" y="10.331671545331574"/>
      <point x="53.84188960489506" y="-96.05842291021096"/>
    </contour>
  </outline>
</glyph>
<glyph name="parenright" format="2">
  <advance width="381"/>
  <unicode hex="0029"/>
  <outline>
    <contour>
      <point x="-48.6025222331229" y="-112.39205252880532" type="curve"/>
      <point x="-71.42020201528982" y="-146.59219216224264"/>
      <point x="-47.763210305060326" y="-194.0"/>
      <point x="-6.6499999999999915" y="-194.0" type="curve"/>
      <point x="90.03122757220281" y="-194.0" type="line"/>
      <point x="106.55349026356294" y="-194.0"/>
      <point x="122.37313701263565" y="-187.0203495510298"/>
      <point x="133.00355347555757" y="-174.37205281719446" type="curve"/>
      <point x="272.2596699910098" y="-8.682148773223044"/>
      <point x="349.0" y="208.0737230224313"/>
      <point x="349" y="435" type="curve" smooth="yes"/>
      <point x="349.0" y="537.6683284546684"/>
      <point x="328.1581103951049" y="644.058422910211"/>
      <point x="301.244872978274" y="712.4274478647864" type="curve"/>
      <point x="293.9558426575226" y="730.9441312416607"/>
      <point x="275.49656173857943" y="742.0"/>
      <point x="255.59687515068956" y="742.0" type="curve"/>
      <point x="127.10406033454016" y="742.0" type="line"/>
      <point x="104.02306066490866" y="742.0"/>
      <point x="87.7954182260296" y="719.2627031626619"/>
      <point x="94.22971232174672" y="697.0966840063192" type="curve"/>
      <point x="118.48366968114661" y="613.5422683318119"/>
      <point x="130.0" y="530.9909048108343"/>
      <point x="130" y="447" type="curve" smooth="yes"/>
      <point x="130.0" y="248.10670126748482"/>
      <point x="74.44879708196346" y="72.04266400813535"/>
    </contour>
  </outline>
</glyph>
<glyph name="asterisk" format="2">
  <advance width="473"/>
  <unicode hex="002A"/>
  <outline>
    <contour>
      <point x="482.3409664384018" y="559.0266734530215" type="line"/>
      <point x="509.7138063107427" y="572.2411478741517"/>
      <point x="521.0945419633027" y="605.2148219266056"/>
      <point x="507.7" y="632.5" type="curve"/>
      <point x="502.3" y="643.5" type="line"/>
      <point x="489.072462878708" y="670.4449830248541"/>
      <point x="456.00258713824724" y="680.8574281003124"/>
      <point x="429.7237367696675" y="666.3515026968564" type="curve"/>
      <point x="353" y="624" type="line"/>
      <point x="368" y="614" type="line"/>
      <point x="383.4" y="684.4" type="line"/>
      <point x="389.87436125687793" y="713.9970800314421"/>
      <point x="367.3349171154749" y="742.0"/>
      <point x="337.03797832502687" y="742.0" type="curve"/>
      <point x="311.5070268947038" y="742.0" type="line"/>
      <point x="283.4312913791994" y="742.0"/>
      <point x="259.3866225570762" y="721.8907690132936"/>
      <point x="254.4212864203452" y="694.2575939914864" type="curve"/>
      <point x="240" y="614" type="line"/>
      <point x="259" y="624" type="line"/>
      <point x="201.8" y="664.15" type="line"/>
      <point x="175.89715939005345" y="682.3318015819817"/>
      <point x="140.17733723875466" y="676.2121192982536"/>
      <point x="121.80407110468487" y="650.4447338663264" type="curve"/>
      <point x="106.60565085535467" y="629.1298761995828" type="line"/>
      <point x="88.55363531247565" y="603.81302513335"/>
      <point x="96.11825731934508" y="568.462281749933"/>
      <point x="122.94999999999999" y="552.75" type="curve"/>
      <point x="184" y="517" type="line"/>
      <point x="189" y="549" type="line"/>
      <point x="93.29557881928413" y="502.7978656368958" type="line"/>
      <point x="66.15219098588818" y="489.6941611656012"/>
      <point x="54.91980769574621" y="456.9581659474752"/>
      <point x="68.3" y="429.95" type="curve"/>
      <point x="73.7" y="419.05" type="line"/>
      <point x="86.94238852641696" y="392.3199935300102"/>
      <point x="119.80712466941858" y="382.0375328175191"/>
      <point x="145.92292899174925" y="396.4534568034456" type="curve"/>
      <point x="223" y="439" type="line"/>
      <point x="207" y="450" type="line"/>
      <point x="191.05" y="379.6" type="line"/>
      <point x="184.36353093991804" y="350.0873089761899"/>
      <point x="206.79915713258373" y="322.0"/>
      <point x="237.0598213678301" y="322.0" type="curve"/>
      <point x="264.1182956554285" y="322.0" type="line"/>
      <point x="292.3599705027246" y="322.0"/>
      <point x="316.4962396865496" y="342.3417581762884"/>
      <point x="321.28013131949416" y="370.1753094952387" type="curve"/>
      <point x="335" y="450" type="line"/>
      <point x="318" y="442" type="line"/>
      <point x="375.75" y="401.3" type="line"/>
      <point x="401.8433391634995" y="382.9104085895337"/>
      <point x="437.90455361056183" y="389.1607859903039"/>
      <point x="456.28692384594353" y="415.2592128676976" type="curve"/>
      <point x="470.7584956501299" y="435.80527160203627" type="line"/>
      <point x="488.7101608507254" y="461.2922036769558"/>
      <point x="481.2318656242749" y="496.6608806254351"/>
      <point x="454.5" y="512.7" type="curve"/>
      <point x="394" y="549" type="line"/>
      <point x="387" y="513" type="line"/>
    </contour>
  </outline>
</glyph>
<glyph name="plus" format="2">
  <advance width="619"/>
  <unicode hex="002B"/>
  <outline>
    <contour>
      <point x="199.87494716760293" y="174.37473583801466" type="line"/>
      <point x="192.69696079740103" y="138.4848039870052"/>
      <point x="220.14793378771378" y="105.0"/>
      <point x="256.74862635767624" y="105.0" type="curve"/>
      <point x="318.4513736423237" y="105.0" type="line"/>
      <point x="346.0988728044643" y="105.0"/>
      <point x="369.9029321504819" y="124.51466075240936"/>
      <point x="375.3250528323971" y="151.62526416198534" type="curve"/>
      <point x="450.12505283239705" y="525.6252641619853" type="line"/>
      <point x="457.30303920259894" y="561.5151960129948"/>
      <point x="429.8520662122862" y="595.0"/>
      <point x="393.25137364232376" y="595.0" type="curve"/>
      <point x="331.5486263576763" y="595.0" type="line"/>
      <point x="303.9011271955357" y="595.0"/>
      <point x="280.0970678495181" y="575.4853392475907"/>
      <point x="274.6749471676029" y="548.3747358380147" type="curve"/>
    </contour>
    <contour>
      <point x="66.87494716760293" y="334.37473583801466" type="line"/>
      <point x="59.69696079740103" y="298.4848039870052"/>
      <point x="87.14793378771378" y="265.0"/>
      <point x="123.74862635767627" y="265.0" type="curve"/>
      <point x="515.4513736423237" y="265.0" type="line"/>
      <point x="543.0988728044642" y="265.0"/>
      <point x="566.9029321504819" y="284.5146607524093"/>
      <point x="572.3250528323971" y="311.62526416198534" type="curve"/>
      <point x="583.125052832397" y="365.62526416198534" type="line"/>
      <point x="590.3030392025989" y="401.5151960129948"/>
      <point x="562.8520662122862" y="435.0"/>
      <point x="526.2513736423238" y="435.0" type="curve"/>
      <point x="134.5486263576763" y="435.0" type="line"/>
      <point x="106.90112719553571" y="435.0"/>
      <point x="83.09706784951813" y="415.4853392475907"/>
      <point x="77.67494716760294" y="388.37473583801466" type="curve"/>
    </contour>
  </outline>
</glyph>
<glyph name="comma" format="2">
  <advance width="304"/>
  <unicode hex="002C"/>
  <outline>
    <contour>
      <point x="-23.90584109476694" y="-103.61100962592508" type="line"/>
      <point x="-36.823034476379576" y="-129.53766205616188"/>
      <point x="-17.966276790369186" y="-160.0"/>
      <point x="11.0" y="-160.0" type="curve"/>
      <point x="57.353511093064434" y="-160.0" type="line"/>
      <point x="76.52840965329489" y="-160.0"/>
      <point x="94.46406898573792" y="-150.5230175039605"/>
      <point x="105.26883653250243" y="-134.68212949048373" type="curve"/>
      <point x="206" y="13" type="line" smooth="yes"/>
      <point x="241" y="64"/>
      <point x="253" y="92"/>
      <point x="253" y="129" type="curve" smooth="yes"/>
      <point x="253" y="200"/>
      <point x="204" y="248"/>
      <point x="130" y="248" type="curve" smooth="yes"/>
      <point x="51" y="248"/>
      <point x="-12" y="193"/>
      <point x="-12" y="109" type="curve" smooth="yes"/>
      <point x="-12" y="40"/>
      <point x="39" y="-10"/>
      <point x="112" y="-10" type="curve"/>
      <point x="98.8" y="62.05" type="line"/>
      <point x="95.34067636594494" y="80.93214150255051"/>
      <point x="69.83479079955535" y="84.53983010482179"/>
      <point x="61.27436198182699" y="67.35782654923847" type="curve"/>
    </contour>
  </outline>
</glyph>
<glyph name="hyphen" format="2">
  <advance width="390"/>
  <unicode hex="002D"/>
  <outline>
    <contour>
      <point x="44.874947167602926" y="273.37473583801466" type="line"/>
      <point x="37.69696079740103" y="237.4848039870052"/>
      <point x="65.14793378771378" y="204.0"/>
      <point x="101.74862635767627" y="204.0" type="curve"/>
      <point x="283.4513736423237" y="204.0" type="line"/>
      <point x="311.0988728044643" y="204.0"/>
      <point x="334.9029321504819" y="223.51466075240936"/>
      <point x="340.3250528323971" y="250.62526416198534" type="curve"/>
      <point x="351.12505283239705" y="304.62526416198534" type="line"/>
      <point x="358.30303920259894" y="340.5151960129948"/>
      <point x="330.8520662122862" y="374.0"/>
      <point x="294.25137364232376" y="374.0" type="curve"/>
      <point x="112.54862635767631" y="374.0" type="line"/>
      <point x="84.90112719553571" y="374.0"/>
      <point x="61.09706784951813" y="354.4853392475906"/>
      <point x="55.67494716760294" y="327.37473583801466" type="curve"/>
    </contour>
  </outline>
</glyph>
<glyph name="one" format="2">
  <advance width="418"/>
  <unicode hex="0031"/>
  <outline>
    <contour>
      <point x="83.87494716760293" y="69.37473583801464" type="line"/>
      <point x="76.69696079740103" y="33.48480398700518"/>
      <point x="104.14793378771378" y="0.0"/>
      <point x="140.74862635767627" y="0.0" type="curve"/>
      <point x="258.4513736423237" y="0.0" type="line"/>
      <point x="286.0988728044643" y="0.0"/>
      <point x="309.9029321504819" y="19.51466075240935"/>
      <point x="315.3250528323971" y="46.625264161985335" type="curve"/>
      <point x="432.12505283239705" y="630.6252641619853" type="line"/>
      <point x="439.30303920259894" y="666.5151960129948"/>
      <point x="411.8520662122862" y="700.0"/>
      <point x="375.25137364232376" y="700.0" type="curve"/>
      <point x="137.44398850245477" y="700.0" type="line"/>
      <point x="109.84357392538209" y="700.0"/>
      <point x="86.0663377452299" y="680.5502255180811"/>
      <point x="80.59500937232205" y="653.4975463409257" type="curve"/>
      <point x="68.05568352962543" y="591.4975463409257" type="line"/>
      <point x="60.790063720857226" y="555.5730928420163"/>
      <point x="88.25284701031356" y="522.0"/>
      <point x="124.90466265975813" y="522.0" type="curve"/>
      <point x="219.20544381393466" y="522.0" type="line"/>
      <point x="240.89300580855362" y="522.0"/>
      <point x="252.44317417872583" y="547.5827414802256"/>
      <point x="238.1" y="563.85" type="curve"/>
      <point x="229.9" y="573.15" type="line"/>
      <point x="214.77304400504144" y="590.3061817991603"/>
      <point x="186.54348837165267" y="582.7174418582633"/>
      <point x="182.05778727903862" y="560.2889363951931" type="curve"/>
    </contour>
  </outline>
</glyph>
<glyph name="two" format="2">
  <advance width="608"/>
  <unicode hex="0032"/>
  <outline>
    <contour>
      <point x="-13.95" y="65.25" type="line"/>
      <point x="-20.701212887487905" y="31.493935562560477"/>
      <point x="5.117638398665932" y="0.0"/>
      <point x="39.54220465238585" y="0.0" type="curve"/>
      <point x="486.55315620618876" y="0.0" type="line"/>
      <point x="514.154856461797" y="0.0"/>
      <point x="537.9328260308503" y="19.45154496339429"/>
      <point x="543.402813438702" y="46.50580700763393" type="curve"/>
      <point x="556.9492615261337" y="113.50580700763393" type="line"/>
      <point x="564.2124854958661" y="149.42932015522945"/>
      <point x="536.7500233812648" y="183.0"/>
      <point x="500.0996042936204" y="183.0" type="curve"/>
      <point x="246.99192224038205" y="183.0" type="line"/>
      <point x="227.87095280155023" y="183.0"/>
      <point x="214.4211762568667" y="164.195126676319"/>
      <point x="220.6" y="146.1" type="curve"/>
      <point x="223.4" y="137.9" type="line"/>
      <point x="229.60248838619665" y="119.73556972613835"/>
      <point x="251.76782137960652" y="112.97186438081236"/>
      <point x="267.05497283574755" y="124.57877567158611" type="curve"/>
      <point x="452" y="265" type="line" smooth="yes"/>
      <point x="578" y="360"/>
      <point x="619" y="429"/>
      <point x="619" y="516" type="curve" smooth="yes"/>
      <point x="619" y="631"/>
      <point x="504" y="716"/>
      <point x="348" y="716" type="curve" smooth="yes"/>
      <point x="212" y="716"/>
      <point x="98" y="654"/>
      <point x="44" y="560" type="curve"/>
      <point x="201" y="463" type="line"/>
      <point x="231" y="506"/>
      <point x="270" y="530"/>
      <point x="312" y="530" type="curve" smooth="yes"/>
      <point x="351" y="530"/>
      <point x="376" y="510"/>
      <point x="376" y="479" type="curve" smooth="yes"/>
      <point x="376" y="446"/>
      <point x="358" y="419"/>
      <point x="295" y="370" type="curve" smooth="yes"/>
      <point x="19.276461153860293" y="158.2669070294149" type="line"/>
      <point x="8.138613669586487" y="149.71395247664492"/>
      <point x="0.48210766399208405" y="137.4105383199604"/>
      <point x="-2.271943046148646" y="123.64028476925677" type="curve"/>
    </contour>
  </outline>
</glyph>
<glyph name="three" format="2">
  <advance width="614"/>
  <unicode hex="0033"/>
  <outline>
    <contour>
      <point x="226" y="-16" type="curve" smooth="yes"/>
      <point x="428" y="-16"/>
      <point x="581" y="95"/>
      <point x="581" y="246" type="curve" smooth="yes"/>
      <point x="581" y="359"/>
      <point x="487" y="433"/>
      <point x="342" y="433" type="curve" smooth="yes"/>
      <point x="313.4" y="433.0" type="line"/>
      <point x="306.8924639696662" y="433.0"/>
      <point x="304.5459275334559" y="424.4109761231022"/>
      <point x="310.14950009034084" y="421.1021999466559" type="curve"/>
      <point x="359.12344909726613" y="392.18424910447146" type="line"/>
      <point x="380.5621055648789" y="379.5252329045477"/>
      <point x="407.6883141628147" y="381.96079721107"/>
      <point x="426.52903984564165" y="398.23635366947445" type="curve"/>
      <point x="592.9436210225721" y="541.9935505547102" type="line"/>
      <point x="602.7021046317914" y="550.4234143298104"/>
      <point x="609.3729926848519" y="561.8649634242591"/>
      <point x="611.9019831007638" y="574.5099155038192" type="curve"/>
      <point x="623.95" y="634.75" type="line"/>
      <point x="630.7012128874879" y="668.5060644374395"/>
      <point x="604.8823616013341" y="700.0"/>
      <point x="570.4577953476141" y="700.0" type="curve"/>
      <point x="162.44398850245477" y="700.0" type="line"/>
      <point x="134.8435739253821" y="700.0"/>
      <point x="111.0663377452299" y="680.5502255180811"/>
      <point x="105.59500937232205" y="653.4975463409257" type="curve"/>
      <point x="93.05568352962543" y="591.4975463409257" type="line"/>
      <point x="85.79006372085723" y="555.5730928420163"/>
      <point x="113.25284701031356" y="522.0"/>
      <point x="149.90466265975812" y="522.0" type="curve"/>
      <point x="392.1663217070868" y="522.0" type="line"/>
      <point x="411.1836001235068" y="522.0"/>
      <point x="425.88819336866163" y="538.6832723875731"/>
      <point x="423.5" y="557.55" type="curve"/>
      <point x="422.5" y="565.45" type="line"/>
      <point x="420.57472893424443" y="580.659641419469"/>
      <point x="402.4847467201267" y="587.5971520962597"/>
      <point x="390.8831105943513" y="577.5750814523974" type="curve"/>
      <point x="220.05637897742793" y="430.00644944528983" type="line"/>
      <point x="210.29789536820869" y="421.5765856701897"/>
      <point x="203.62700731514818" y="410.13503657574086"/>
      <point x="201.09801689923614" y="397.4900844961807" type="curve"/>
      <point x="184.56046929878173" y="314.80234649390866" type="line"/>
      <point x="180.13184472767983" y="292.65922363839917"/>
      <point x="197.06835689357493" y="272.0"/>
      <point x="219.65" y="272.0" type="curve"/>
      <point x="273" y="272" type="line" smooth="yes"/>
      <point x="321" y="272"/>
      <point x="343" y="258"/>
      <point x="343" y="230" type="curve" smooth="yes"/>
      <point x="343" y="191"/>
      <point x="307" y="170"/>
      <point x="242" y="170" type="curve" smooth="yes"/>
      <point x="184" y="170"/>
      <point x="118" y="186"/>
      <point x="63" y="221" type="curve"/>
      <point x="-44" y="57" type="line"/>
      <point x="30" y="7"/>
      <point x="126" y="-16"/>
    </contour>
  </outline>
</glyph>
<glyph name="four" format="2">
  <advance width="712"/>
  <unicode hex="0034"/>
  <guideline x="269" y="228" angle="90"/>
  <outline>
    <contour>
      <point x="5.500000000000002" y="187.5" type="line"/>
      <point x="-1.4840133318840376" y="152.5799333405798"/>
      <point x="25.22514317103372" y="120.0"/>
      <point x="60.8367634335026" y="120.0" type="curve"/>
      <point x="629.5531562061888" y="120.0" type="line"/>
      <point x="657.154856461797" y="120.0"/>
      <point x="680.9328260308503" y="139.4515449633943"/>
      <point x="686.402813438702" y="166.50580700763393" type="curve"/>
      <point x="699.9492615261337" y="233.50580700763393" type="line"/>
      <point x="707.2124854958661" y="269.42932015522945"/>
      <point x="679.7500233812648" y="303.0"/>
      <point x="643.0996042936204" y="303.0" type="curve"/>
      <point x="224.11069947717073" y="303.0" type="line"/>
      <point x="215.36561806617118" y="303.0"/>
      <point x="213.56752152893682" y="290.64208819409987"/>
      <point x="221.95" y="288.15" type="curve"/>
      <point x="246.68276240618806" y="280.7970165819441" type="line"/>
      <point x="268.7487984249087" y="274.23684371151364"/>
      <point x="292.6060214515497" y="281.3477725938637"/>
      <point x="307.4796315278384" y="298.9182460356333" type="curve"/>
      <point x="574.3135963589519" y="614.1341935009597" type="line"/>
      <point x="603.0100491380538" y="648.033849256492"/>
      <point x="578.9147842778372" y="700.0"/>
      <point x="534.5" y="700.0" type="curve"/>
      <point x="423.3762394604224" y="700.0" type="line"/>
      <point x="406.6178387844772" y="700.0"/>
      <point x="390.67855174909187" y="692.7514060056253"/>
      <point x="379.6638773492724" y="680.1212460271657" type="curve"/>
      <point x="32.13669771768143" y="281.62341338294135" type="line"/>
      <point x="25.494308902973337" y="274.0068075420761"/>
      <point x="20.957357252188967" y="264.78678626094484"/>
      <point x="18.975380638758068" y="254.87690319379033" type="curve"/>
    </contour>
    <contour>
      <point x="341.8" y="54.0" type="line"/>
      <point x="336.21278933449275" y="26.063946672463842"/>
      <point x="357.58011453682695" y="0.0"/>
      <point x="386.0694107468021" y="0.0" type="curve"/>
      <point x="512.4513736423237" y="0.0" type="line"/>
      <point x="540.0988728044642" y="0.0"/>
      <point x="563.9029321504819" y="19.51466075240935"/>
      <point x="569.3250528323971" y="46.625264161985335" type="curve"/>
      <point x="628.125052832397" y="340.62526416198534" type="line"/>
      <point x="635.3030392025989" y="376.5151960129948"/>
      <point x="607.8520662122862" y="410.0"/>
      <point x="571.2513736423238" y="410.0" type="curve"/>
      <point x="471.72330880485765" y="410.0" type="line"/>
      <point x="443.9973516312818" y="410.0"/>
      <point x="420.14875763200587" y="390.37700317260135"/>
      <point x="414.80908151244256" y="363.1700819919693" type="curve"/>
      <point x="403" y="303" type="line"/>
      <point x="355" y="120" type="line"/>
    </contour>
  </outline>
</glyph>
<glyph name="five" format="2">
  <advance width="619"/>
  <unicode hex="0035"/>
  <guideline x="538" y="483" angle="84.8651"/>
  <outline>
    <contour>
      <point x="238" y="-16" type="curve" smooth="yes"/>
      <point x="440" y="-16"/>
      <point x="593" y="85"/>
      <point x="593" y="256" type="curve" smooth="yes"/>
      <point x="593" y="387"/>
      <point x="498" y="453"/>
      <point x="332" y="453" type="curve" smooth="yes"/>
      <point x="188" y="453" type="line"/>
      <point x="286" y="352" type="line"/>
      <point x="361" y="623" type="line"/>
      <point x="222" y="522" type="line"/>
      <point x="556.5560114975452" y="522.0" type="line"/>
      <point x="584.1564260746179" y="522.0"/>
      <point x="607.9336622547702" y="541.4497744819188"/>
      <point x="613.404990627678" y="568.5024536590743" type="curve"/>
      <point x="625.9443164703746" y="630.5024536590743" type="line"/>
      <point x="633.2099362791428" y="666.4269071579837"/>
      <point x="605.7471529896864" y="700.0"/>
      <point x="569.0953373402418" y="700.0" type="curve"/>
      <point x="218.8911723798395" y="700.0" type="line"/>
      <point x="192.9284165317435" y="700.0"/>
      <point x="170.1283280452621" y="682.7461618269698"/>
      <point x="163.0734925382371" y="657.760286072923" type="curve"/>
      <point x="75.82643371470768" y="348.760286072923" type="line"/>
      <point x="65.37602197999568" y="311.7484111791514"/>
      <point x="93.18517456188113" y="275.0"/>
      <point x="131.6441135563101" y="275.0" type="curve"/>
      <point x="268" y="275" type="line" smooth="yes"/>
      <point x="333" y="275"/>
      <point x="355" y="258"/>
      <point x="355" y="229" type="curve" smooth="yes"/>
      <point x="355" y="191"/>
      <point x="319" y="170"/>
      <point x="254" y="170" type="curve" smooth="yes"/>
      <point x="204.7225028587136" y="170.0"/>
      <point x="149.67028104558537" y="181.54944934368365"/>
      <point x="100.49573885298521" y="206.48820134037254" type="curve"/>
      <point x="85.99790697251365" y="213.84074226166206"/>
      <point x="67.85237821991912" y="210.04476661744616"/>
      <point x="58.969894322158396" y="196.43049223209326" type="curve"/>
      <point x="-10.039890917290482" y="90.65848494919965" type="line"/>
      <point x="-22.224986850786273" y="71.98226314458928"/>
      <point x="-17.231268579086546" y="46.773198326539855"/>
      <point x="2.5178982871595803" y="36.41712610331422" type="curve"/>
      <point x="70.72425950245882" y="0.6510602427690668"/>
      <point x="152.9142114692495" y="-16.0"/>
    </contour>
  </outline>
</glyph>
<glyph name="six" format="2">
  <advance width="661"/>
  <unicode hex="0036"/>
  <outline>
    <contour>
      <point x="333" y="-16" type="curve" smooth="yes"/>
      <point x="512" y="-16"/>
      <point x="641" y="88"/>
      <point x="641" y="251" type="curve" smooth="yes"/>
      <point x="641" y="383"/>
      <point x="533" y="453"/>
      <point x="422" y="453" type="curve" smooth="yes"/>
      <point x="334" y="453"/>
      <point x="274" y="415"/>
      <point x="229" y="337" type="curve"/>
      <point x="278" y="308" type="line"/>
      <point x="279" y="328"/>
      <point x="280" y="347"/>
      <point x="284" y="367" type="curve" smooth="yes"/>
      <point x="304" y="467"/>
      <point x="360" y="533"/>
      <point x="471" y="533" type="curve" smooth="yes"/>
      <point x="511.67712616078643" y="533.0"/>
      <point x="547.3271689236111" y="526.5366070597636"/>
      <point x="579.775907802757" y="509.34966897929723" type="curve"/>
      <point x="589.5527169160445" y="504.17124236985507"/>
      <point x="601.9771673934466" y="506.5355244648444"/>
      <point x="608.0746119130179" y="515.7671694384009" type="curve"/>
      <point x="689.2669803394646" y="638.6939328504043" type="line"/>
      <point x="697.5118734533618" y="651.1768551349962"/>
      <point x="694.490486299997" y="668.069426271437"/>
      <point x="681.2673914175343" y="675.0659520487169" type="curve"/>
      <point x="631.6755186540316" y="701.3057105332153"/>
      <point x="558.572473800355" y="716.0"/>
      <point x="484" y="716" type="curve" smooth="yes"/>
      <point x="169" y="716"/>
      <point x="33" y="473"/>
      <point x="33" y="268" type="curve" smooth="yes"/>
      <point x="33" y="80"/>
      <point x="158" y="-16"/>
    </contour>
    <contour>
      <point x="332" y="147" type="curve" smooth="yes"/>
      <point x="289" y="147"/>
      <point x="266" y="174"/>
      <point x="266" y="212" type="curve" smooth="yes"/>
      <point x="266" y="259"/>
      <point x="300" y="290"/>
      <point x="344" y="290" type="curve" smooth="yes"/>
      <point x="385" y="290"/>
      <point x="410" y="266"/>
      <point x="410" y="227" type="curve" smooth="yes"/>
      <point x="410" y="177"/>
      <point x="374" y="147"/>
    </contour>
  </outline>
</glyph>
<glyph name="seven" format="2">
  <advance width="645"/>
  <unicode hex="0037"/>
  <outline>
    <contour>
      <point x="128.3847626738238" y="88.39317627196692" type="line"/>
      <point x="104.60878557026109" y="49.749371797574774"/>
      <point x="132.41145220194028" y="0.0"/>
      <point x="177.78369825042444" y="0.0" type="curve"/>
      <point x="307.312637182424" y="0.0" type="line"/>
      <point x="327.6039252224082" y="0.0"/>
      <point x="346.4198246803177" y="10.604174695167575"/>
      <point x="356.9285150594694" y="27.96227933930221" type="curve"/>
      <point x="670.7356948395864" y="546.3044959403882" type="line"/>
      <point x="674.2186889885467" y="552.0576559185814"/>
      <point x="676.6745499243935" y="558.3727496219678"/>
      <point x="677.9934961526143" y="564.9674807630713" type="curve"/>
      <point x="691.95" y="634.75" type="line"/>
      <point x="698.7012128874879" y="668.5060644374395"/>
      <point x="672.8823616013341" y="700.0"/>
      <point x="638.4577953476141" y="700.0" type="curve"/>
      <point x="153.5486263576763" y="700.0" type="line"/>
      <point x="125.90112719553571" y="700.0"/>
      <point x="102.09706784951813" y="680.4853392475907"/>
      <point x="96.67494716760294" y="653.3747358380147" type="curve"/>
      <point x="62.874947167602926" y="484.37473583801466" type="line"/>
      <point x="55.69696079740103" y="448.4848039870052"/>
      <point x="83.14793378771378" y="415.0"/>
      <point x="119.74862635767627" y="415.0" type="curve"/>
      <point x="196.49596608569357" y="415.0" type="line"/>
      <point x="224.12340765398898" y="415.0"/>
      <point x="247.91604945041703" y="434.4870079794563"/>
      <point x="253.3591568747973" y="461.57294730553895" type="curve"/>
      <point x="272.138386955105" y="555.0219731813559" type="line"/>
      <point x="276.45212452956395" y="576.4879530161635"/>
      <point x="250.66457330420454" y="590.8342924872798"/>
      <point x="234.7" y="575.85" type="curve"/>
      <point x="223.3" y="565.15" type="line"/>
      <point x="204.8996564673628" y="547.8795021228756"/>
      <point x="217.12129261254788" y="517.0"/>
      <point x="242.3570358954952" y="517.0" type="curve"/>
      <point x="453.8860797781694" y="517.0" type="line"/>
      <point x="476.7623328665734" y="517.0"/>
      <point x="491.5263308488919" y="541.2135930580333"/>
      <point x="481.05" y="561.55" type="curve"/>
      <point x="475.95" y="571.45" type="line"/>
      <point x="465.8684334730982" y="591.0200997286917"/>
      <point x="438.2751979753747" y="592.0673402449362"/>
      <point x="426.73928946583817" y="573.3176841977739" type="curve"/>
    </contour>
  </outline>
</glyph>
<glyph name="nine" format="2">
  <advance width="661"/>
  <unicode hex="0039"/>
  <outline>
    <contour>
      <point x="359" y="716" type="curve" smooth="yes"/>
      <point x="180" y="716"/>
      <point x="51" y="612"/>
      <point x="51" y="449" type="curve" smooth="yes"/>
      <point x="51" y="317"/>
      <point x="159" y="247"/>
      <point x="280" y="247" type="curve" smooth="yes"/>
      <point x="358" y="247"/>
      <point x="418" y="285"/>
      <point x="463" y="363" type="curve"/>
      <point x="414" y="392" type="line"/>
      <point x="413" y="372"/>
      <point x="412" y="353"/>
      <point x="408" y="333" type="curve" smooth="yes"/>
      <point x="388" y="233"/>
      <point x="332" y="167"/>
      <point x="221" y="167" type="curve" smooth="yes"/>
      <point x="180.32287383921357" y="167.0"/>
      <point x="144.67283107638883" y="173.46339294023647"/>
      <point x="112.22409219724292" y="190.6503310207028" type="curve"/>
      <point x="102.44728308395548" y="195.82875763014496"/>
      <point x="90.0228326065534" y="193.4644755351556"/>
      <point x="83.92538808698215" y="184.23283056159914" type="curve"/>
      <point x="2.7330196605354704" y="61.30606714959576" type="line"/>
      <point x="-5.511873453361709" y="48.82314486500377"/>
      <point x="-2.4904862999970536" y="31.93057372856294"/>
      <point x="10.732608582465645" y="24.934047951283098" type="curve"/>
      <point x="60.32448134596835" y="-1.3057105332153753"/>
      <point x="133.42752619964494" y="-16.0"/>
      <point x="208" y="-16" type="curve" smooth="yes"/>
      <point x="523" y="-16"/>
      <point x="659" y="227"/>
      <point x="659" y="432" type="curve" smooth="yes"/>
      <point x="659" y="620"/>
      <point x="534" y="716"/>
    </contour>
    <contour>
      <point x="360" y="553" type="curve" smooth="yes"/>
      <point x="403" y="553"/>
      <point x="426" y="526"/>
      <point x="426" y="488" type="curve" smooth="yes"/>
      <point x="426" y="441"/>
      <point x="392" y="410"/>
      <point x="348" y="410" type="curve" smooth="yes"/>
      <point x="307" y="410"/>
      <point x="282" y="434"/>
      <point x="282" y="473" type="curve" smooth="yes"/>
      <point x="282" y="523"/>
      <point x="318" y="553"/>
    </contour>
  </outline>
</glyph>
<glyph name="less" format="2">
  <advance width="620"/>
  <unicode hex="003C"/>
  <outline>
    <contour>
      <point x="618.8" y="543.45" type="line"/>
      <point x="625.9958305222951" y="579.2292684303006"/>
      <point x="591.7399713586925" y="609.3690945180222"/>
      <point x="557.1680060860191" y="597.6765651296408" type="curve"/>
      <point x="119.64476538661505" y="449.70252577061024" type="line"/>
      <point x="100.05659778500609" y="443.0776427609253"/>
      <point x="85.47698656678034" y="426.52510024685836"/>
      <point x="81.37788573648815" y="406.2573239193025" type="curve"/>
      <point x="61.6599371629147" y="308.763022638856" type="line"/>
      <point x="56.074781559106185" y="281.14753104224724"/>
      <point x="71.14331582286454" y="253.51265660205087"/>
      <point x="97.38236596399673" y="243.25002599716828" type="curve"/>
      <point x="460.4898098221223" y="101.23125831481474" type="line"/>
      <point x="494.1194913849804" y="88.07800019826347"/>
      <point x="531.4640591480467" y="108.52229758860996"/>
      <point x="538.5035886280294" y="143.93993028477297" type="curve"/>
      <point x="547.3424463790446" y="188.4104333445681" type="line"/>
      <point x="552.9044531880934" y="216.39428010259505"/>
      <point x="537.2881702626261" y="244.2672528911282"/>
      <point x="510.51828183177065" y="254.13663344515444" type="curve"/>
      <point x="184.2304087149734" y="374.4307167870098" type="line"/>
      <point x="162.01950930057507" y="382.61931343858316"/>
      <point x="137.73351077605622" y="369.09420280267545"/>
      <point x="133.0" y="345.9" type="curve"/>
      <point x="131.0" y="336.1" type="line"/>
      <point x="126.97267237240199" y="316.36609462476974"/>
      <point x="145.68000856686913" y="299.5954744459769"/>
      <point x="164.85825832496522" y="305.74698851932845" type="curve"/>
      <point x="566.5687134241068" y="434.59751185301536" type="line"/>
      <point x="586.5911126416237" y="441.01979084731323"/>
      <point x="601.569430781567" y="457.7757808305692"/>
      <point x="605.7153438988767" y="478.390182163859" type="curve"/>
    </contour>
  </outline>
</glyph>
<glyph name="greater" format="2">
  <advance width="619"/>
  <unicode hex="003E"/>
  <outline>
    <contour>
      <point x="31.2" y="156.55" type="line"/>
      <point x="24.004169477704906" y="120.77073156969941"/>
      <point x="58.26002864130746" y="90.63090548197783"/>
      <point x="92.83199391398088" y="102.32343487035916" type="curve"/>
      <point x="530.3552346133849" y="250.2974742293898" type="line"/>
      <point x="549.9434022149939" y="256.9223572390747"/>
      <point x="564.5230134332196" y="273.47489975314164"/>
      <point x="568.6221142635119" y="293.7426760806975" type="curve"/>
      <point x="588.3400628370853" y="391.236977361144" type="line"/>
      <point x="593.9252184408938" y="418.85246895775276"/>
      <point x="578.8566841771354" y="446.48734339794913"/>
      <point x="552.6176340360032" y="456.7499740028317" type="curve"/>
      <point x="189.5101901778777" y="598.7687416851852" type="line"/>
      <point x="155.88050861501958" y="611.9219998017365"/>
      <point x="118.5359408519533" y="591.47770241139"/>
      <point x="111.4964113719706" y="556.060069715227" type="curve"/>
      <point x="102.65755362095541" y="511.5895666554319" type="line"/>
      <point x="97.09554681190657" y="483.6057198974049"/>
      <point x="112.71182973737389" y="455.7327471088718"/>
      <point x="139.48171816822938" y="445.8633665548456" type="curve"/>
      <point x="465.7695912850266" y="325.5692832129902" type="line"/>
      <point x="487.98049069942493" y="317.38068656141684"/>
      <point x="512.2664892239438" y="330.90579719732455"/>
      <point x="517.0" y="354.1" type="curve"/>
      <point x="519.0" y="363.9" type="line"/>
      <point x="523.027327627598" y="383.63390537523026"/>
      <point x="504.31999143313084" y="400.4045255540231"/>
      <point x="485.1417416750348" y="394.25301148067155" type="curve"/>
      <point x="83.43128657589321" y="265.40248814698464" type="line"/>
      <point x="63.40888735837631" y="258.98020915268677"/>
      <point x="48.430569218433014" y="242.22421916943082"/>
      <point x="44.28465610112333" y="221.60981783614102" type="curve"/>
    </contour>
  </outline>
</glyph>
<glyph name="question" format="2">
  <advance width="606"/>
  <unicode hex="003F"/>
  <outline>
    <contour>
      <point x="226.7815121091403" y="322.41336007335474" type="curve"/>
      <point x="211.3709050948039" y="296.47947823946436"/>
      <point x="234.07967426607215" y="268.0"/>
      <point x="264.2467595665201" y="268.0" type="curve"/>
      <point x="374.12240107926584" y="268.0" type="line"/>
      <point x="395.99011597014453" y="268.0"/>
      <point x="414.8943888524923" y="285.1521454380953"/>
      <point x="429.0405202448224" y="301.82799387767074" type="curve"/>
      <point x="480.05504465026365" y="361.96531719303357"/>
      <point x="623.0" y="402.00405714419594"/>
      <point x="623" y="540" type="curve" smooth="yes"/>
      <point x="623" y="647"/>
      <point x="524" y="716"/>
      <point x="372" y="716" type="curve" smooth="yes"/>
      <point x="247.67688222777997" y="716.0"/>
      <point x="142.93147207145142" y="668.8684816654464"/>
      <point x="77.52195643829444" y="596.8334052670294" type="curve"/>
      <point x="58.969055533190215" y="576.4012155286609"/>
      <point x="66.2077163627169" y="545.1215438283199"/>
      <point x="89.68045125374783" y="530.6055104088665" type="curve"/>
      <point x="179.03942269843762" y="475.3440412259662" type="line"/>
      <point x="190.10467185757665" y="468.5010581933407"/>
      <point x="204.49453251982519" y="471.98617326063385"/>
      <point x="212.95783235975105" y="481.86740352604807" type="curve"/>
      <point x="240.7652343962077" y="514.3336221171623"/>
      <point x="279.02364839266465" y="533.0"/>
      <point x="318" y="533" type="curve" smooth="yes"/>
      <point x="358" y="533"/>
      <point x="378" y="517"/>
      <point x="378" y="492" type="curve" smooth="yes"/>
      <point x="378.0" y="429.2237978260159"/>
      <point x="275.0124125813028" y="403.57917478938526"/>
    </contour>
    <contour>
      <point x="270" y="-10" type="curve" smooth="yes"/>
      <point x="349" y="-10"/>
      <point x="409" y="47"/>
      <point x="409" y="120" type="curve" smooth="yes"/>
      <point x="409" y="181"/>
      <point x="358" y="228"/>
      <point x="284" y="228" type="curve" smooth="yes"/>
      <point x="205" y="228"/>
      <point x="145" y="175"/>
      <point x="145" y="100" type="curve" smooth="yes"/>
      <point x="145" y="39"/>
      <point x="196" y="-10"/>
    </contour>
  </outline>
</glyph>
<glyph name="at" format="2">
  <advance width="1037"/>
  <unicode hex="0040"/>
  <outline>
    <contour>
      <point x="461" y="-210" type="curve" smooth="yes"/>
      <point x="533" y="-210"/>
      <point x="622" y="-194"/>
      <point x="687" y="-169" type="curve"/>
      <point x="655" y="-48" type="line"/>
      <point x="591" y="-73"/>
      <point x="529" y="-83"/>
      <point x="470" y="-83" type="curve" smooth="yes"/>
      <point x="288" y="-83"/>
      <point x="177" y="28"/>
      <point x="177" y="198" type="curve" smooth="yes"/>
      <point x="177" y="424"/>
      <point x="337" y="587"/>
      <point x="572" y="587" type="curve" smooth="yes"/>
      <point x="772" y="587"/>
      <point x="872" y="495"/>
      <point x="872" y="335" type="curve" smooth="yes"/>
      <point x="872" y="267"/>
      <point x="852" y="138"/>
      <point x="792" y="138" type="curve" smooth="yes"/>
      <point x="761" y="138"/>
      <point x="755" y="162"/>
      <point x="763" y="193" type="curve" smooth="yes"/>
      <point x="806.1811898507245" y="409.66351398784576" type="line"/>
      <point x="813.331928575096" y="445.54265916627077"/>
      <point x="785.8846540074419" y="479.0"/>
      <point x="749.2998740704419" y="479.0" type="curve"/>
      <point x="653.2401465922843" y="479.0" type="line"/>
      <point x="638.5640773718361" y="479.0"/>
      <point x="625.9282139745347" y="468.6410698726738"/>
      <point x="623.05" y="454.25" type="curve"/>
      <point x="617" y="424" type="line"/>
      <point x="590.1708295550043" y="246.13253667947262" type="line"/>
      <point x="590.0569542855908" y="245.37758581928716"/>
      <point x="589.928183268886" y="244.6249570708492"/>
      <point x="589.784591798654" y="243.8750905040819" type="curve"/>
      <point x="581" y="198" type="line"/>
      <point x="576" y="177" type="line" smooth="yes"/>
      <point x="551" y="59"/>
      <point x="605" y="-9"/>
      <point x="737" y="-9" type="curve" smooth="yes"/>
      <point x="909" y="-9"/>
      <point x="1012" y="159"/>
      <point x="1012" y="343" type="curve" smooth="yes"/>
      <point x="1012" y="564"/>
      <point x="853" y="714"/>
      <point x="592" y="714" type="curve" smooth="yes"/>
      <point x="268" y="714"/>
      <point x="21" y="499"/>
      <point x="21" y="187" type="curve" smooth="yes"/>
      <point x="21" y="-46"/>
      <point x="189" y="-210"/>
    </contour>
    <contour>
      <point x="429" y="-9" type="curve" smooth="yes"/>
      <point x="580" y="-9"/>
      <point x="642" y="126"/>
      <point x="642" y="298" type="curve" smooth="yes"/>
      <point x="642" y="414"/>
      <point x="595" y="488"/>
      <point x="485" y="488" type="curve" smooth="yes"/>
      <point x="346" y="488"/>
      <point x="243" y="354"/>
      <point x="243" y="202" type="curve" smooth="yes"/>
      <point x="243" y="71"/>
      <point x="330" y="-9"/>
    </contour>
    <contour>
      <point x="500" y="148" type="curve" smooth="yes"/>
      <point x="465" y="148"/>
      <point x="440" y="173"/>
      <point x="440" y="223" type="curve" smooth="yes"/>
      <point x="440" y="294"/>
      <point x="476" y="331"/>
      <point x="520" y="331" type="curve" smooth="yes"/>
      <point x="558" y="331"/>
      <point x="585" y="306"/>
      <point x="585" y="257" type="curve" smooth="yes"/>
      <point x="585" y="199"/>
      <point x="555" y="148"/>
    </contour>
  </outline>
</glyph>
<glyph name="A" format="2">
  <advance width="806"/>
  <unicode hex="0041"/>
  <guideline x="-113" y="56" angle="245.556"/>
  <anchor x="348" y="0" name="bottom"/>
  <anchor x="770" y="0" name="ogonek"/>
  <anchor x="488" y="700" name="top"/>
  <anchor x="206" y="701" name="topleft"/>
  <outline>
    <contour>
      <point x="-17.188581712661502" y="89.16590314156267" type="line"/>
      <point x="-41.78907059538069" y="50.555270365994424"/>
      <point x="-14.055197599056484" y="0.0"/>
      <point x="31.726512904140918" y="0.0" type="curve"/>
      <point x="141.404779571415" y="0.0" type="line"/>
      <point x="162.18450925444438" y="0.0"/>
      <point x="181.37648637310258" y="11.116529340718664"/>
      <point x="191.71566618223656" y="29.141471131863756" type="curve"/>
      <point x="514" y="591" type="line"/>
      <point x="422" y="591" type="line"/>
      <point x="525.9929563021235" y="47.10763562340707" type="line"/>
      <point x="531.2198673366398" y="19.77042835438813"/>
      <point x="555.1285677649603" y="0.0"/>
      <point x="582.9609859177556" y="0.0" type="curve"/>
      <point x="696.6371547031325" y="0.0" type="line"/>
      <point x="734.0801986170219" y="0.0"/>
      <point x="761.7117404869108" y="34.95049192266512"/>
      <point x="753.0720027108168" y="71.3831210989651" type="curve"/>
      <point x="614.5805741393883" y="655.3831210989651" type="line"/>
      <point x="608.3788732112924" y="681.5348720005742"/>
      <point x="585.0227640939004" y="700.0"/>
      <point x="558.1457261317039" y="700.0" type="curve"/>
      <point x="403.8179414755695" y="700.0" type="line"/>
      <point x="383.9991436301147" y="700.0"/>
      <point x="365.5523422731405" y="689.880357827799"/>
      <point x="354.9028468587671" y="673.1659031415627" type="curve"/>
    </contour>
    <contour>
      <point x="132" y="122" type="line"/>
      <point x="574" y="122" type="line"/>
      <point x="548" y="292" type="line"/>
      <point x="226" y="292" type="line"/>
    </contour>
  </outline>
</glyph>
<glyph name="B" format="2">
  <advance width="773"/>
  <unicode hex="0042"/>
  <anchor x="327" y="0" name="bottom"/>
  <anchor x="467" y="700" name="top"/>
  <outline>
    <contour>
      <point x="15.874947167602928" y="69.37473583801464" type="line"/>
      <point x="8.696960797401037" y="33.48480398700518"/>
      <point x="36.14793378771378" y="0.0"/>
      <point x="72.74862635767627" y="0.0" type="curve"/>
      <point x="406" y="0" type="line" smooth="yes"/>
      <point x="585" y="0"/>
      <point x="733" y="68"/>
      <point x="733" y="223" type="curve" smooth="yes"/>
      <point x="733" y="325"/>
      <point x="646" y="385"/>
      <point x="503" y="385" type="curve"/>
      <point x="473" y="331" type="line"/>
      <point x="643" y="331"/>
      <point x="764" y="403"/>
      <point x="764" y="533" type="curve" smooth="yes"/>
      <point x="764" y="639"/>
      <point x="679" y="700"/>
      <point x="513" y="700" type="curve" smooth="yes"/>
      <point x="189.5486263576763" y="700.0" type="line"/>
      <point x="161.9011271955357" y="700.0"/>
      <point x="138.09706784951814" y="680.4853392475907"/>
      <point x="132.67494716760294" y="653.3747358380147" type="curve"/>
    </contour>
    <contour>
      <point x="335.4" y="165.0" type="line"/>
      <point x="300.01433245178754" y="165.0"/>
      <point x="273.4746432846117" y="197.3732164230585"/>
      <point x="280.4143436434518" y="232.07171821725893" type="curve"/>
      <point x="331.6749471676029" y="488.37473583801466" type="line"/>
      <point x="337.0970678495181" y="515.4853392475907"/>
      <point x="360.9011271955357" y="535.0"/>
      <point x="388.5486263576763" y="535.0" type="curve"/>
      <point x="456" y="535" type="line" smooth="yes"/>
      <point x="495" y="535"/>
      <point x="518" y="521"/>
      <point x="518" y="492" type="curve" smooth="yes"/>
      <point x="518" y="454"/>
      <point x="494" y="431"/>
      <point x="440" y="431" type="curve" smooth="yes"/>
      <point x="351.6084472910984" y="431.0" type="line"/>
      <point x="323.93405935476164" y="431.0"/>
      <point x="300.1147145606409" y="411.44824101483795"/>
      <point x="294.72078577881746" y="384.30459940308145" type="curve"/>
      <point x="286.7720678300995" y="344.30459940308145" type="line"/>
      <point x="279.64402711455534" y="308.4344590280849"/>
      <point x="307.0882112584341" y="275.0"/>
      <point x="343.65972934238044" y="275.0" type="curve"/>
      <point x="441" y="275" type="line" smooth="yes"/>
      <point x="472" y="275"/>
      <point x="499" y="260"/>
      <point x="499" y="229" type="curve" smooth="yes"/>
      <point x="499" y="186"/>
      <point x="465" y="165"/>
      <point x="419" y="165" type="curve" smooth="yes"/>
    </contour>
  </outline>
</glyph>
<glyph name="C" format="2">
  <advance width="744"/>
  <unicode hex="0043"/>
  <anchor x="347" y="0" name="bottom"/>
  <anchor x="503" y="701" name="top"/>
  <outline>
    <contour>
      <point x="400" y="-16" type="curve" smooth="yes"/>
      <point x="511.12392842552845" y="-16.0"/>
      <point x="603.6964965531151" y="9.971904417118498"/>
      <point x="681.5530532831222" y="83.64935702007453" type="curve"/>
      <point x="703.5439495757162" y="104.45984861313079"/>
      <point x="701.1219805693638" y="139.14947182931377"/>
      <point x="679.2462176924571" y="160.08095717196548" type="curve"/>
      <point x="603.4783811172993" y="232.578239650354" type="line"/>
      <point x="590.2540046783837" y="245.23177969622284"/>
      <point x="569.200899530743" y="243.7987684416137"/>
      <point x="555.9646896996862" y="231.15760721335664" type="curve"/>
      <point x="514.2590225774927" y="191.32686495761996"/>
      <point x="469.3393749825559" y="175.0"/>
      <point x="423" y="175" type="curve" smooth="yes"/>
      <point x="336" y="175"/>
      <point x="279" y="230"/>
      <point x="279" y="312" type="curve" smooth="yes"/>
      <point x="279" y="437"/>
      <point x="357" y="525"/>
      <point x="468" y="525" type="curve" smooth="yes"/>
      <point x="522.1331912488968" y="525.0"/>
      <point x="563.3886375988156" y="503.53709183503685"/>
      <point x="592.9766054168937" y="465.45234097365835" type="curve"/>
      <point x="601.7281031167072" y="454.1876738085926"/>
      <point x="618.042174424292" y="450.856524696652"/>
      <point x="629.2770851662885" y="459.6461901595081" type="curve"/>
      <point x="741.3366687355217" y="547.3163349519082" type="line"/>
      <point x="762.4073035971179" y="563.8010081083335"/>
      <point x="768.6476536145703" y="593.808537864941"/>
      <point x="751.0314071344724" y="613.942687027429" type="curve"/>
      <point x="693.2881114926921" y="679.9392731275789"/>
      <point x="596.7986301957271" y="716.0"/>
      <point x="483" y="716" type="curve" smooth="yes"/>
      <point x="224" y="716"/>
      <point x="41" y="543"/>
      <point x="41" y="297" type="curve" smooth="yes"/>
      <point x="41" y="111"/>
      <point x="183" y="-16"/>
    </contour>
  </outline>
</glyph>
<glyph name="D" format="2">
  <advance width="826"/>
  <unicode hex="0044"/>
  <anchor x="304" y="0" name="bottom"/>
  <anchor x="222" y="355" name="center"/>
  <anchor x="442" y="700" name="top"/>
  <outline>
    <contour>
      <point x="15.874947167602928" y="69.37473583801464" type="line"/>
      <point x="8.696960797401037" y="33.484803987005186"/>
      <point x="36.14793378771378" y="0.0"/>
      <point x="72.74862635767627" y="0.0" type="curve"/>
      <point x="377" y="0" type="line" smooth="yes"/>
      <point x="632" y="0"/>
      <point x="815" y="156"/>
      <point x="815" y="403" type="curve" smooth="yes"/>
      <point x="815" y="587"/>
      <point x="679" y="700"/>
      <point x="458" y="700" type="curve" smooth="yes"/>
      <point x="189.5486263576763" y="700.0" type="line"/>
      <point x="161.9011271955357" y="700.0"/>
      <point x="138.09706784951814" y="680.4853392475907"/>
      <point x="132.67494716760294" y="653.3747358380147" type="curve"/>
    </contour>
    <contour>
      <point x="324.5" y="184.0" type="line"/>
      <point x="298.88088094869823" y="184.0"/>
      <point x="279.65628838345395" y="207.42254156525314"/>
      <point x="284.65149801115416" y="232.54995969247233" type="curve"/>
      <point x="333.10331980905573" y="476.277305706159" type="line"/>
      <point x="337.6936721915739" y="499.36816920609897"/>
      <point x="357.95728749339725" y="516.0"/>
      <point x="381.5" y="516.0" type="curve"/>
      <point x="431" y="516" type="line" smooth="yes"/>
      <point x="526" y="516"/>
      <point x="577" y="470"/>
      <point x="577" y="389" type="curve" smooth="yes"/>
      <point x="577" y="274"/>
      <point x="510" y="184"/>
      <point x="385" y="184" type="curve" smooth="yes"/>
    </contour>
  </outline>
</glyph>
<glyph name="E" format="2">
  <advance width="673"/>
  <unicode hex="0045"/>
  <anchor x="287" y="0" name="bottom"/>
  <anchor x="584" y="0" name="ogonek"/>
  <anchor x="427" y="700" name="top"/>
  <anchor x="76" y="700" name="topleft"/>
  <outline>
    <contour>
      <point x="353.5486263576763" y="440.0" type="line"/>
      <point x="325.9011271955357" y="440.0"/>
      <point x="302.0970678495181" y="420.4853392475907"/>
      <point x="296.6749471676029" y="393.37473583801466" type="curve"/>
      <point x="285.87494716760295" y="339.37473583801466" type="line"/>
      <point x="278.69696079740106" y="303.4848039870052"/>
      <point x="306.1479337877138" y="270.0"/>
      <point x="342.74862635767624" y="270.0" type="curve"/>
      <point x="536.4513736423237" y="270.0" type="line"/>
      <point x="564.0988728044642" y="270.0"/>
      <point x="587.9029321504819" y="289.5146607524093"/>
      <point x="593.3250528323971" y="316.62526416198534" type="curve"/>
      <point x="604.125052832397" y="370.62526416198534" type="line"/>
      <point x="611.3030392025989" y="406.5151960129948"/>
      <point x="583.8520662122862" y="440.0"/>
      <point x="547.2513736423238" y="440.0" type="curve"/>
    </contour>
    <contour>
      <point x="339.78896974792013" y="178.0" type="line"/>
      <point x="303.1750488189606" y="178.0"/>
      <point x="275.7210093556057" y="211.50764084533853"/>
      <point x="282.9216575949848" y="247.40652482137364" type="curve"/>
      <point x="328.6542157345197" y="475.40652482137364" type="line"/>
      <point x="334.08909279009833" y="502.502143765128"/>
      <point x="357.88621615491996" y="522.0"/>
      <point x="385.521527887455" y="522.0" type="curve"/>
      <point x="627.5560114975452" y="522.0" type="line"/>
      <point x="655.1564260746179" y="522.0"/>
      <point x="678.9336622547701" y="541.4497744819189"/>
      <point x="684.404990627678" y="568.5024536590743" type="curve"/>
      <point x="696.9443164703746" y="630.5024536590743" type="line"/>
      <point x="704.2099362791428" y="666.4269071579837"/>
      <point x="676.7471529896865" y="700.0"/>
      <point x="640.0953373402418" y="700.0" type="curve"/>
      <point x="189.5486263576763" y="700.0" type="line"/>
      <point x="161.9011271955357" y="700.0"/>
      <point x="138.09706784951814" y="680.4853392475907"/>
      <point x="132.67494716760294" y="653.3747358380147" type="curve"/>
      <point x="15.874947167602928" y="69.37473583801464" type="line"/>
      <point x="8.696960797401037" y="33.48480398700518"/>
      <point x="36.14793378771378" y="0.0"/>
      <point x="72.74862635767627" y="0.0" type="curve"/>
      <point x="536.5560114975452" y="0.0" type="line"/>
      <point x="564.1564260746179" y="0.0"/>
      <point x="587.9336622547701" y="19.449774481918837"/>
      <point x="593.404990627678" y="46.50245365907427" type="curve"/>
      <point x="605.9443164703746" y="108.50245365907429" type="line"/>
      <point x="613.2099362791428" y="144.4269071579837"/>
      <point x="585.7471529896865" y="178.0"/>
      <point x="549.0953373402418" y="178.0" type="curve"/>
    </contour>
  </outline>
</glyph>
<glyph name="F" format="2">
  <advance width="644"/>
  <unicode hex="0046"/>
  <outline>
    <contour>
      <point x="349.70610104815046" y="402.0" type="line"/>
      <point x="321.9878646310357" y="402.0"/>
      <point x="298.1436441599958" y="382.387676013693"/>
      <point x="292.7958301310883" y="355.1902218095347" type="curve"/>
      <point x="280.60481889513323" y="293.1902218095347" type="line"/>
      <point x="273.5580710814903" y="257.3524757858649"/>
      <point x="300.99111556505" y="224.0"/>
      <point x="337.5150898121954" y="224.0" type="curve"/>
      <point x="526.5560114975452" y="224.0" type="line"/>
      <point x="554.1564260746179" y="224.0"/>
      <point x="577.9336622547701" y="243.44977448191884"/>
      <point x="583.404990627678" y="270.50245365907426" type="curve"/>
      <point x="595.9443164703746" y="332.50245365907426" type="line"/>
      <point x="603.2099362791428" y="368.4269071579837"/>
      <point x="575.7471529896865" y="402.0"/>
      <point x="539.0953373402418" y="402.0" type="curve"/>
    </contour>
    <contour>
      <point x="190.41562941257217" y="0.0" type="line"/>
      <point x="218.0791977239393" y="0.0"/>
      <point x="241.89239473948123" y="19.53682744239616"/>
      <point x="247.29767542437833" y="46.667178572360456" type="curve"/>
      <point x="332.7023245756217" y="475.33282142763954" type="line"/>
      <point x="338.10760526051877" y="502.46317255760385"/>
      <point x="361.92080227606067" y="522.0"/>
      <point x="389.5843705874278" y="522.0" type="curve"/>
      <point x="627.5560114975452" y="522.0" type="line"/>
      <point x="655.1564260746179" y="522.0"/>
      <point x="678.9336622547701" y="541.4497744819189"/>
      <point x="684.404990627678" y="568.5024536590743" type="curve"/>
      <point x="696.9443164703746" y="630.5024536590743" type="line"/>
      <point x="704.2099362791428" y="666.4269071579837"/>
      <point x="676.7471529896865" y="700.0"/>
      <point x="640.0953373402418" y="700.0" type="curve"/>
      <point x="189.5486263576763" y="700.0" type="line"/>
      <point x="161.9011271955357" y="700.0"/>
      <point x="138.09706784951814" y="680.4853392475907"/>
      <point x="132.67494716760294" y="653.3747358380147" type="curve"/>
      <point x="15.874947167602928" y="69.37473583801464" type="line"/>
      <point x="8.696960797401037" y="33.48480398700518"/>
      <point x="36.14793378771378" y="0.0"/>
      <point x="72.74862635767627" y="0.0" type="curve"/>
    </contour>
  </outline>
</glyph>
<glyph name="G" format="2">
  <advance width="769"/>
  <unicode hex="0047"/>
  <anchor x="355" y="0" name="bottom"/>
  <anchor x="509" y="701" name="top"/>
  <outline>
    <contour>
      <point x="400" y="-16" type="curve" smooth="yes"/>
      <point x="511" y="-16"/>
      <point x="610" y="14"/>
      <point x="684" y="67" type="curve"/>
      <point x="595" y="235" type="line"/>
      <point x="539" y="191"/>
      <point x="486" y="175"/>
      <point x="433" y="175" type="curve" smooth="yes"/>
      <point x="336" y="175"/>
      <point x="279" y="230"/>
      <point x="279" y="312" type="curve" smooth="yes"/>
      <point x="279" y="437"/>
      <point x="357" y="525"/>
      <point x="480" y="525" type="curve" smooth="yes"/>
      <point x="546" y="525"/>
      <point x="595" y="506"/>
      <point x="640" y="448" type="curve"/>
      <point x="809" y="579" type="line"/>
      <point x="743" y="669"/>
      <point x="638" y="716"/>
      <point x="491" y="716" type="curve" smooth="yes"/>
      <point x="224" y="716"/>
      <point x="41" y="543"/>
      <point x="41" y="297" type="curve" smooth="yes"/>
      <point x="41" y="111"/>
      <point x="183" y="-16"/>
    </contour>
    <contour>
      <point x="497.5258505596254" y="160.84672167661037" type="line"/>
      <point x="491.1918988669237" y="129.05745469059804"/>
      <point x="512.1410876306903" y="98.24707497623812"/>
      <point x="544.032384146946" y="92.448657427828" type="curve"/>
      <point x="627.8564096903989" y="77.20792551083657" type="line"/>
      <point x="659.0103083495083" y="71.54358030008942"/>
      <point x="688.9494978312736" y="91.91247241741047"/>
      <point x="695.1198882468731" y="122.97010417592753" type="curve"/>
      <point x="730.2313358700588" y="299.69772387929635" type="line"/>
      <point x="737.3577233861461" y="335.5672077102683"/>
      <point x="709.9137646710099" y="369.0"/>
      <point x="673.3432127291837" y="369.0" type="curve"/>
      <point x="586.5836984071992" y="369.0" type="line"/>
      <point x="558.9204322106146" y="369.0"/>
      <point x="535.1074069136374" y="349.4635894156143"/>
      <point x="529.7018094042795" y="322.33360946298774" type="curve"/>
    </contour>
  </outline>
</glyph>
<glyph name="H" format="2">
  <advance width="804"/>
  <unicode hex="0048"/>
  <anchor x="347" y="0" name="bottom"/>
  <anchor x="462" y="576" name="center"/>
  <anchor x="487" y="700" name="top"/>
  <outline>
    <contour>
      <point x="643.5486263576763" y="700.0" type="line"/>
      <point x="615.9011271955358" y="700.0"/>
      <point x="592.0970678495181" y="680.4853392475907"/>
      <point x="586.6749471676029" y="653.3747358380147" type="curve"/>
      <point x="469.87494716760295" y="69.37473583801464" type="line"/>
      <point x="462.69696079740106" y="33.48480398700518"/>
      <point x="490.1479337877138" y="0.0"/>
      <point x="526.7486263576762" y="0.0" type="curve"/>
      <point x="644.4513736423237" y="0.0" type="line"/>
      <point x="672.0988728044642" y="0.0"/>
      <point x="695.9029321504819" y="19.51466075240935"/>
      <point x="701.3250528323971" y="46.625264161985335" type="curve"/>
      <point x="818.125052832397" y="630.6252641619853" type="line"/>
      <point x="825.3030392025989" y="666.5151960129948"/>
      <point x="797.8520662122862" y="700.0"/>
      <point x="761.2513736423238" y="700.0" type="curve"/>
    </contour>
    <contour>
      <point x="190.4513736423237" y="0.0" type="line"/>
      <point x="218.0988728044643" y="0.0"/>
      <point x="241.90293215048186" y="19.51466075240935"/>
      <point x="247.32505283239706" y="46.625264161985335" type="curve"/>
      <point x="364.12505283239705" y="630.6252641619853" type="line"/>
      <point x="371.30303920259894" y="666.5151960129948"/>
      <point x="343.8520662122862" y="700.0"/>
      <point x="307.25137364232376" y="700.0" type="curve"/>
      <point x="189.5486263576763" y="700.0" type="line"/>
      <point x="161.9011271955357" y="700.0"/>
      <point x="138.09706784951814" y="680.4853392475907"/>
      <point x="132.67494716760294" y="653.3747358380147" type="curve"/>
      <point x="15.874947167602928" y="69.37473583801464" type="line"/>
      <point x="8.696960797401037" y="33.48480398700518"/>
      <point x="36.14793378771378" y="0.0"/>
      <point x="72.74862635767627" y="0.0" type="curve"/>
    </contour>
    <contour>
      <point x="475.4994118701361" y="258.0" type="line"/>
      <point x="503.1253030392017" y="258.0"/>
      <point x="526.917061740836" y="277.48487122364537"/>
      <point x="532.361789857611" y="304.5689033942705" type="curve"/>
      <point x="548.042202228745" y="382.5689033942705" type="line"/>
      <point x="555.2603776817655" y="418.4746992375003"/>
      <point x="527.8039724498808" y="452.0"/>
      <point x="491.1798242412701" y="452.0" type="curve"/>
      <point x="360.5005881298639" y="452.0" type="line"/>
      <point x="332.8746969607983" y="452.0"/>
      <point x="309.08293825916405" y="432.51512877635463"/>
      <point x="303.6382101423889" y="405.4310966057295" type="curve"/>
      <point x="287.9577977712549" y="327.4310966057295" type="line"/>
      <point x="280.73962231823447" y="291.5253007624997"/>
      <point x="308.19602755011914" y="258.0"/>
      <point x="344.8201757587299" y="258.0" type="curve"/>
    </contour>
  </outline>
</glyph>
<glyph name="I" format="2">
  <advance width="350"/>
  <unicode hex="0049"/>
  <anchor x="120" y="0" name="bottom"/>
  <anchor x="238" y="0" name="ogonek"/>
  <anchor x="260" y="700" name="top"/>
  <anchor x="76" y="700" name="topleft"/>
  <outline>
    <contour>
      <point x="15.874947167602928" y="69.37473583801464" type="line"/>
      <point x="8.696960797401037" y="33.48480398700518"/>
      <point x="36.14793378771378" y="0.0"/>
      <point x="72.74862635767627" y="0.0" type="curve"/>
      <point x="190.4513736423237" y="0.0" type="line"/>
      <point x="218.0988728044643" y="0.0"/>
      <point x="241.90293215048186" y="19.51466075240935"/>
      <point x="247.32505283239706" y="46.625264161985335" type="curve"/>
      <point x="364.12505283239705" y="630.6252641619853" type="line"/>
      <point x="371.30303920259894" y="666.5151960129948"/>
      <point x="343.8520662122862" y="700.0"/>
      <point x="307.25137364232376" y="700.0" type="curve"/>
      <point x="189.5486263576763" y="700.0" type="line"/>
      <point x="161.9011271955357" y="700.0"/>
      <point x="138.09706784951814" y="680.4853392475907"/>
      <point x="132.67494716760294" y="653.3747358380147" type="curve"/>
    </contour>
  </outline>
</glyph>
<glyph name="J" format="2">
  <advance width="574"/>
  <unicode hex="004A"/>
  <anchor x="373" y="700" name="top"/>
  <outline>
    <contour>
      <point x="196" y="-16" type="curve" smooth="yes"/>
      <point x="374" y="-16"/>
      <point x="480" y="58"/>
      <point x="520" y="260" type="curve" smooth="yes"/>
      <point x="594.125052832397" y="630.6252641619853" type="line"/>
      <point x="601.3030392025989" y="666.5151960129948"/>
      <point x="573.8520662122862" y="700.0"/>
      <point x="537.2513736423238" y="700.0" type="curve"/>
      <point x="184.44398850245477" y="700.0" type="line"/>
      <point x="156.8435739253821" y="700.0"/>
      <point x="133.0663377452299" y="680.5502255180812"/>
      <point x="127.59500937232205" y="653.4975463409257" type="curve"/>
      <point x="115.05568352962543" y="591.4975463409257" type="line"/>
      <point x="107.79006372085723" y="555.5730928420163"/>
      <point x="135.2528470103136" y="522.0"/>
      <point x="171.90466265975817" y="522.0" type="curve"/>
      <point x="268.3016308301697" y="522.0" type="line"/>
      <point x="304.8858341898555" y="522.0"/>
      <point x="332.3329745501271" y="488.54365410609256"/>
      <point x="325.1832228540203" y="452.6649001401747" type="curve"/>
      <point x="284" y="246" type="line" smooth="yes"/>
      <point x="274" y="197"/>
      <point x="245" y="169"/>
      <point x="200" y="169" type="curve" smooth="yes"/>
      <point x="164.60374743284865" y="169.0"/>
      <point x="134.88955697815794" y="184.62567080926672"/>
      <point x="107.86451634969424" y="215.87701242780017" type="curve"/>
      <point x="99.51009284667327" y="225.53793936249744"/>
      <point x="84.6875043846339" y="227.1279015033288"/>
      <point x="75.41385487366193" y="218.34557117174606" type="curve"/>
      <point x="-28.981172816630483" y="119.48140587564133" type="line"/>
      <point x="-45.59409307078624" y="103.74864033693753"/>
      <point x="-48.30165200347412" y="77.70573220390689"/>
      <point x="-32.02481547472789" y="61.62550759467841" type="curve"/>
      <point x="20.358271133585813" y="9.875169198226137"/>
      <point x="95.96030566763056" y="-16.0"/>
    </contour>
  </outline>
</glyph>
<glyph name="K" format="2">
  <advance width="765"/>
  <unicode hex="004B"/>
  <guideline x="961" y="544" angle="48.4917"/>
  <anchor x="329" y="0" name="bottom"/>
  <anchor x="469" y="700" name="top"/>
  <outline>
    <contour>
      <point x="250.963230372381" y="204.29302996231314" type="line"/>
      <point x="248.27788422569088" y="183.961123423088"/>
      <point x="272.5269295573858" y="171.439166861409"/>
      <point x="287.55" y="185.4" type="curve"/>
      <point x="342" y="236" type="line"/>
      <point x="502" y="374" type="line"/>
      <point x="770.7188052609454" y="618.017633746708" type="line"/>
      <point x="802.6047417592171" y="646.9725510125481"/>
      <point x="782.1208739201268" y="700.0"/>
      <point x="739.05" y="700.0" type="curve"/>
      <point x="612.8499828755688" y="700.0" type="line"/>
      <point x="598.1658922493483" y="700.0"/>
      <point x="584.0283723648249" y="694.4303088402694"/>
      <point x="573.2900575912065" y="684.4147652533369" type="curve"/>
      <point x="293.216235244967" y="423.1920655650173" type="line"/>
      <point x="283.3790153187391" y="414.01696621074706"/>
      <point x="277.0368794826567" y="401.70780179725756"/>
      <point x="275.2755109452661" y="388.3717257284435" type="curve"/>
    </contour>
    <contour>
      <point x="15.874947167602928" y="69.37473583801464" type="line"/>
      <point x="8.696960797401037" y="33.48480398700518"/>
      <point x="36.14793378771378" y="0.0"/>
      <point x="72.74862635767627" y="0.0" type="curve"/>
      <point x="186.4513736423237" y="0.0" type="line"/>
      <point x="214.0988728044643" y="0.0"/>
      <point x="237.90293215048186" y="19.51466075240935"/>
      <point x="243.32505283239706" y="46.625264161985335" type="curve"/>
      <point x="360.12505283239705" y="630.6252641619853" type="line"/>
      <point x="367.30303920259894" y="666.5151960129948"/>
      <point x="339.8520662122862" y="700.0"/>
      <point x="303.25137364232376" y="700.0" type="curve"/>
      <point x="189.5486263576763" y="700.0" type="line"/>
      <point x="161.9011271955357" y="700.0"/>
      <point x="138.09706784951814" y="680.4853392475907"/>
      <point x="132.67494716760294" y="653.3747358380147" type="curve"/>
    </contour>
    <contour>
      <point x="457.9816912024139" y="27.390414159428467" type="line"/>
      <point x="468.5644023645298" y="10.357884951762623"/>
      <point x="487.19437155410725" y="0.0"/>
      <point x="507.24682344286043" y="0.0" type="curve"/>
      <point x="635.7651398510485" y="0.0" type="line"/>
      <point x="680.8038897786926" y="0.0"/>
      <point x="708.6568399112155" y="49.095559681624"/>
      <point x="685.5507362931189" y="87.75557740840024" type="curve"/>
      <point x="517.2326689707526" y="369.37724646916877" type="line"/>
      <point x="498.4762972874232" y="400.75950259302726"/>
      <point x="455.7155999487217" y="407.17179881084587"/>
      <point x="428.57921073811616" y="382.67151598069916" type="curve"/>
      <point x="341.9800247275466" y="304.48482232544205" type="line"/>
      <point x="321.15168196596545" y="285.67980428927166"/>
      <point x="316.7732487557706" y="254.66080673627445"/>
      <point x="331.582754277666" y="230.82538956493985" type="curve"/>
    </contour>
  </outline>
</glyph>
<glyph name="L" format="2">
  <advance width="617"/>
  <unicode hex="004C"/>
  <guideline x="426" y="193" angle="90"/>
  <anchor x="290" y="0" name="bottom"/>
  <anchor x="200" y="400" name="center"/>
  <anchor x="517" y="441" name="dot"/>
  <anchor x="260" y="700" name="top"/>
  <anchor x="508" y="700" name="topright"/>
  <outline>
    <contour>
      <point x="15.874947167602928" y="69.37473583801464" type="line"/>
      <point x="8.696960797401037" y="33.484803987005186"/>
      <point x="36.14793378771378" y="0.0"/>
      <point x="72.74862635767627" y="0.0" type="curve"/>
      <point x="506.55315620618876" y="0.0" type="line"/>
      <point x="534.154856461797" y="0.0"/>
      <point x="557.9328260308503" y="19.45154496339429"/>
      <point x="563.402813438702" y="46.50580700763393" type="curve"/>
      <point x="576.9492615261337" y="113.50580700763393" type="line"/>
      <point x="584.2124854958661" y="149.42932015522945"/>
      <point x="556.7500233812647" y="183.0"/>
      <point x="520.0996042936204" y="183.0" type="curve"/>
      <point x="345.6949678838054" y="183.0" type="line"/>
      <point x="309.111880882411" y="183.0"/>
      <point x="281.66500041153046" y="216.4544195413714"/>
      <point x="288.81284109378004" y="252.33241597557566" type="curve"/>
      <point x="364.18715890621996" y="630.6675840244243" type="line"/>
      <point x="371.33499958846954" y="666.5455804586285"/>
      <point x="343.888119117589" y="700.0"/>
      <point x="307.3050321161946" y="700.0" type="curve"/>
      <point x="189.5486263576763" y="700.0" type="line"/>
      <point x="161.9011271955357" y="700.0"/>
      <point x="138.09706784951814" y="680.4853392475907"/>
      <point x="132.67494716760294" y="653.3747358380147" type="curve"/>
    </contour>
  </outline>
</glyph>
<glyph name="M" format="2">
  <advance width="954"/>
  <unicode hex="004D"/>
  <anchor x="421" y="0" name="bottom"/>
  <anchor x="561" y="700" name="top"/>
  <outline>
    <contour>
      <point x="15.874947167602928" y="69.37473583801464" type="line"/>
      <point x="8.696960797401037" y="33.48480398700518"/>
      <point x="36.14793378771378" y="0.0"/>
      <point x="72.74862635767627" y="0.0" type="curve"/>
      <point x="169.4265652328242" y="0.0" type="line"/>
      <point x="197.08521805127307" y="0.0"/>
      <point x="220.895620785724" y="19.530045539096285"/>
      <point x="226.3060552610842" y="46.654357042235375" type="curve"/>
      <point x="288.4690492936904" y="358.298167125701" type="line"/>
      <point x="290.34544279776793" y="367.7051532261432"/>
      <point x="283.5654360206846" y="376.6325922984486"/>
      <point x="274.0" y="377.35" type="curve"/>
      <point x="270.0" y="377.65" type="line"/>
      <point x="261.80806917676443" y="378.26439481174265"/>
      <point x="255.888236373756" y="369.9655684256846"/>
      <point x="259.1357831461275" y="362.4197979839978" type="curve"/>
      <point x="372.90601526923825" y="98.0713174626523" type="line"/>
      <point x="382.06541538530246" y="76.7891818988561"/>
      <point x="403.012022914609" y="63.0"/>
      <point x="426.1814835177814" y="63.0" type="curve"/>
      <point x="463.4185877377687" y="63.0" type="line"/>
      <point x="481.4383044807568" y="63.0"/>
      <point x="498.43443839570307" y="71.37540534977883"/>
      <point x="509.4124823167311" y="85.66500797425743" type="curve"/>
      <point x="724.6627602017419" y="365.8461548080525" type="line"/>
      <point x="728.3171062177604" y="370.6028448702252"/>
      <point x="724.6880109382553" y="377.4522359375444"/>
      <point x="718.7" y="377.1" type="curve"/>
      <point x="715.3" y="376.9" type="line"/>
      <point x="706.2972387140837" y="376.3704258067108"/>
      <point x="698.7977338031612" y="369.8075056162826"/>
      <point x="697.0789303618913" y="360.95449063111124" type="curve"/>
      <point x="640.406804795063" y="69.05422743758449" type="line"/>
      <point x="633.4564595533377" y="33.25518893225985"/>
      <point x="660.876148849658" y="0.0"/>
      <point x="697.343647487279" y="0.0" type="curve"/>
      <point x="794.3179352704709" y="0.0" type="line"/>
      <point x="822.0253841567715" y="0.0"/>
      <point x="845.8634906057275" y="19.59741611600902"/>
      <point x="851.2226659371113" y="46.78163881143377" type="curve"/>
      <point x="966.3540945085398" y="630.7816388114338" type="line"/>
      <point x="973.4208240113063" y="666.6273681732927"/>
      <point x="945.9850310637925" y="700.0"/>
      <point x="909.4493638418995" y="700.0" type="curve"/>
      <point x="807.145064482528" y="700.0" type="line"/>
      <point x="789.3726776405322" y="700.0"/>
      <point x="772.5813046342654" y="691.851822827387"/>
      <point x="761.5836104019679" y="677.8908609824981" type="curve"/>
      <point x="447.40328481201146" y="279.05639210858124" type="line"/>
      <point x="435.8943133880023" y="264.4463922731029"/>
      <point x="446.3013839646242" y="243.0"/>
      <point x="464.9" y="243.0" type="curve"/>
      <point x="475.1" y="243.0" type="line"/>
      <point x="497.002591412241" y="243.0"/>
      <point x="511.911900561037" y="265.20995424388286"/>
      <point x="503.617132899042" y="285.4811244125015" type="curve"/>
      <point x="348.7450610175775" y="663.9652786896636" type="line"/>
      <point x="339.82658190398007" y="685.7607062560487"/>
      <point x="318.6147296737978" y="700.0"/>
      <point x="295.0652088187738" y="700.0" type="curve"/>
      <point x="189.5486263576763" y="700.0" type="line"/>
      <point x="161.9011271955357" y="700.0"/>
      <point x="138.09706784951814" y="680.4853392475907"/>
      <point x="132.67494716760294" y="653.3747358380147" type="curve"/>
    </contour>
  </outline>
</glyph>
<glyph name="N" format="2">
  <advance width="804"/>
  <unicode hex="004E"/>
  <anchor x="347" y="0" name="bottom"/>
  <anchor x="487" y="700" name="top"/>
  <outline>
    <contour>
      <point x="15.874947167602928" y="69.37473583801464" type="line"/>
      <point x="8.696960797401037" y="33.484803987005186"/>
      <point x="36.14793378771378" y="0.0"/>
      <point x="72.74862635767627" y="0.0" type="curve"/>
      <point x="184.42947781957082" y="0.0" type="line"/>
      <point x="212.0868213525718" y="0.0"/>
      <point x="235.89647967178766" y="19.528239296253403"/>
      <point x="241.30828653396856" y="46.650941923183545" type="curve"/>
      <point x="317" y="426" type="line"/>
      <point x="235" y="426" type="line"/>
      <point x="481.00298952111655" y="27.53127933081501" type="line"/>
      <point x="491.56796995244497" y="10.418421293758357"/>
      <point x="510.2439582156624" y="0.0"/>
      <point x="530.3553659662603" y="0.0" type="curve"/>
      <point x="644.4513736423237" y="0.0" type="line"/>
      <point x="672.0988728044642" y="0.0"/>
      <point x="695.9029321504819" y="19.514660752409352"/>
      <point x="701.3250528323971" y="46.625264161985335" type="curve"/>
      <point x="818.125052832397" y="630.6252641619853" type="line"/>
      <point x="825.3030392025989" y="666.5151960129948"/>
      <point x="797.8520662122862" y="700.0"/>
      <point x="761.2513736423238" y="700.0" type="curve"/>
      <point x="649.5705221804292" y="700.0" type="line"/>
      <point x="621.9131786474281" y="700.0"/>
      <point x="598.1035203282124" y="680.4717607037467"/>
      <point x="592.6917134660315" y="653.3490580768165" type="curve"/>
      <point x="517" y="274" type="line"/>
      <point x="599" y="274" type="line"/>
      <point x="352.99701047888345" y="672.468720669185" type="line"/>
      <point x="342.43203004755503" y="689.5815787062417"/>
      <point x="323.7560417843375" y="700.0"/>
      <point x="303.6446340337397" y="700.0" type="curve"/>
      <point x="189.5486263576763" y="700.0" type="line"/>
      <point x="161.9011271955357" y="700.0"/>
      <point x="138.09706784951814" y="680.4853392475907"/>
      <point x="132.67494716760294" y="653.3747358380147" type="curve"/>
    </contour>
  </outline>
</glyph>
<glyph name="P" format="2">
  <advance width="743"/>
  <unicode hex="0050"/>
  <outline>
    <contour>
      <point x="15.874947167602928" y="69.37473583801464" type="line"/>
      <point x="8.696960797401037" y="33.484803987005186"/>
      <point x="36.14793378771378" y="0.0"/>
      <point x="72.74862635767627" y="0.0" type="curve"/>
      <point x="190.4513736423237" y="0.0" type="line"/>
      <point x="218.0988728044643" y="0.0"/>
      <point x="241.90293215048186" y="19.514660752409352"/>
      <point x="247.32505283239706" y="46.625264161985335" type="curve"/>
      <point x="293" y="275" type="line"/>
      <point x="167" y="172" type="line"/>
      <point x="393" y="172" type="line" smooth="yes"/>
      <point x="608" y="172"/>
      <point x="747" y="291"/>
      <point x="747" y="468" type="curve" smooth="yes"/>
      <point x="747" y="614"/>
      <point x="641" y="700"/>
      <point x="453" y="700" type="curve" smooth="yes"/>
      <point x="189.5486263576763" y="700.0" type="line"/>
      <point x="161.9011271955357" y="700.0"/>
      <point x="138.09706784951814" y="680.4853392475907"/>
      <point x="132.67494716760294" y="653.3747358380147" type="curve"/>
    </contour>
    <contour>
      <point x="287" y="247" type="line"/>
      <point x="363" y="628" type="line"/>
      <point x="237" y="518" type="line"/>
      <point x="420" y="518" type="line" smooth="yes"/>
      <point x="474" y="518"/>
      <point x="508" y="497"/>
      <point x="508" y="447" type="curve" smooth="yes"/>
      <point x="508" y="388"/>
      <point x="470" y="354"/>
      <point x="405" y="354" type="curve" smooth="yes"/>
      <point x="204" y="354" type="line"/>
    </contour>
  </outline>
</glyph>
<glyph name="Q" format="2">
  <advance width="848"/>
  <unicode hex="0051"/>
  <anchor x="510" y="700" name="top"/>
  <outline>
    <contour>
      <point x="396" y="-16" type="curve" smooth="yes"/>
      <point x="653" y="-16"/>
      <point x="837" y="156"/>
      <point x="837" y="403" type="curve" smooth="yes"/>
      <point x="837" y="587"/>
      <point x="700" y="716"/>
      <point x="482" y="716" type="curve" smooth="yes"/>
      <point x="225" y="716"/>
      <point x="41" y="544"/>
      <point x="41" y="297" type="curve" smooth="yes"/>
      <point x="41" y="113"/>
      <point x="178" y="-16"/>
    </contour>
    <contour>
      <point x="583" y="-177" type="curve" smooth="yes"/>
      <point x="654.47452940935" y="-177.0"/>
      <point x="720.1569858546546" y="-160.3477902283695"/>
      <point x="769.5745170740597" y="-126.42732055205823" type="curve"/>
      <point x="784.5078472196865" y="-116.1769992617836"/>
      <point x="787.0953743598209" y="-95.87136808582889"/>
      <point x="777.5461542965802" y="-80.48027221919399" type="curve"/>
      <point x="718.753000230858" y="14.28045845144064" type="line"/>
      <point x="713.6404050597936" y="22.520758903626884"/>
      <point x="702.3712026320791" y="24.17242003770597"/>
      <point x="694.4701402019919" y="18.549752218835863" type="curve"/>
      <point x="666.3480194117109" y="-1.4629163260634015"/>
      <point x="633.8713403818028" y="-13.0"/>
      <point x="605" y="-13" type="curve" smooth="yes"/>
      <point x="559" y="-13"/>
      <point x="535" y="6"/>
      <point x="516" y="80" type="curve"/>
      <point x="261" y="30" type="line"/>
      <point x="327" y="-111"/>
      <point x="431" y="-177"/>
    </contour>
    <contour>
      <point x="416" y="175" type="curve" smooth="yes"/>
      <point x="330" y="175"/>
      <point x="279" y="230"/>
      <point x="279" y="311" type="curve" smooth="yes"/>
      <point x="279" y="426"/>
      <point x="346" y="525"/>
      <point x="462" y="525" type="curve" smooth="yes"/>
      <point x="548" y="525"/>
      <point x="599" y="470"/>
      <point x="599" y="389" type="curve" smooth="yes"/>
      <point x="599" y="274"/>
      <point x="532" y="175"/>
    </contour>
  </outline>
</glyph>
<glyph name="R" format="2">
  <advance width="745"/>
  <unicode hex="0052"/>
  <anchor x="324" y="0" name="bottom"/>
  <anchor x="464" y="700" name="top"/>
  <outline>
    <contour>
      <point x="15.874947167602928" y="69.37473583801464" type="line"/>
      <point x="8.696960797401037" y="33.484803987005186"/>
      <point x="36.14793378771378" y="0.0"/>
      <point x="72.74862635767627" y="0.0" type="curve"/>
      <point x="190.4513736423237" y="0.0" type="line"/>
      <point x="218.0988728044643" y="0.0"/>
      <point x="241.90293215048186" y="19.514660752409352"/>
      <point x="247.32505283239706" y="46.625264161985335" type="curve"/>
      <point x="293" y="275" type="line"/>
      <point x="167" y="176" type="line"/>
      <point x="393" y="176" type="line" smooth="yes"/>
      <point x="608" y="176"/>
      <point x="747" y="294"/>
      <point x="747" y="470" type="curve" smooth="yes"/>
      <point x="747" y="615"/>
      <point x="641" y="700"/>
      <point x="456" y="700" type="curve" smooth="yes"/>
      <point x="189.5486263576763" y="700.0" type="line"/>
      <point x="161.9011271955357" y="700.0"/>
      <point x="138.09706784951814" y="680.4853392475907"/>
      <point x="132.67494716760294" y="653.3747358380147" type="curve"/>
    </contour>
    <contour>
      <point x="413.3523239690046" y="29.480259638221032" type="line"/>
      <point x="423.6386635278838" y="11.264866669372466"/>
      <point x="442.9369170512226" y="0.0"/>
      <point x="463.8560308596549" y="0.0" type="curve"/>
      <point x="574.9583267627985" y="0.0" type="line"/>
      <point x="619.5137788373961" y="0.0"/>
      <point x="647.4304633463128" y="48.15227292253591"/>
      <point x="625.2921172244451" y="86.81856238196234" type="curve"/>
      <point x="529" y="255" type="line"/>
      <point x="286" y="255" type="line"/>
    </contour>
    <contour>
      <point x="287" y="247" type="line"/>
      <point x="363" y="628" type="line"/>
      <point x="237" y="518" type="line"/>
      <point x="420" y="518" type="line" smooth="yes"/>
      <point x="474" y="518"/>
      <point x="508" y="497"/>
      <point x="508" y="447" type="curve" smooth="yes"/>
      <point x="508" y="388"/>
      <point x="470" y="354"/>
      <point x="405" y="354" type="curve" smooth="yes"/>
      <point x="204" y="354" type="line"/>
    </contour>
  </outline>
</glyph>
<glyph name="S" format="2">
  <advance width="657"/>
  <unicode hex="0053"/>
  <anchor x="274" y="0" name="bottom"/>
  <anchor x="414" y="700" name="top"/>
  <outline>
    <contour>
      <point x="280" y="-16" type="curve" smooth="yes"/>
      <point x="498" y="-16"/>
      <point x="634" y="89"/>
      <point x="634" y="245" type="curve" smooth="yes"/>
      <point x="634" y="461"/>
      <point x="300" y="412"/>
      <point x="300" y="489" type="curve" smooth="yes"/>
      <point x="300" y="513"/>
      <point x="334" y="536"/>
      <point x="403" y="536" type="curve" smooth="yes"/>
      <point x="460.8153998807484" y="536.0"/>
      <point x="518.6307997614967" y="523.7109541787837"/>
      <point x="569.0708076183026" y="498.51824653435585" type="curve"/>
      <point x="583.3052117354903" y="491.4087476136779"/>
      <point x="601.1165676704159" y="496.37705458013556"/>
      <point x="608.1658066641291" y="510.64139701447306" type="curve"/>
      <point x="664.8874677443799" y="625.4193464945099" type="line"/>
      <point x="673.4256875591947" y="642.6966854138998"/>
      <point x="667.3153340514363" y="663.8141654282598"/>
      <point x="649.8247655187976" y="671.9066094439222" type="curve"/>
      <point x="587.6375926533979" y="700.6790426536531"/>
      <point x="506.83142801264694" y="716.0"/>
      <point x="418" y="716" type="curve" smooth="yes"/>
      <point x="197" y="716"/>
      <point x="64" y="612"/>
      <point x="64" y="453" type="curve" smooth="yes"/>
      <point x="64" y="236"/>
      <point x="397" y="279"/>
      <point x="397" y="205" type="curve" smooth="yes"/>
      <point x="397" y="180"/>
      <point x="365" y="164"/>
      <point x="304" y="164" type="curve" smooth="yes"/>
      <point x="237.9095968982665" y="164.0"/>
      <point x="170.3833156301459" y="178.3587816638712"/>
      <point x="103.85443226798436" y="210.11794008204643" type="curve"/>
      <point x="83.90738005135896" y="219.64014396265034"/>
      <point x="59.4638969257894" y="212.67822049546544"/>
      <point x="49.22041725771928" y="193.09178684443026" type="curve"/>
      <point x="-6.618831771306304" y="86.32223375596377" type="line"/>
      <point x="-15.83879158022621" y="68.69286005539163"/>
      <point x="-9.842592486756939" y="46.78890155258361"/>
      <point x="8.126397272086244" y="38.249704693445665" type="curve"/>
      <point x="75.81455290744483" y="6.083039023338149"/>
      <point x="172.75456734827685" y="-16.0"/>
    </contour>
  </outline>
</glyph>
<glyph name="T" format="2">
  <advance width="654"/>
  <unicode hex="0054"/>
  <anchor x="272" y="0" name="bottom"/>
  <anchor x="335" y="315" name="center"/>
  <anchor x="412" y="700" name="top"/>
  <outline>
    <contour>
      <point x="167.81284109378007" y="69.33241597557564" type="line"/>
      <point x="160.66500041153049" y="33.454419541371415"/>
      <point x="188.11188088241096" y="0.0"/>
      <point x="224.6949678838054" y="0.0" type="curve"/>
      <point x="342.4152835668716" y="0.0" type="line"/>
      <point x="370.0790073192811" y="0.0"/>
      <point x="393.892292684557" y="19.537041921514103"/>
      <point x="399.29741035689693" y="46.66758402442435" type="curve"/>
      <point x="483.70258964310307" y="470.33241597557566" type="line"/>
      <point x="489.107707315443" y="497.4629580784859"/>
      <point x="512.9209926807189" y="517.0"/>
      <point x="540.5847164331284" y="517.0" type="curve"/>
      <point x="650.5531562061888" y="517.0" type="line"/>
      <point x="678.154856461797" y="517.0"/>
      <point x="701.9328260308503" y="536.4515449633943"/>
      <point x="707.402813438702" y="563.505807007634" type="curve"/>
      <point x="720.9492615261337" y="630.505807007634" type="line"/>
      <point x="728.2124854958661" y="666.4293201552294"/>
      <point x="700.7500233812648" y="700.0"/>
      <point x="664.0996042936204" y="700.0" type="curve"/>
      <point x="136.44684379381127" y="700.0" type="line"/>
      <point x="108.84514353820306" y="700.0"/>
      <point x="85.06717396914979" y="680.5484550366057"/>
      <point x="79.59718656129806" y="653.494192992366" type="curve"/>
      <point x="66.05073847386636" y="586.494192992366" type="line"/>
      <point x="58.78751450413393" y="550.5706798447706"/>
      <point x="86.24997661873525" y="517.0"/>
      <point x="122.90039570637958" y="517.0" type="curve"/>
      <point x="186.3050321161946" y="517.0" type="line"/>
      <point x="222.88811911758904" y="517.0"/>
      <point x="250.33499958846951" y="483.5455804586286"/>
      <point x="243.18715890621993" y="447.66758402442434" type="curve"/>
    </contour>
  </outline>
</glyph>
<glyph name="V" format="2">
  <advance width="786"/>
  <unicode hex="0056"/>
  <guideline x="433" y="350" angle="113.6122"/>
  <outline>
    <contour>
      <point x="211.8858996598508" y="45.38378357759259" type="line"/>
      <point x="217.7962449191017" y="18.86300356813347"/>
      <point x="241.3257460500648" y="0.0"/>
      <point x="268.4971271962943" y="0.0" type="curve"/>
      <point x="421.7951410944036" y="0.0" type="line"/>
      <point x="441.8247802851933" y="0.0"/>
      <point x="460.43692110633185" y="10.334506363376866"/>
      <point x="471.02639795187997" y="27.33596001448618" type="curve"/>
      <point x="834.7749693804514" y="611.3359600144862" type="line"/>
      <point x="858.838364638428" y="649.9698514837146"/>
      <point x="831.0588150868244" y="700.0"/>
      <point x="785.543712522975" y="700.0" type="curve"/>
      <point x="680.2673810129537" y="700.0" type="line"/>
      <point x="660.2037575712912" y="700.0"/>
      <point x="641.5650620652473" y="689.6306570779664"/>
      <point x="630.9856834731103" y="672.5829084227022" type="curve"/>
      <point x="316.5413026498838" y="165.8831317157095" type="line"/>
      <point x="300.6031463510171" y="140.20017876672046"/>
      <point x="319.0735397641886" y="107.0"/>
      <point x="349.3" y="107.0" type="curve"/>
      <point x="364.7" y="107.0" type="line"/>
      <point x="400.39024323444244" y="107.0"/>
      <point x="427.0145808334934" y="139.87582195030484"/>
      <point x="419.5967553822053" y="174.78669887581168" type="curve"/>
      <point x="317.7624154903201" y="654.0546636050807" type="line"/>
      <point x="312.07037253519275" y="680.8434054494498"/>
      <point x="288.4157449120622" y="700.0"/>
      <point x="261.0289589997418" y="700.0" type="curve"/>
      <point x="138.34855576772281" y="700.0" type="line"/>
      <point x="101.22878573194467" y="700.0"/>
      <point x="73.66299974297986" y="665.6147447430391"/>
      <point x="81.73732823127935" y="629.3837835775927" type="curve"/>
    </contour>
  </outline>
</glyph>
<glyph name="W" format="2">
  <advance width="1206"/>
  <unicode hex="0057"/>
  <anchor x="548" y="0" name="bottom"/>
  <anchor x="688" y="700" name="top"/>
  <outline>
    <contour>
      <point x="172.86925073550427" y="51.08957720413102" type="line"/>
      <point x="176.3673142701859" y="21.939047748450907"/>
      <point x="201.09644428999326" y="0.0"/>
      <point x="230.45610736774574" y="0.0" type="curve"/>
      <point x="396.7430939163777" y="0.0" type="line"/>
      <point x="418.4036990962119" y="0.0"/>
      <point x="438.2593385761657" y="12.069800282327538"/>
      <point x="448.23124656383436" y="31.29849935018259" type="curve"/>
      <point x="668.0839892921709" y="455.237652659007" type="line"/>
      <point x="674.8829343059763" y="468.34796894060776"/>
      <point x="665.3684138046154" y="484.0"/>
      <point x="650.6" y="484.0" type="curve"/>
      <point x="643.4" y="484.0" type="line"/>
      <point x="626.1068482759206" y="484.0"/>
      <point x="612.6444323697839" y="468.98291949102986"/>
      <point x="614.5268513860647" y="451.7925269649944" type="curve"/>
      <point x="658.3401146031504" y="51.68650060519288" type="line"/>
      <point x="661.560983072391" y="22.27328665967523"/>
      <point x="686.4064299297597" y="0.0"/>
      <point x="715.9954675670493" y="0.0" type="curve"/>
      <point x="881.7870269912711" y="0.0" type="line"/>
      <point x="903.4245622078728" y="0.0"/>
      <point x="923.263065376511" y="12.0443564932903"/>
      <point x="933.2456014628776" y="31.241541274764607" type="curve"/>
      <point x="1236.9256014628777" y="615.2415412747646" type="line"/>
      <point x="1257.003344027077" y="653.8525846674556"/>
      <point x="1228.9863148800512" y="700.0"/>
      <point x="1185.467026991271" y="700.0" type="curve"/>
      <point x="1084.229894841416" y="700.0" type="line"/>
      <point x="1062.5834722854927" y="700.0"/>
      <point x="1042.738366039754" y="687.9458447214811"/>
      <point x="1032.7599178384971" y="668.7365193568462" type="curve"/>
      <point x="765.8554289089102" y="154.923643274156" type="line"/>
      <point x="754.985766222767" y="133.99865745164595"/>
      <point x="770.1702502434233" y="109.0"/>
      <point x="793.75" y="109.0" type="curve"/>
      <point x="805.25" y="109.0" type="line"/>
      <point x="832.9590270059371" y="109.0"/>
      <point x="854.6118414616158" y="132.92206264720508"/>
      <point x="851.8593093802025" y="160.49403654746368" type="curve"/>
      <point x="803.2150063087718" y="647.7615469748456" type="line"/>
      <point x="800.2546336836675" y="677.4154490330926"/>
      <point x="775.3031871086629" y="700.0"/>
      <point x="745.5018832217593" y="700.0" type="curve"/>
      <point x="616.1770535339342" y="700.0" type="line"/>
      <point x="594.5583890781268" y="700.0"/>
      <point x="574.7339130021755" y="687.9764369619667"/>
      <point x="564.7427236745727" y="668.8050314664692" type="curve"/>
      <point x="298.3723487501579" y="157.6852536082576" type="line"/>
      <point x="286.81985181515546" y="135.51796241154827"/>
      <point x="302.9030204938087" y="109.0"/>
      <point x="327.9" y="109.0" type="curve"/>
      <point x="340.1" y="109.0" type="line"/>
      <point x="369.3648242111234" y="109.0"/>
      <point x="392.11230978137326" y="134.4720137195286"/>
      <point x="388.8157555731918" y="163.55057397378596" type="curve"/>
      <point x="333.8346178148063" y="648.5334458425297" type="line"/>
      <point x="330.5110652215934" y="677.8501560304221"/>
      <point x="305.7082742609787" y="700.0"/>
      <point x="276.20377463667177" y="700.0" type="curve"/>
      <point x="160.37610736774576" y="700.0" type="line"/>
      <point x="125.60377968089514" y="700.0"/>
      <point x="98.64629408183809" y="669.6142159846826"/>
      <point x="102.78925073550428" y="635.089577204131" type="curve"/>
    </contour>
  </outline>
</glyph>
<glyph name="X" format="2">
  <advance width="762"/>
  <unicode hex="0058"/>
  <outline>
    <contour>
      <point x="21.523703056883065" y="93.75129980665915" type="line"/>
      <point x="-11.275284781063064" y="57.79696630329036"/>
      <point x="14.232888920080683" y="0.0"/>
      <point x="62.900000000000006" y="0.0" type="curve"/>
      <point x="191.02048750461006" y="0.0" type="line"/>
      <point x="208.1267538560951" y="0.0"/>
      <point x="224.3606051049968" y="7.551403321000786"/>
      <point x="235.38091225593934" y="20.634872997918826" type="curve"/>
      <point x="405.9750840720861" y="223.16676647827572" type="line"/>
      <point x="418.41844154816397" y="237.93970229462386"/>
      <point x="408.1618222742412" y="260.53903135935997"/>
      <point x="388.85" y="260.9" type="curve"/>
      <point x="378.15" y="261.1" type="line"/>
      <point x="356.10348325727057" y="261.5120844250977"/>
      <point x="341.38804726495874" y="238.50654816205366"/>
      <point x="351.0061803018199" y="218.6644154403401" type="curve"/>
      <point x="441.1487401395649" y="32.70102427900789" type="line"/>
      <point x="450.84337215563204" y="12.70107476554647"/>
      <point x="471.1145799304849" y="0.0"/>
      <point x="493.3403278474384" y="0.0" type="curve"/>
      <point x="614.7718564270368" y="0.0" type="line"/>
      <point x="658.6876309711121" y="0.0"/>
      <point x="686.6720961655923" y="46.91168275416389"/>
      <point x="665.808372892234" y="85.55492673003604" type="curve"/>
      <point x="510.48522520171286" y="373.2404089742187" type="line"/>
      <point x="502.31633825935705" y="388.3706082674517"/>
      <point x="479.432394611039" y="383.31356040852353"/>
      <point x="478.4" y="366.15" type="curve"/>
      <point x="477.6" y="352.85" type="line"/>
      <point x="476.4041854529021" y="332.96958315449666"/>
      <point x="500.89511515145665" y="322.6648018066202"/>
      <point x="514.2724400600507" y="337.41973741040823" type="curve"/>
      <point x="762.6004340966813" y="611.3208040036566" type="line"/>
      <point x="793.510531123929" y="645.4140546543065"/>
      <point x="769.3193854604982" y="700.0"/>
      <point x="723.3" y="700.0" type="curve"/>
      <point x="603.6072073087107" y="700.0" type="line"/>
      <point x="586.7153762924555" y="700.0"/>
      <point x="570.6628323403227" y="692.6359764695416"/>
      <point x="559.6445905340763" y="679.8323714076535" type="curve"/>
      <point x="390.9455108719661" y="483.7977927262199" type="line"/>
      <point x="379.37496745858454" y="470.3523927412255"/>
      <point x="389.16485616007975" y="449.5522520815702"/>
      <point x="406.9" y="449.9" type="curve"/>
      <point x="417.1" y="450.1" type="line"/>
      <point x="438.4938025556678" y="450.5194863246209"/>
      <point x="452.21553961178444" y="473.0109068579154"/>
      <point x="442.8007531383217" y="492.226331709491" type="curve"/>
      <point x="356.91428872199367" y="667.51919760839" type="line"/>
      <point x="347.174152662139" y="687.3986556321918"/>
      <point x="326.96739365009154" y="700.0"/>
      <point x="304.8300247507716" y="700.0" type="curve"/>
      <point x="184.7260922496023" y="700.0" type="line"/>
      <point x="141.16120491057464" y="700.0"/>
      <point x="113.14755380699648" y="653.7648732794949"/>
      <point x="133.31552084147043" y="615.1494292893173" type="curve"/>
      <point x="270.7381631926638" y="352.0274031761318" type="line"/>
      <point x="280.7394747251875" y="332.87797256409596"/>
      <point x="309.18207320178453" y="336.578839633693"/>
      <point x="313.95" y="357.65" type="curve"/>
      <point x="317.05" y="371.35" type="line"/>
      <point x="320.8367651895907" y="388.0850590636752"/>
      <point x="299.96450452158916" y="398.9788112856914"/>
      <point x="288.4008502213876" y="386.3027041667363" type="curve"/>
    </contour>
  </outline>
</glyph>
<glyph name="Y" format="2">
  <advance width="710"/>
  <unicode hex="0059"/>
  <guideline x="326" y="129" angle="258.7"/>
  <anchor x="300" y="0" name="bottom"/>
  <anchor x="344" y="217" name="center"/>
  <anchor x="440" y="700" name="top"/>
  <anchor x="177" y="700" name="topleft"/>
  <outline>
    <contour>
      <point x="195.7703936742022" y="69.30345668819807" type="line"/>
      <point x="188.64316610091157" y="33.43363922917786"/>
      <point x="216.08723937122397" y="0.0"/>
      <point x="252.65828225251062" y="0.0" type="curve"/>
      <point x="370.3905776823428" y="0.0" type="line"/>
      <point x="398.06540370499454" y="0.0"/>
      <point x="421.8849973416777" y="19.552363670410873"/>
      <point x="427.2784662606512" y="46.696543311801925" type="curve"/>
      <point x="464.78271275761045" y="235.4474232227281" type="line"/>
      <point x="467.38738064689545" y="248.55616161634268"/>
      <point x="449.5953541217543" y="255.17431163959205"/>
      <point x="443.0" y="243.55" type="curve"/>
      <point x="435.0" y="229.45" type="line"/>
      <point x="431.5746740575313" y="223.4128630263989"/>
      <point x="439.98761390537555" y="217.74322890182162"/>
      <point x="444.2975860322498" y="223.18418662227282" type="curve"/>
      <point x="755.7779743123725" y="616.4005633163284" type="line"/>
      <point x="782.5589761799646" y="650.2092039718701"/>
      <point x="758.4805720343182" y="700.0"/>
      <point x="715.35" y="700.0" type="curve"/>
      <point x="612.7934042169896" y="700.0" type="line"/>
      <point x="595.2211587595915" y="700.0"/>
      <point x="578.596379425031" y="692.0334618609708"/>
      <point x="567.5872565646893" y="678.3373666414948" type="curve"/>
      <point x="332.00724885021083" y="385.25986551873683" type="line"/>
      <point x="315.1065960909294" y="364.234307679224"/>
      <point x="330.0739708972483" y="333.0"/>
      <point x="357.05" y="333.0" type="curve"/>
      <point x="371.95" y="333.0" type="line"/>
      <point x="404.16532943987005" y="333.0"/>
      <point x="426.2762900096576" y="365.42778865594204"/>
      <point x="414.5093204231734" y="395.41721808816226" type="curve"/>
      <point x="309.44509238802" y="663.1850770388656" type="line"/>
      <point x="300.7314443852929" y="685.3927771569272"/>
      <point x="279.30858789245235" y="700.0"/>
      <point x="255.45256965702208" y="700.0" type="curve"/>
      <point x="143.28118633696675" y="700.0" type="line"/>
      <point x="102.35235033452801" y="700.0"/>
      <point x="74.29876768569133" y="658.750986046639"/>
      <point x="89.33944951242609" y="620.685942940116" type="curve"/>
      <point x="245.290056872523" y="226.00525891029724" type="line"/>
      <point x="248.0807882554431" y="218.94246005494495"/>
      <point x="258.6771250738398" y="221.98174479186855"/>
      <point x="257.3" y="229.45" type="curve"/>
      <point x="254.7" y="243.55" type="line"/>
      <point x="252.23000854448225" y="256.9449536626156"/>
      <point x="233.08045152637646" y="257.0770265343865"/>
      <point x="230.4259361102351" y="243.71741616134727" type="curve"/>
    </contour>
  </outline>
</glyph>
<glyph name="Z" format="2">
  <advance width="687"/>
  <unicode hex="005A"/>
  <anchor x="299" y="0" name="bottom"/>
  <anchor x="439" y="700" name="top"/>
  <outline>
    <contour>
      <point x="-9.95" y="65.25" type="line"/>
      <point x="-16.701212887487905" y="31.49393556256048"/>
      <point x="9.117638398665932" y="0.0"/>
      <point x="43.54220465238585" y="0.0" type="curve"/>
      <point x="572.5531562061888" y="0.0" type="line"/>
      <point x="600.154856461797" y="0.0"/>
      <point x="623.9328260308503" y="19.45154496339429"/>
      <point x="629.402813438702" y="46.50580700763393" type="curve"/>
      <point x="642.9492615261337" y="113.50580700763393" type="line"/>
      <point x="650.2124854958661" y="149.42932015522945"/>
      <point x="622.7500233812647" y="183.0"/>
      <point x="586.0996042936204" y="183.0" type="curve"/>
      <point x="222" y="183" type="line"/>
      <point x="242" y="101" type="line"/>
      <point x="701.8611151136706" y="542.3888927306691" type="line"/>
      <point x="710.4144987537354" y="550.5986943640505"/>
      <point x="716.24650762873" y="561.23253814365"/>
      <point x="718.5716314017266" y="572.8581570086329" type="curve"/>
      <point x="730.95" y="634.75" type="line"/>
      <point x="737.7012128874879" y="668.5060644374395"/>
      <point x="711.8823616013341" y="700.0"/>
      <point x="677.4577953476141" y="700.0" type="curve"/>
      <point x="174.44684379381127" y="700.0" type="line"/>
      <point x="146.84514353820305" y="700.0"/>
      <point x="123.06717396914979" y="680.5484550366057"/>
      <point x="117.59718656129806" y="653.494192992366" type="curve"/>
      <point x="104.05073847386636" y="586.494192992366" type="line"/>
      <point x="96.78751450413392" y="550.5706798447706"/>
      <point x="124.24997661873525" y="517.0"/>
      <point x="160.90039570637958" y="517.0" type="curve"/>
      <point x="499" y="517" type="line"/>
      <point x="479" y="599" type="line"/>
      <point x="19.13888488632935" y="157.61110726933092" type="line"/>
      <point x="10.585501246264577" y="149.4013056359495"/>
      <point x="4.7534923712699895" y="138.76746185634994"/>
      <point x="2.428368598273413" y="127.14184299136707" type="curve"/>
    </contour>
  </outline>
</glyph>
<glyph name="bracketleft" format="2">
  <advance width="410"/>
  <unicode hex="005B"/>
  <outline>
    <contour>
      <point x="-22.142211159313774" y="-124.63694997389142" type="line"/>
      <point x="-29.311870700968218" y="-160.52358810752006"/>
      <point x="-1.8620266167491977" y="-194.0"/>
      <point x="34.733803944630964" y="-194.0" type="curve"/>
      <point x="258.4513736423237" y="-194.0" type="line"/>
      <point x="286.0988728044643" y="-194.0"/>
      <point x="309.9029321504819" y="-174.48533924759064"/>
      <point x="315.3250528323971" y="-147.37473583801466" type="curve"/>
      <point x="329.7627377457868" y="-75.18631127106603" type="line"/>
      <point x="335.0588248617437" y="-48.705875691281484"/>
      <point x="314.8048515499516" y="-24.0"/>
      <point x="287.8" y="-24.0" type="curve"/>
      <point x="276.2" y="-24.0" type="line"/>
      <point x="249.19189631001169" y="-24.0"/>
      <point x="228.9325659043555" y="0.7042796554275235"/>
      <point x="234.22074468070235" y="27.189612014273905" type="curve"/>
      <point x="333.68692881618864" y="525.3563829785581" type="line"/>
      <point x="339.1016787145874" y="552.4756345705388"/>
      <point x="362.9097401858347" y="572.0"/>
      <point x="390.5642754987152" y="572.0" type="curve"/>
      <point x="411.4513736423237" y="572.0" type="line"/>
      <point x="439.0988728044643" y="572.0"/>
      <point x="462.9029321504819" y="591.5146607524093"/>
      <point x="468.3250528323971" y="618.6252641619853" type="curve"/>
      <point x="479.12505283239705" y="672.6252641619853" type="line"/>
      <point x="486.30303920259894" y="708.5151960129948"/>
      <point x="458.8520662122862" y="742.0"/>
      <point x="422.25137364232376" y="742.0" type="curve"/>
      <point x="198.55859026941732" y="742.0" type="line"/>
      <point x="170.9066109751391" y="742.0"/>
      <point x="147.1000031661933" y="722.4791602329248"/>
      <point x="141.68257516547257" y="695.3630500261087" type="curve"/>
    </contour>
  </outline>
</glyph>
<glyph name="backslash" format="2">
  <advance width="440"/>
  <unicode hex="005C"/>
  <outline>
    <contour>
      <point x="337.10483228425096" y="-100.0" type="line"/>
      <point x="372.75117700002966" y="-100.0"/>
      <point x="399.9617087782917" y="-68.14717898758929"/>
      <point x="394.39261667010345" y="-32.93855639756684" type="curve"/>
      <point x="263.7408119991905" y="793.0614436024332" type="line"/>
      <point x="259.2828504396607" y="821.2453348042926"/>
      <point x="234.98730777850943" y="842.0"/>
      <point x="206.45302761333804" y="842.0" type="curve"/>
      <point x="131.89516771574904" y="842.0" type="line"/>
      <point x="96.24882299997034" y="842.0"/>
      <point x="69.03829122170828" y="810.1471789875892"/>
      <point x="74.60738332989654" y="774.9385563975668" type="curve"/>
      <point x="205.2591880008095" y="-51.06144360243315" type="line"/>
      <point x="209.7171495603393" y="-79.24533480429255"/>
      <point x="234.0126922214906" y="-100.0"/>
      <point x="262.546972386662" y="-100.0" type="curve"/>
    </contour>
  </outline>
</glyph>
<glyph name="bracketright" format="2">
  <advance width="410"/>
  <unicode hex="005D"/>
  <outline>
    <contour>
      <point x="212.44140973058268" y="-194.0" type="line"/>
      <point x="240.09338902486087" y="-194.0"/>
      <point x="263.8999968338067" y="-174.47916023292476"/>
      <point x="269.31742483452746" y="-147.36305002610862" type="curve"/>
      <point x="433.1422111593138" y="672.6369499738914" type="line"/>
      <point x="440.3118707009682" y="708.52358810752"/>
      <point x="412.86202661674923" y="742.0"/>
      <point x="376.26619605536905" y="742.0" type="curve"/>
      <point x="152.5486263576763" y="742.0" type="line"/>
      <point x="124.90112719553571" y="742.0"/>
      <point x="101.09706784951814" y="722.4853392475907"/>
      <point x="95.67494716760294" y="695.3747358380147" type="curve"/>
      <point x="81.2372622542132" y="623.1863112710661" type="line"/>
      <point x="75.9411751382563" y="596.7058756912816"/>
      <point x="96.19514845004838" y="572.0"/>
      <point x="123.2" y="572.0" type="curve"/>
      <point x="134.8" y="572.0" type="line"/>
      <point x="161.80810368998831" y="572.0"/>
      <point x="182.0674340956445" y="547.2957203445724"/>
      <point x="176.77925531929765" y="520.810387985726" type="curve"/>
      <point x="77.31307118381137" y="22.643617021441862" type="line"/>
      <point x="71.89832128541255" y="-4.475634570538766"/>
      <point x="48.09025981416529" y="-24.0"/>
      <point x="20.435724501284803" y="-24.0" type="curve"/>
      <point x="-0.4513736423236878" y="-24.0" type="line"/>
      <point x="-28.098872804464293" y="-24.0"/>
      <point x="-51.90293215048187" y="-43.514660752409355"/>
      <point x="-57.32505283239706" y="-70.62526416198534" type="curve"/>
      <point x="-68.12505283239707" y="-124.62526416198536" type="line"/>
      <point x="-75.30303920259897" y="-160.5151960129948"/>
      <point x="-47.85206621228622" y="-194.0"/>
      <point x="-11.251373642323728" y="-194.0" type="curve"/>
    </contour>
  </outline>
</glyph>
<glyph name="asciicircum" format="2">
  <advance width="620"/>
  <unicode hex="005E"/>
  <outline>
    <contour>
      <point x="52.297382462292184" y="206.92377471779668" type="line"/>
      <point x="33.551188149062995" y="177.51524683607653"/>
      <point x="54.674775077438454" y="139.0"/>
      <point x="89.55" y="139.0" type="curve"/>
      <point x="155.5841238815774" y="139.0" type="line"/>
      <point x="175.72836703888984" y="139.0"/>
      <point x="194.4299507620744" y="149.45221071015618"/>
      <point x="204.9849023362662" y="166.60981921622124" type="curve"/>
      <point x="415" y="508" type="line"/>
      <point x="317" y="508" type="line"/>
      <point x="386.1822033749564" y="184.8578095524191" type="line"/>
      <point x="391.90854775026526" y="158.11070734369792"/>
      <point x="415.54377437160815" y="139.0"/>
      <point x="442.89699166808737" y="139.0" type="curve"/>
      <point x="484.55" y="139.0" type="line"/>
      <point x="521.4971547795603" y="139.0"/>
      <point x="548.7362594882478" y="173.52770788078647"/>
      <point x="540.1363374862204" y="209.4600552555939" type="curve"/>
      <point x="456" y="561" type="line"/>
      <point x="278" y="561" type="line"/>
    </contour>
  </outline>
</glyph>
<glyph name="underscore" format="2">
  <advance width="500"/>
  <unicode hex="005F"/>
  <outline>
    <contour>
      <point x="-68.2" y="-66.0" type="line"/>
      <point x="-73.78721066550723" y="-93.93605332753616"/>
      <point x="-52.419885463173024" y="-120.0"/>
      <point x="-23.930589253197923" y="-120.0" type="curve"/>
      <point x="373.4513736423237" y="-120.0" type="line"/>
      <point x="401.0988728044643" y="-120.0"/>
      <point x="424.9029321504819" y="-100.48533924759064"/>
      <point x="430.3250528323971" y="-73.37473583801466" type="curve"/>
      <point x="434.2" y="-54.0" type="line"/>
      <point x="439.78721066550725" y="-26.063946672463846"/>
      <point x="418.41988546317305" y="0.0"/>
      <point x="389.9305892531979" y="0.0" type="curve"/>
      <point x="-7.451373642323688" y="0.0" type="line"/>
      <point x="-35.09887280446429" y="0.0"/>
      <point x="-58.90293215048187" y="-19.514660752409352"/>
      <point x="-64.32505283239706" y="-46.625264161985335" type="curve"/>
    </contour>
  </outline>
</glyph>
<glyph name="a" format="2">
  <advance width="700"/>
  <unicode hex="0061"/>
  <anchor x="312" y="0" name="bottom"/>
  <anchor x="596" y="0" name="ogonek"/>
  <anchor x="421" y="547" name="top"/>
  <outline>
    <contour>
      <point x="245" y="-10" type="curve" smooth="yes"/>
      <point x="378" y="-10"/>
      <point x="464" y="97"/>
      <point x="493" y="274" type="curve" smooth="yes"/>
      <point x="527" y="489"/>
      <point x="438" y="557"/>
      <point x="311" y="557" type="curve" smooth="yes"/>
      <point x="154" y="557"/>
      <point x="20" y="423"/>
      <point x="20" y="243" type="curve" smooth="yes"/>
      <point x="20" y="80"/>
      <point x="136" y="-10"/>
    </contour>
    <contour>
      <point x="330" y="168" type="curve" smooth="yes"/>
      <point x="279" y="168"/>
      <point x="249" y="203"/>
      <point x="249" y="254" type="curve" smooth="yes"/>
      <point x="249" y="330"/>
      <point x="289" y="379"/>
      <point x="348" y="379" type="curve" smooth="yes"/>
      <point x="399" y="379"/>
      <point x="429" y="344"/>
      <point x="429" y="293" type="curve" smooth="yes"/>
      <point x="429" y="217"/>
      <point x="389" y="168"/>
    </contour>
    <contour>
      <point x="389.75" y="33.300000000000004" type="line"/>
      <point x="386.26138273113645" y="16.089488140273147"/>
      <point x="399.41670630592336" y="0.0"/>
      <point x="416.9772350258228" y="0.0" type="curve"/>
      <point x="548.4172637615653" y="0.0" type="line"/>
      <point x="576.0800975018893" y="0.0"/>
      <point x="599.8928769905019" y="19.535813888114745"/>
      <point x="605.2989279975286" y="46.665262519707525" type="curve"/>
      <point x="691.1837543229399" y="477.66526251970754" type="line"/>
      <point x="698.3332479866058" y="513.5439142080123"/>
      <point x="670.8861427140093" y="547.0"/>
      <point x="634.3020900869767" y="547.0" type="curve"/>
      <point x="513.4183817167514" y="547.0" type="line"/>
      <point x="493.4055600525038" y="547.0"/>
      <point x="476.17483723800194" y="532.8741861900097"/>
      <point x="472.25" y="513.25" type="curve"/>
      <point x="464" y="472" type="line"/>
      <point x="435" y="274" type="line"/>
      <point x="398" y="74" type="line"/>
    </contour>
  </outline>
</glyph>
<glyph name="b" format="2">
  <advance width="700"/>
  <unicode hex="0062"/>
  <outline>
    <contour>
      <point x="8.83166727737765" y="69.34525080955551" type="line"/>
      <point x="1.674686796240442" y="33.463632451421674"/>
      <point x="29.122809683139344" y="0.0"/>
      <point x="65.71123552528437" y="0.0" type="curve"/>
      <point x="162.4513736423237" y="0.0" type="line"/>
      <point x="190.0988728044643" y="0.0"/>
      <point x="213.90293215048186" y="19.51466075240935"/>
      <point x="219.32505283239706" y="46.625264161985335" type="curve"/>
      <point x="232" y="110" type="line"/>
      <point x="266" y="274" type="line"/>
      <point x="315" y="472" type="line"/>
      <point x="355.12505283239705" y="672.6252641619853" type="line"/>
      <point x="362.30303920259894" y="708.5151960129948"/>
      <point x="334.8520662122862" y="742.0"/>
      <point x="298.25137364232376" y="742.0" type="curve"/>
      <point x="190.57376921800676" y="742.0" type="line"/>
      <point x="162.9149660582138" y="742.0"/>
      <point x="139.1044778483755" y="722.4697470506394"/>
      <point x="133.6942009701" y="695.3452508095555" type="curve"/>
    </contour>
    <contour>
      <point x="389" y="-10" type="curve" smooth="yes"/>
      <point x="546" y="-10"/>
      <point x="680" y="124"/>
      <point x="680" y="304" type="curve" smooth="yes"/>
      <point x="680" y="467"/>
      <point x="564" y="557"/>
      <point x="455" y="557" type="curve" smooth="yes"/>
      <point x="286" y="557"/>
      <point x="200" y="375"/>
      <point x="200" y="188" type="curve" smooth="yes"/>
      <point x="200" y="40"/>
      <point x="280" y="-10"/>
    </contour>
    <contour>
      <point x="352" y="168" type="curve" smooth="yes"/>
      <point x="301" y="168"/>
      <point x="271" y="203"/>
      <point x="271" y="254" type="curve" smooth="yes"/>
      <point x="271" y="330"/>
      <point x="311" y="379"/>
      <point x="370" y="379" type="curve" smooth="yes"/>
      <point x="421" y="379"/>
      <point x="451" y="344"/>
      <point x="451" y="293" type="curve" smooth="yes"/>
      <point x="451" y="217"/>
      <point x="411" y="168"/>
    </contour>
  </outline>
</glyph>
<glyph name="c" format="2">
  <advance width="614"/>
  <unicode hex="0063"/>
  <anchor x="292" y="0" name="bottom"/>
  <anchor x="377" y="547" name="top"/>
  <outline>
    <contour>
      <point x="317" y="-10" type="curve" smooth="yes"/>
      <point x="426.3661795890025" y="-10.0"/>
      <point x="515.6069511700109" y="30.250816015988292"/>
      <point x="573.1443134297415" y="101.00255220519972" type="curve"/>
      <point x="590.4887533989119" y="122.33041974818615"/>
      <point x="581.9192717510863" y="153.10151461754978"/>
      <point x="558.1582191117542" y="166.9261270622521" type="curve"/>
      <point x="458.2658631545088" y="225.04531598283126" type="line"/>
      <point x="446.1737363703074" y="232.08073520273027"/>
      <point x="430.8476818589683" y="227.33679701866038"/>
      <point x="422.94475834589343" y="215.79294784642087" type="curve"/>
      <point x="399.38041854971243" y="181.37237120785548"/>
      <point x="370.9130633404948" y="168.0"/>
      <point x="334" y="168" type="curve" smooth="yes"/>
      <point x="278" y="168"/>
      <point x="248" y="205"/>
      <point x="248" y="257" type="curve" smooth="yes"/>
      <point x="248" y="330"/>
      <point x="292" y="379"/>
      <point x="353" y="379" type="curve" smooth="yes"/>
      <point x="384.8687697391697" y="379.0"/>
      <point x="413.2208549745713" y="365.63659888568134"/>
      <point x="432.7475626627153" y="331.2416844831146" type="curve"/>
      <point x="439.2774906193063" y="319.7396782714765"/>
      <point x="453.2402291632379" y="313.6934383664841"/>
      <point x="465.2638308374391" y="319.20425580049294" type="curve"/>
      <point x="591.471977066632" y="377.0496561555397" type="line"/>
      <point x="615.8860813874037" y="388.2394539692267"/>
      <point x="627.7275284478361" y="417.08063362800493"/>
      <point x="612.9303985373637" y="439.492795757289" type="curve"/>
      <point x="564.2933900983525" y="513.1598193769842"/>
      <point x="474.20837584790115" y="557.0"/>
      <point x="364" y="557" type="curve" smooth="yes"/>
      <point x="162" y="557"/>
      <point x="19" y="423"/>
      <point x="19" y="243" type="curve" smooth="yes"/>
      <point x="19" y="90"/>
      <point x="137" y="-10"/>
    </contour>
  </outline>
</glyph>
<glyph name="d" format="2">
  <advance width="705"/>
  <unicode hex="0064"/>
  <anchor x="327" y="0" name="bottom"/>
  <anchor x="565" y="640" name="center"/>
  <anchor x="821" y="742" name="topright"/>
  <outline>
    <contour>
      <point x="250" y="-10" type="curve" smooth="yes"/>
      <point x="419" y="-10"/>
      <point x="505" y="172"/>
      <point x="505" y="359" type="curve" smooth="yes"/>
      <point x="505" y="507"/>
      <point x="425" y="557"/>
      <point x="316" y="557" type="curve" smooth="yes"/>
      <point x="159" y="557"/>
      <point x="25" y="423"/>
      <point x="25" y="243" type="curve" smooth="yes"/>
      <point x="25" y="80"/>
      <point x="141" y="-10"/>
    </contour>
    <contour>
      <point x="335" y="168" type="curve" smooth="yes"/>
      <point x="284" y="168"/>
      <point x="254" y="203"/>
      <point x="254" y="254" type="curve" smooth="yes"/>
      <point x="254" y="330"/>
      <point x="294" y="379"/>
      <point x="353" y="379" type="curve" smooth="yes"/>
      <point x="404" y="379"/>
      <point x="434" y="344"/>
      <point x="434" y="293" type="curve" smooth="yes"/>
      <point x="434" y="217"/>
      <point x="394" y="168"/>
    </contour>
    <contour>
      <point x="393.75" y="33.300000000000004" type="line"/>
      <point x="390.26138273113645" y="16.089488140273147"/>
      <point x="403.41670630592336" y="0.0"/>
      <point x="420.9772350258228" y="0.0" type="curve"/>
      <point x="552.4262307819932" y="0.0" type="line"/>
      <point x="580.0850339417863" y="0.0"/>
      <point x="603.8955221516245" y="19.530252949360637"/>
      <point x="609.3057990299" y="46.654749190444484" type="curve"/>
      <point x="734.1683327226224" y="672.6547491904445" type="line"/>
      <point x="741.3253132037596" y="708.5363675485783"/>
      <point x="713.8771903168607" y="742.0"/>
      <point x="677.2887644747157" y="742.0" type="curve"/>
      <point x="569.5486263576763" y="742.0" type="line"/>
      <point x="541.9011271955358" y="742.0"/>
      <point x="518.0970678495181" y="722.4853392475907"/>
      <point x="512.6749471676029" y="695.3747358380147" type="curve"/>
      <point x="468" y="472" type="line"/>
      <point x="439" y="274" type="line"/>
      <point x="402" y="74" type="line"/>
    </contour>
  </outline>
</glyph>
<glyph name="e" format="2">
  <advance width="648"/>
  <unicode hex="0065"/>
  <guideline x="280" y="80" angle="90"/>
  <anchor x="277" y="0" name="bottom"/>
  <anchor x="500" y="0" name="ogonek"/>
  <anchor x="384" y="547" name="top"/>
  <outline>
    <contour>
      <point x="321" y="-10" type="curve" smooth="yes"/>
      <point x="391.26960865046794" y="-10.0"/>
      <point x="460.1056803870471" y="2.185063768054672"/>
      <point x="525.0808880308227" y="36.87133181455195" type="curve"/>
      <point x="544.9412879670324" y="47.47357812786554"/>
      <point x="549.6462065534371" y="73.09010321467152"/>
      <point x="536.9091008643145" y="91.65375725094594" type="curve"/>
      <point x="477.10037242921965" y="178.82179762975437" type="line"/>
      <point x="471.0384104591785" y="187.65678475630372"/>
      <point x="458.87767088641345" y="189.59723497267134"/>
      <point x="449.6361981864986" y="184.17509860503495" type="curve"/>
      <point x="418.06265819294157" y="165.65034124080398"/>
      <point x="381.8104673264038" y="157.0"/>
      <point x="347" y="157" type="curve" smooth="yes"/>
      <point x="276" y="157"/>
      <point x="239" y="183"/>
      <point x="239" y="251" type="curve" smooth="yes"/>
      <point x="239" y="327"/>
      <point x="267" y="403"/>
      <point x="349" y="403" type="curve" smooth="yes"/>
      <point x="406" y="403"/>
      <point x="442" y="364"/>
      <point x="427" y="301" type="curve"/>
      <point x="521" y="330" type="line"/>
      <point x="221" y="330" type="line"/>
      <point x="200" y="221" type="line"/>
      <point x="611.5752094988413" y="221.0" type="line"/>
      <point x="619.4509913141804" y="221.0"/>
      <point x="626.3358701496998" y="226.38773108924164"/>
      <point x="627.9715015408053" y="234.0917981421207" type="curve"/>
      <point x="633.372562521817" y="259.5315984422842"/>
      <point x="637.0" y="287.0403117255055"/>
      <point x="637" y="316" type="curve" smooth="yes"/>
      <point x="637" y="457"/>
      <point x="534" y="557"/>
      <point x="359" y="557" type="curve" smooth="yes"/>
      <point x="155" y="557"/>
      <point x="20" y="423"/>
      <point x="20" y="243" type="curve" smooth="yes"/>
      <point x="20" y="88"/>
      <point x="141" y="-10"/>
    </contour>
  </outline>
</glyph>
<glyph name="f" format="2">
  <advance width="426"/>
  <unicode hex="0066"/>
  <outline>
    <contour>
      <point x="33.87494716760293" y="69.37473583801466" type="line"/>
      <point x="26.69696079740104" y="33.484803987005186"/>
      <point x="54.14793378771379" y="0.0"/>
      <point x="90.74862635767629" y="0.0" type="curve"/>
      <point x="198.47473783263035" y="0.0" type="line"/>
      <point x="226.11172930212436" y="0.0"/>
      <point x="249.90980891001644" y="19.500171938706973"/>
      <point x="255.3429286183588" y="46.59785648406447" type="curve"/>
      <point x="326" y="399" type="line"/>
      <point x="337" y="488" type="line"/>
      <point x="343" y="518" type="line" smooth="yes"/>
      <point x="352" y="562"/>
      <point x="370" y="581"/>
      <point x="406" y="581" type="curve" smooth="yes"/>
      <point x="425" y="581"/>
      <point x="442" y="576"/>
      <point x="457" y="568" type="curve"/>
      <point x="543" y="725" type="line"/>
      <point x="507" y="743"/>
      <point x="458" y="752"/>
      <point x="404" y="752" type="curve" smooth="yes"/>
      <point x="245" y="752"/>
      <point x="152" y="661"/>
      <point x="126" y="530" type="curve" smooth="yes"/>
    </contour>
    <contour>
      <point x="28.874947167602933" y="421.37473583801466" type="line"/>
      <point x="21.69696079740104" y="385.4848039870052"/>
      <point x="49.14793378771379" y="352.0"/>
      <point x="85.74862635767629" y="352.0" type="curve"/>
      <point x="380.4513736423237" y="352.0" type="line"/>
      <point x="408.0988728044643" y="352.0"/>
      <point x="431.9029321504819" y="371.5146607524093"/>
      <point x="437.3250528323971" y="398.62526416198534" type="curve"/>
      <point x="447.12505283239705" y="447.62526416198534" type="line"/>
      <point x="454.30303920259894" y="483.5151960129948"/>
      <point x="426.8520662122862" y="517.0"/>
      <point x="390.2513736423237" y="517.0" type="curve"/>
      <point x="95.5486263576763" y="517.0" type="line"/>
      <point x="67.9011271955357" y="517.0"/>
      <point x="44.09706784951813" y="497.4853392475907"/>
      <point x="38.67494716760294" y="470.37473583801466" type="curve"/>
    </contour>
  </outline>
</glyph>
<glyph name="g" format="2">
  <advance width="711"/>
  <unicode hex="0067"/>
  <anchor x="409" y="547" name="top"/>
  <outline>
    <contour>
      <point x="255" y="-204" type="curve" smooth="yes"/>
      <point x="452" y="-204"/>
      <point x="585" y="-113"/>
      <point x="629" y="110" type="curve" smooth="yes"/>
      <point x="702.1985217540243" y="477.67533340814504" type="line"/>
      <point x="709.3408452251687" y="513.5511421080308"/>
      <point x="681.8947154154622" y="547.0"/>
      <point x="645.3148516317183" y="547.0" type="curve"/>
      <point x="539.0376458262075" y="547.0" type="line"/>
      <point x="516.9560804486234" y="547.0"/>
      <point x="497.97973476710445" y="531.3323741043544"/>
      <point x="493.8" y="509.65" type="curve"/>
      <point x="485" y="464" type="line"/>
      <point x="450" y="294" type="line"/>
      <point x="409" y="138" type="line"/>
      <point x="395" y="68" type="line" smooth="yes"/>
      <point x="382" y="3"/>
      <point x="347" y="-36"/>
      <point x="259" y="-36" type="curve" smooth="yes"/>
      <point x="202.59086076561198" y="-36.0"/>
      <point x="143.99026768193707" y="-20.659823054991723"/>
      <point x="100.67955766152315" y="4.401529684563009" type="curve"/>
      <point x="89.15865981458536" y="11.067993584194205"/>
      <point x="73.94848174048627" y="8.292356125363403"/>
      <point x="66.90705381175594" y="-3.003267843641506" type="curve"/>
      <point x="3.4112212585767736" y="-104.86116589769976" type="line"/>
      <point x="-7.393560647358051" y="-122.19383687180354"/>
      <point x="-2.482051356667993" y="-145.17339034436094"/>
      <point x="15.68950861956007" y="-154.4985822009236" type="curve"/>
      <point x="79.59476200922654" y="-187.29316611559477"/>
      <point x="160.39673222627198" y="-204.0"/>
    </contour>
    <contour>
      <point x="260" y="30" type="curve" smooth="yes"/>
      <point x="380" y="30"/>
      <point x="462" y="114"/>
      <point x="493" y="294" type="curve"/>
      <point x="527" y="494"/>
      <point x="439" y="557"/>
      <point x="318" y="557" type="curve" smooth="yes"/>
      <point x="154" y="557"/>
      <point x="24" y="428"/>
      <point x="24" y="266" type="curve" smooth="yes"/>
      <point x="24" y="118"/>
      <point x="139" y="30"/>
    </contour>
    <contour>
      <point x="332" y="207" type="curve" smooth="yes"/>
      <point x="282" y="207"/>
      <point x="252" y="236"/>
      <point x="252" y="277" type="curve" smooth="yes"/>
      <point x="252" y="339"/>
      <point x="292" y="379"/>
      <point x="350" y="379" type="curve" smooth="yes"/>
      <point x="400" y="379"/>
      <point x="429" y="350"/>
      <point x="429" y="309" type="curve" smooth="yes"/>
      <point x="429" y="247"/>
      <point x="390" y="207"/>
    </contour>
  </outline>
</glyph>
<glyph name="h" format="2">
  <advance width="702"/>
  <unicode hex="0068"/>
  <anchor x="300" y="0" name="bottom"/>
  <anchor x="287" y="640" name="center"/>
  <anchor x="256" y="742" name="top"/>
  <anchor x="364" y="547" name="topright"/>
  <outline>
    <contour>
      <point x="470" y="557" type="curve" smooth="yes"/>
      <point x="395" y="557"/>
      <point x="312" y="520"/>
      <point x="260" y="436" type="curve"/>
      <point x="300" y="396" type="line"/>
      <point x="355.1714587215861" y="672.6568799662143" type="line"/>
      <point x="362.32692168775236" y="708.5378971588742"/>
      <point x="334.87900498649736" y="742.0"/>
      <point x="298.2914655086898" y="742.0" type="curve"/>
      <point x="190.57376921800676" y="742.0" type="line"/>
      <point x="162.9149660582138" y="742.0"/>
      <point x="139.1044778483755" y="722.4697470506394"/>
      <point x="133.6942009701" y="695.3452508095555" type="curve"/>
      <point x="8.83166727737765" y="69.34525080955551" type="line"/>
      <point x="1.6746867962404428" y="33.46363245142168"/>
      <point x="29.122809683139344" y="0.0"/>
      <point x="65.71123552528437" y="0.0" type="curve"/>
      <point x="173.52222336073785" y="0.0" type="line"/>
      <point x="201.13784892693263" y="0.0"/>
      <point x="224.92375844035053" y="19.470725845513016"/>
      <point x="230.3792120567439" y="46.54212775327635" type="curve"/>
      <point x="274" y="263" type="line" smooth="yes"/>
      <point x="288" y="334"/>
      <point x="324" y="367"/>
      <point x="375" y="367" type="curve" smooth="yes"/>
      <point x="423" y="367"/>
      <point x="440" y="335"/>
      <point x="428" y="275" type="curve" smooth="yes"/>
      <point x="386.87494716760295" y="69.37473583801464" type="line"/>
      <point x="379.69696079740106" y="33.484803987005186"/>
      <point x="407.1479337877138" y="0.0"/>
      <point x="443.74862635767624" y="0.0" type="curve"/>
      <point x="551.3895703450778" y="0.0" type="line"/>
      <point x="579.0648489655402" y="0.0"/>
      <point x="602.884699681024" y="19.55298839448779"/>
      <point x="608.2776934859529" y="46.69772387929633" type="curve"/>
      <point x="659" y="302" type="line" smooth="yes"/>
      <point x="693" y="472"/>
      <point x="600" y="557"/>
    </contour>
  </outline>
</glyph>
<glyph name="k" format="2">
  <advance width="690"/>
  <unicode hex="006B"/>
  <anchor x="268" y="0" name="bottom"/>
  <anchor x="256" y="742" name="top"/>
  <anchor x="359" y="547" name="topright"/>
  <outline>
    <contour>
      <point x="221.94993572126307" y="142.39763746792374" type="line"/>
      <point x="218.1264524431073" y="120.83319177912514"/>
      <point x="243.96807388770668" y="106.82594310199543"/>
      <point x="259.95" y="121.8" type="curve"/>
      <point x="321" y="179" type="line"/>
      <point x="452" y="275" type="line"/>
      <point x="661.0445184302405" y="463.27850666564706" type="line"/>
      <point x="693.747311550855" y="492.7326779530879"/>
      <point x="672.9115994269648" y="547.0"/>
      <point x="628.9" y="547.0" type="curve"/>
      <point x="497.8792563437935" y="547.0" type="line"/>
      <point x="483.7780608421999" y="547.0"/>
      <point x="470.1598319818913" y="541.8628151692562"/>
      <point x="459.57192933413927" y="532.5493822846595" type="curve"/>
      <point x="275.2549788338158" y="370.41873138159724" type="line"/>
      <point x="265.37917986524354" y="361.73168599257536"/>
      <point x="258.7492756858719" y="349.9459148683175"/>
      <point x="256.4530330985504" y="336.9951066758242" type="curve"/>
    </contour>
    <contour>
      <point x="8.83166727737765" y="69.34525080955551" type="line"/>
      <point x="1.674686796240442" y="33.463632451421674"/>
      <point x="29.122809683139344" y="0.0"/>
      <point x="65.71123552528437" y="0.0" type="curve"/>
      <point x="173.42623078199324" y="0.0" type="line"/>
      <point x="201.0850339417862" y="0.0"/>
      <point x="224.8955221516245" y="19.530252949360637"/>
      <point x="230.3057990299" y="46.654749190444484" type="curve"/>
      <point x="355.1683327226223" y="672.6547491904445" type="line"/>
      <point x="362.32531320375955" y="708.5363675485784"/>
      <point x="334.87719031686066" y="742.0"/>
      <point x="298.28876447471566" y="742.0" type="curve"/>
      <point x="190.57376921800676" y="742.0" type="line"/>
      <point x="162.9149660582138" y="742.0"/>
      <point x="139.1044778483755" y="722.4697470506394"/>
      <point x="133.6942009701" y="695.3452508095555" type="curve"/>
    </contour>
    <contour>
      <point x="377.1723682520981" y="28.546875286619265" type="line"/>
      <point x="387.5998386594592" y="10.857416559846065"/>
      <point x="406.6033947624826" y="0.0"/>
      <point x="427.1374905337261" y="0.0" type="curve"/>
      <point x="556.7069031854187" y="0.0" type="line"/>
      <point x="601.7583081950761" y="0.0"/>
      <point x="629.6094442874412" y="49.120326908489474"/>
      <point x="606.4779506660125" y="87.77990652578467" type="curve"/>
      <point x="482.39865150484263" y="295.153179660888" type="line"/>
      <point x="462.63812126926445" y="328.17888065646076"/>
      <point x="416.7813410130755" y="333.1528528772417"/>
      <point x="390.3992550414249" y="305.13212802536435" type="curve"/>
      <point x="311.84798181462924" y="221.70189372858135" type="line"/>
      <point x="294.1637107406277" y="202.91922072451763"/>
      <point x="291.0108050246928" y="174.713812904539"/>
      <point x="304.11120851582507" y="152.48991412493956" type="curve"/>
    </contour>
  </outline>
</glyph>
<glyph name="l" format="2">
  <advance width="326"/>
  <unicode hex="006C"/>
  <anchor x="108" y="0" name="bottom"/>
  <anchor x="182" y="370" name="center"/>
  <anchor x="435" y="370" name="dot"/>
  <anchor x="256" y="742" name="top"/>
  <anchor x="439" y="742" name="topright"/>
  <outline>
    <contour>
      <point x="8.83166727737765" y="69.34525080955551" type="line"/>
      <point x="1.6746867962404428" y="33.46363245142168"/>
      <point x="29.122809683139344" y="0.0"/>
      <point x="65.71123552528437" y="0.0" type="curve"/>
      <point x="173.42623078199324" y="0.0" type="line"/>
      <point x="201.0850339417862" y="0.0"/>
      <point x="224.8955221516245" y="19.530252949360637"/>
      <point x="230.3057990299" y="46.654749190444484" type="curve"/>
      <point x="355.1683327226223" y="672.6547491904445" type="line"/>
      <point x="362.32531320375955" y="708.5363675485783"/>
      <point x="334.87719031686066" y="742.0"/>
      <point x="298.28876447471566" y="742.0" type="curve"/>
      <point x="190.57376921800676" y="742.0" type="line"/>
      <point x="162.9149660582138" y="742.0"/>
      <point x="139.1044778483755" y="722.4697470506394"/>
      <point x="133.6942009701" y="695.3452508095555" type="curve"/>
    </contour>
  </outline>
</glyph>
<glyph name="m" format="2">
  <advance width="1040"/>
  <unicode hex="006D"/>
  <anchor x="466" y="0" name="bottom"/>
  <outline>
    <contour>
      <point x="815" y="557" type="curve" smooth="yes"/>
      <point x="714" y="557"/>
      <point x="632" y="504"/>
      <point x="586" y="415" type="curve"/>
      <point x="645" y="396" type="line"/>
      <point x="634" y="505"/>
      <point x="552" y="557"/>
      <point x="462" y="557" type="curve" smooth="yes"/>
      <point x="387" y="557"/>
      <point x="310" y="519"/>
      <point x="261" y="436" type="curve"/>
      <point x="279.15" y="433.8" type="line"/>
      <point x="287.5294851476921" y="432.78430483058276"/>
      <point x="295.2782604844868" y="438.3913024224341"/>
      <point x="296.9336410823412" y="446.66820541170597" type="curve"/>
      <point x="306.65" y="495.25" type="line"/>
      <point x="312.0044102211111" y="522.0220511055555"/>
      <point x="291.5273902355408" y="547.0"/>
      <point x="264.22514803431466" y="547.0" type="curve"/>
      <point x="151.58273623843462" y="547.0" type="line"/>
      <point x="123.91990249811067" y="547.0"/>
      <point x="100.10712300949815" y="527.4641861118853"/>
      <point x="94.70107200247145" y="500.33473748029246" type="curve"/>
      <point x="8.816245677060113" y="69.33473748029249" type="line"/>
      <point x="1.666752013394258" y="33.4560857919877"/>
      <point x="29.113857285990647" y="0.0"/>
      <point x="65.6979099130233" y="0.0" type="curve"/>
      <point x="173.3814616731643" y="0.0" type="line"/>
      <point x="201.06038330979558" y="0.0"/>
      <point x="224.88230304001635" y="19.558017201591746"/>
      <point x="230.27147191341086" y="46.70722643171135" type="curve"/>
      <point x="274" y="267" type="line" smooth="yes"/>
      <point x="289" y="340"/>
      <point x="321" y="367"/>
      <point x="363" y="367" type="curve" smooth="yes"/>
      <point x="399" y="367"/>
      <point x="421" y="338"/>
      <point x="408" y="273" type="curve" smooth="yes"/>
      <point x="366.99273096609" y="69.45482824986482" type="line"/>
      <point x="359.75761898787454" y="33.54236333981375"/>
      <point x="387.21630536462646" y="0.0"/>
      <point x="423.8503330063282" y="0.0" type="curve"/>
      <point x="531.4169489586009" y="0.0" type="line"/>
      <point x="559.079924190834" y="0.0"/>
      <point x="582.8927841041963" y="19.536009115503482"/>
      <point x="588.2986867368189" y="46.66563158662814" type="curve"/>
      <point x="633" y="271" type="line" smooth="yes"/>
      <point x="647" y="341"/>
      <point x="680" y="367"/>
      <point x="721" y="367" type="curve" smooth="yes"/>
      <point x="757" y="367"/>
      <point x="779" y="338"/>
      <point x="766" y="273" type="curve" smooth="yes"/>
      <point x="724.99273096609" y="69.45482824986482" type="line"/>
      <point x="717.7576189878746" y="33.54236333981375"/>
      <point x="745.2163053646265" y="0.0"/>
      <point x="781.8503330063281" y="0.0" type="curve"/>
      <point x="889.3895703450778" y="0.0" type="line"/>
      <point x="917.0648489655402" y="0.0"/>
      <point x="940.884699681024" y="19.55298839448779"/>
      <point x="946.2776934859529" y="46.69772387929632" type="curve"/>
      <point x="997" y="302" type="line" smooth="yes"/>
      <point x="1031" y="472"/>
      <point x="940" y="557"/>
    </contour>
  </outline>
</glyph>
<glyph name="n" format="2">
  <advance width="702"/>
  <unicode hex="006E"/>
  <anchor x="300" y="0" name="bottom"/>
  <anchor x="409" y="547" name="top"/>
  <outline>
    <contour>
      <point x="470" y="557" type="curve" smooth="yes"/>
      <point x="395" y="557"/>
      <point x="312" y="520"/>
      <point x="260" y="436" type="curve"/>
      <point x="286" y="394" type="line"/>
      <point x="303.05" y="478.15" type="line"/>
      <point x="310.26003807372854" y="513.7350266219504"/>
      <point x="283.05908751064675" y="547.0"/>
      <point x="246.75097865450363" y="547.0" type="curve"/>
      <point x="151.58273623843462" y="547.0" type="line"/>
      <point x="123.91990249811066" y="547.0"/>
      <point x="100.10712300949817" y="527.4641861118853"/>
      <point x="94.70107200247145" y="500.33473748029246" type="curve"/>
      <point x="8.816245677060113" y="69.33473748029249" type="line"/>
      <point x="1.6667520133942588" y="33.4560857919877"/>
      <point x="29.113857285990647" y="0.0"/>
      <point x="65.6979099130233" y="0.0" type="curve"/>
      <point x="173.52222336073785" y="0.0" type="line"/>
      <point x="201.13784892693263" y="0.0"/>
      <point x="224.92375844035053" y="19.470725845513016"/>
      <point x="230.3792120567439" y="46.54212775327635" type="curve"/>
      <point x="274" y="263" type="line" smooth="yes"/>
      <point x="288" y="334"/>
      <point x="324" y="367"/>
      <point x="375" y="367" type="curve" smooth="yes"/>
      <point x="423" y="367"/>
      <point x="440" y="335"/>
      <point x="428" y="275" type="curve" smooth="yes"/>
      <point x="386.87494716760295" y="69.37473583801464" type="line"/>
      <point x="379.69696079740106" y="33.484803987005186"/>
      <point x="407.1479337877138" y="0.0"/>
      <point x="443.74862635767624" y="0.0" type="curve"/>
      <point x="551.3895703450778" y="0.0" type="line"/>
      <point x="579.0648489655402" y="0.0"/>
      <point x="602.884699681024" y="19.55298839448779"/>
      <point x="608.2776934859529" y="46.69772387929633" type="curve"/>
      <point x="659" y="302" type="line" smooth="yes"/>
      <point x="693" y="472"/>
      <point x="605" y="557"/>
    </contour>
  </outline>
</glyph>
<glyph name="p" format="2">
  <advance width="700"/>
  <unicode hex="0070"/>
  <anchor x="359" y="0" name="bottom"/>
  <anchor x="416" y="547" name="top"/>
  <outline>
    <contour>
      <point x="389" y="-10" type="curve" smooth="yes"/>
      <point x="546" y="-10"/>
      <point x="680" y="124"/>
      <point x="680" y="304" type="curve" smooth="yes"/>
      <point x="680" y="467"/>
      <point x="564" y="557"/>
      <point x="455" y="557" type="curve" smooth="yes"/>
      <point x="322" y="557"/>
      <point x="236" y="450"/>
      <point x="207" y="273" type="curve" smooth="yes"/>
      <point x="173" y="58"/>
      <point x="262" y="-10"/>
    </contour>
    <contour>
      <point x="-30.1467257262721" y="-124.64002542680828" type="line"/>
      <point x="-37.314194166623366" y="-160.5257964693778"/>
      <point x="-9.864647333722573" y="-194.0"/>
      <point x="26.72990372464065" y="-194.0" type="curve"/>
      <point x="134.48602415356336" y="-194.0" type="line"/>
      <point x="162.1179386076475" y="-194.0"/>
      <point x="185.91312768262947" y="-174.50682691430882"/>
      <point x="191.35155819748118" y="-147.41538601625115" type="curve"/>
      <point x="236" y="75" type="line"/>
      <point x="265" y="273" type="line"/>
      <point x="302" y="473" type="line"/>
      <point x="310.25" y="513.7" type="line"/>
      <point x="313.73861726886355" y="530.9105118597269"/>
      <point x="300.58329369407664" y="547.0"/>
      <point x="283.0227649741772" y="547.0" type="curve"/>
      <point x="151.56121276647605" y="547.0" type="line"/>
      <point x="123.90805440155191" y="547.0"/>
      <point x="100.10077600339055" y="527.4775339088676"/>
      <point x="94.68458331556326" y="500.3599745731917" type="curve"/>
    </contour>
    <contour>
      <point x="352" y="168" type="curve" smooth="yes"/>
      <point x="301" y="168"/>
      <point x="271" y="203"/>
      <point x="271" y="254" type="curve" smooth="yes"/>
      <point x="271" y="330"/>
      <point x="311" y="379"/>
      <point x="370" y="379" type="curve" smooth="yes"/>
      <point x="421" y="379"/>
      <point x="451" y="344"/>
      <point x="451" y="293" type="curve" smooth="yes"/>
      <point x="451" y="217"/>
      <point x="411" y="168"/>
    </contour>
  </outline>
</glyph>
<glyph name="q" format="2">
  <advance width="700"/>
  <unicode hex="0071"/>
  <anchor x="234" y="0" name="bottom"/>
  <anchor x="394" y="547" name="top"/>
  <outline>
    <contour>
      <point x="245" y="-10" type="curve" smooth="yes"/>
      <point x="378" y="-10"/>
      <point x="464" y="97"/>
      <point x="493" y="274" type="curve" smooth="yes"/>
      <point x="527" y="489"/>
      <point x="438" y="557"/>
      <point x="311" y="557" type="curve" smooth="yes"/>
      <point x="154" y="557"/>
      <point x="20" y="423"/>
      <point x="20" y="243" type="curve" smooth="yes"/>
      <point x="20" y="80"/>
      <point x="136" y="-10"/>
    </contour>
    <contour>
      <point x="330" y="168" type="curve" smooth="yes"/>
      <point x="279" y="168"/>
      <point x="249" y="203"/>
      <point x="249" y="254" type="curve" smooth="yes"/>
      <point x="249" y="330"/>
      <point x="289" y="379"/>
      <point x="348" y="379" type="curve" smooth="yes"/>
      <point x="399" y="379"/>
      <point x="429" y="344"/>
      <point x="429" y="293" type="curve" smooth="yes"/>
      <point x="429" y="217"/>
      <point x="389" y="168"/>
    </contour>
    <contour>
      <point x="344.93468715567866" y="-124.58461398374884" type="line"/>
      <point x="337.72771921125224" y="-160.48599133653988"/>
      <point x="365.18261228285417" y="-194.0"/>
      <point x="401.8002211995965" y="-194.0" type="curve"/>
      <point x="509.43878723352395" y="-194.0" type="line"/>
      <point x="537.0919455984481" y="-194.0"/>
      <point x="560.8992239966094" y="-174.4775339088676"/>
      <point x="566.3154166844367" y="-147.35997457319175" type="curve"/>
      <point x="691.146725726272" y="477.6400254268083" type="line"/>
      <point x="698.3141941666233" y="513.5257964693778"/>
      <point x="670.8646473337226" y="547.0"/>
      <point x="634.2700962753594" y="547.0" type="curve"/>
      <point x="523.9772350258228" y="547.0" type="line"/>
      <point x="504.20907496722884" y="547.0"/>
      <point x="487.1771906702855" y="533.0741406400751"/>
      <point x="483.25" y="513.7" type="curve"/>
      <point x="475" y="473" type="line"/>
      <point x="434" y="273" type="line"/>
      <point x="385" y="75" type="line"/>
    </contour>
  </outline>
</glyph>
<glyph name="r" format="2">
  <advance width="456"/>
  <unicode hex="0072"/>
  <anchor x="108" y="0" name="bottom"/>
  <anchor x="299" y="547" name="top"/>
  <outline>
    <contour>
      <point x="8.816245677060113" y="69.33473748029249" type="line"/>
      <point x="1.6667520133942588" y="33.4560857919877"/>
      <point x="29.113857285990647" y="0.0"/>
      <point x="65.6979099130233" y="0.0" type="curve"/>
      <point x="173.52502114762882" y="0.0" type="line"/>
      <point x="201.13938744365572" y="0.0"/>
      <point x="224.9245792062381" y="19.468990964279158"/>
      <point x="230.38134784574362" y="46.53884323476737" type="curve"/>
      <point x="272" y="253" type="line" smooth="yes"/>
      <point x="288" y="330"/>
      <point x="334" y="361"/>
      <point x="409" y="361" type="curve" smooth="yes"/>
      <point x="425" y="361"/>
      <point x="439" y="360"/>
      <point x="458" y="357" type="curve"/>
      <point x="488.821764875533" y="511.1088243776649" type="line"/>
      <point x="493.56998091052884" y="534.8499045526441"/>
      <point x="475.32305255417856" y="557.1992918927948"/>
      <point x="451.27054011836225" y="554.4314246787316" type="curve"/>
      <point x="368.9601264531223" y="544.959470513114"/>
      <point x="303.0432254346283" y="508.704830830623"/>
      <point x="265" y="436" type="curve"/>
      <point x="286" y="392" type="line"/>
      <point x="303.12505283239705" y="477.62526416198534" type="line"/>
      <point x="310.30303920259894" y="513.5151960129948"/>
      <point x="282.8520662122862" y="547.0"/>
      <point x="246.25137364232373" y="547.0" type="curve"/>
      <point x="151.58273623843462" y="547.0" type="line"/>
      <point x="123.91990249811066" y="547.0"/>
      <point x="100.10712300949817" y="527.4641861118853"/>
      <point x="94.70107200247145" y="500.33473748029246" type="curve"/>
    </contour>
  </outline>
</glyph>
<glyph name="s" format="2">
  <advance width="565"/>
  <unicode hex="0073"/>
  <anchor x="221" y="0" name="bottom"/>
  <anchor x="330" y="547" name="top"/>
  <outline>
    <contour>
      <point x="223" y="-10" type="curve" smooth="yes"/>
      <point x="391" y="-10"/>
      <point x="529" y="58"/>
      <point x="529" y="195" type="curve" smooth="yes"/>
      <point x="529" y="378"/>
      <point x="254" y="326"/>
      <point x="254" y="376" type="curve" smooth="yes"/>
      <point x="254" y="389"/>
      <point x="271" y="403"/>
      <point x="323" y="403" type="curve" smooth="yes"/>
      <point x="361.94092469060615" y="403.0"/>
      <point x="410.91471262347716" y="397.26693529013437"/>
      <point x="459.6081455950118" y="375.4875876668019" type="curve"/>
      <point x="474.29923824229985" y="368.91663149866906"/>
      <point x="492.1201618671401" y="374.0833965069176"/>
      <point x="499.3919481217874" y="388.4405129584007" type="curve"/>
      <point x="551.2614846434158" y="490.84959788571825" type="line"/>
      <point x="558.210945657974" y="504.5703286067691"/>
      <point x="552.3472780732549" y="521.385130430583"/>
      <point x="537.8929702401757" y="526.6412169004808" type="curve"/>
      <point x="484.52231568811874" y="546.0486336042177"/>
      <point x="418.3562944836376" y="557.0"/>
      <point x="350" y="557" type="curve" smooth="yes"/>
      <point x="179" y="557"/>
      <point x="42" y="491"/>
      <point x="42" y="350" type="curve" smooth="yes"/>
      <point x="42" y="167"/>
      <point x="318" y="217"/>
      <point x="318" y="170" type="curve" smooth="yes"/>
      <point x="318" y="155"/>
      <point x="301" y="144"/>
      <point x="251" y="144" type="curve" smooth="yes"/>
      <point x="198.96813440377855" y="144.0"/>
      <point x="136.75018696828658" y="156.36881366197133"/>
      <point x="86.06750364487803" y="180.48583110158958" type="curve"/>
      <point x="72.20921797874922" y="187.08020407431803"/>
      <point x="55.06684671043982" y="182.2858255565094"/>
      <point x="48.13232022134891" y="168.59458094984274" type="curve"/>
      <point x="-5.7010618780097815" y="62.308159881878126" type="line"/>
      <point x="-12.046684049613354" y="49.77962379948133"/>
      <point x="-7.518066199663967" y="34.40615327778787"/>
      <point x="5.360720047733316" y="28.805438867418793" type="curve"/>
      <point x="56.98968171453373" y="6.353084736758468"/>
      <point x="138.50819679028882" y="-10.0"/>
    </contour>
  </outline>
</glyph>
<glyph name="t" format="2">
  <advance width="460"/>
  <unicode hex="0074"/>
  <anchor x="219" y="0" name="bottom"/>
  <anchor x="204" y="261" name="center"/>
  <anchor x="267" y="670" name="top"/>
  <anchor x="442" y="742" name="topright"/>
  <outline>
    <contour>
      <point x="257" y="-10" type="curve" smooth="yes"/>
      <point x="310" y="-10"/>
      <point x="363" y="-1"/>
      <point x="405" y="22" type="curve"/>
      <point x="379" y="174" type="line"/>
      <point x="362" y="166"/>
      <point x="347" y="161"/>
      <point x="329" y="161" type="curve" smooth="yes"/>
      <point x="298" y="161"/>
      <point x="282" y="178"/>
      <point x="289" y="215" type="curve" smooth="yes"/>
      <point x="366.12505283239705" y="600.6252641619853" type="line"/>
      <point x="373.30303920259894" y="636.5151960129948"/>
      <point x="345.8520662122862" y="670.0"/>
      <point x="309.25137364232376" y="670.0" type="curve"/>
      <point x="201.56908129529359" y="670.0" type="line"/>
      <point x="173.91238549724432" y="670.0"/>
      <point x="150.10309547888468" y="650.4726542678178"/>
      <point x="144.690609721744" y="623.3507476166513" type="curve"/>
      <point x="63" y="214" type="line" smooth="yes"/>
      <point x="34" y="71"/>
      <point x="116" y="-10"/>
    </contour>
    <contour>
      <point x="28.874947167602933" y="421.37473583801466" type="line"/>
      <point x="21.69696079740104" y="385.4848039870052"/>
      <point x="49.14793378771379" y="352.0"/>
      <point x="85.74862635767629" y="352.0" type="curve"/>
      <point x="380.4513736423237" y="352.0" type="line"/>
      <point x="408.0988728044643" y="352.0"/>
      <point x="431.9029321504819" y="371.5146607524093"/>
      <point x="437.3250528323971" y="398.62526416198534" type="curve"/>
      <point x="447.12505283239705" y="447.62526416198534" type="line"/>
      <point x="454.30303920259894" y="483.5151960129948"/>
      <point x="426.8520662122862" y="517.0"/>
      <point x="390.2513736423237" y="517.0" type="curve"/>
      <point x="95.5486263576763" y="517.0" type="line"/>
      <point x="67.9011271955357" y="517.0"/>
      <point x="44.09706784951813" y="497.4853392475907"/>
      <point x="38.67494716760294" y="470.37473583801466" type="curve"/>
    </contour>
  </outline>
</glyph>
<glyph name="u" format="2">
  <advance width="698"/>
  <unicode hex="0075"/>
  <anchor x="293" y="0" name="bottom"/>
  <anchor x="594" y="0" name="ogonek"/>
  <anchor x="403" y="547" name="top"/>
  <anchor x="590" y="547" name="topright"/>
  <outline>
    <contour>
      <point x="230" y="-10" type="curve" smooth="yes"/>
      <point x="304" y="-10"/>
      <point x="386" y="27"/>
      <point x="438" y="111" type="curve"/>
      <point x="412" y="153" type="line"/>
      <point x="394.95" y="68.85000000000001" type="line"/>
      <point x="387.73996192627146" y="33.26497337804955"/>
      <point x="414.94091248935325" y="0.0"/>
      <point x="451.2490213454964" y="0.0" type="curve"/>
      <point x="546.4172637615653" y="0.0" type="line"/>
      <point x="574.0800975018893" y="0.0"/>
      <point x="597.8928769905019" y="19.535813888114745"/>
      <point x="603.2989279975286" y="46.665262519707525" type="curve"/>
      <point x="689.1837543229399" y="477.66526251970754" type="line"/>
      <point x="696.3332479866058" y="513.5439142080123"/>
      <point x="668.8861427140093" y="547.0"/>
      <point x="632.3020900869767" y="547.0" type="curve"/>
      <point x="524.4777766392622" y="547.0" type="line"/>
      <point x="496.86215107306737" y="547.0"/>
      <point x="473.0762415596495" y="527.529274154487"/>
      <point x="467.6207879432561" y="500.45787224672364" type="curve"/>
      <point x="424" y="284" type="line" smooth="yes"/>
      <point x="410" y="213"/>
      <point x="375" y="180"/>
      <point x="325" y="180" type="curve" smooth="yes"/>
      <point x="279" y="180"/>
      <point x="262" y="212"/>
      <point x="274" y="272" type="curve" smooth="yes"/>
      <point x="315.12505283239705" y="477.62526416198534" type="line"/>
      <point x="322.30303920259894" y="513.5151960129948"/>
      <point x="294.8520662122862" y="547.0"/>
      <point x="258.25137364232376" y="547.0" type="curve"/>
      <point x="150.6104296549222" y="547.0" type="line"/>
      <point x="122.93515103445976" y="547.0"/>
      <point x="99.11530031897594" y="527.4470116055122"/>
      <point x="93.72230651404709" y="500.30227612070365" type="curve"/>
      <point x="43" y="245" type="line" smooth="yes"/>
      <point x="9" y="75"/>
      <point x="97" y="-10"/>
    </contour>
  </outline>
</glyph>
<glyph name="v" format="2">
  <advance width="644"/>
  <unicode hex="0076"/>
  <anchor x="268" y="0" name="bottom"/>
  <anchor x="377" y="547" name="top"/>
  <outline>
    <contour>
      <point x="141.5709984768924" y="46.465439938196894" type="line"/>
      <point x="147.05711830507525" y="19.43023682093547"/>
      <point x="170.82625579825424" y="0.0"/>
      <point x="198.412479141814" y="0.0" type="curve"/>
      <point x="352.20210247542053" y="0.0" type="line"/>
      <point x="372.5531300800177" y="0.0"/>
      <point x="391.4153283253778" y="10.666214571372794"/>
      <point x="401.90459387419804" y="28.105814131265447" type="curve"/>
      <point x="662.2779042771118" y="461.00612048504615" type="line"/>
      <point x="685.0261463045584" y="498.8276657404056"/>
      <point x="657.7856069499728" y="547.0"/>
      <point x="613.65" y="547.0" type="curve"/>
      <point x="524.0936420366444" y="547.0" type="line"/>
      <point x="503.58314441165186" y="547.0"/>
      <point x="484.597765482446" y="536.1673218239105"/>
      <point x="474.1621373460207" y="518.5100803003012" type="curve"/>
      <point x="254.78802978984237" y="147.3257538269196" type="line"/>
      <point x="242.95255906000853" y="127.29995734488136"/>
      <point x="257.38820961024777" y="102.0"/>
      <point x="280.65" y="102.0" type="curve"/>
      <point x="292.35" y="102.0" type="line"/>
      <point x="319.7408523399148" y="102.0"/>
      <point x="340.4225706553245" y="126.84092754122699"/>
      <point x="335.4588366068266" y="153.7782647556363" type="curve"/>
      <point x="271.7508403769676" y="499.51068332011505" type="line"/>
      <point x="266.68057303579036" y="527.0261585252841"/>
      <point x="242.68988032706685" y="547.0"/>
      <point x="214.71115650561134" y="547.0" type="curve"/>
      <point x="110.95178444345935" y="547.0" type="line"/>
      <point x="74.28455136453405" y="547.0"/>
      <point x="46.818227877692955" y="513.4002644225401"/>
      <point x="54.11030377853774" y="477.46543993819694" type="curve"/>
    </contour>
  </outline>
</glyph>
<glyph name="w" format="2">
  <advance width="983"/>
  <unicode hex="0077"/>
  <anchor x="443" y="0" name="bottom"/>
  <anchor x="546" y="547" name="top"/>
  <outline>
    <contour>
      <point x="127.15117882535196" y="48.78755889241449" type="line"/>
      <point x="131.67423107423696" y="20.672677299913488"/>
      <point x="155.93848909768633" y="0.0"/>
      <point x="184.4148752554574" y="0.0" type="curve"/>
      <point x="357" y="0" type="line"/>
      <point x="539" y="352" type="line"/>
      <point x="472" y="352" type="line"/>
      <point x="520.222470676965" y="48.88732717336236" type="line"/>
      <point x="524.7025494039578" y="20.726832317978733"/>
      <point x="548.9874905210448" y="0.0"/>
      <point x="577.5021284444017" y="0.0" type="curve"/>
      <point x="751" y="0" type="line"/>
      <point x="1001.143170567921" y="463.8247942395009" type="line"/>
      <point x="1021.4092197145632" y="501.4028582503934"/>
      <point x="994.1945387938651" y="547.0"/>
      <point x="951.5" y="547.0" type="curve"/>
      <point x="870.6483418376704" y="547.0" type="line"/>
      <point x="849.3083653445883" y="547.0"/>
      <point x="829.6920802948367" y="535.2815215519142"/>
      <point x="819.5773250455625" y="516.4909302101662" type="curve"/>
      <point x="597" y="103" type="line"/>
      <point x="703" y="103" type="line"/>
      <point x="647.9790115194077" y="497.021272344887" type="line"/>
      <point x="643.9776099611411" y="525.6764706008603"/>
      <point x="619.4695781017496" y="547.0"/>
      <point x="590.5363515011848" y="547.0" type="curve"/>
      <point x="481.5797280540086" y="547.0" type="line"/>
      <point x="460.27604497150344" y="547.0"/>
      <point x="440.687014467048" y="535.3209767640388"/>
      <point x="430.5567502665932" y="516.5799879931975" type="curve"/>
      <point x="207" y="103" type="line"/>
      <point x="314" y="103" type="line"/>
      <point x="259.88388942761196" y="496.8943130186933" type="line"/>
      <point x="255.93919092081455" y="525.6065447730876"/>
      <point x="231.4055847540411" y="547.0"/>
      <point x="202.42364384892608" y="547.0" type="curve"/>
      <point x="115.07666684595097" y="547.0" type="line"/>
      <point x="79.36850506508111" y="547.0"/>
      <point x="52.14125770090764" y="515.0424095182218"/>
      <point x="57.81297041584556" y="479.7875588924145" type="curve"/>
    </contour>
  </outline>
</glyph>
<glyph name="x" format="2">
  <advance width="645"/>
  <unicode hex="0078"/>
  <outline>
    <contour>
      <point x="12.168864071461243" y="82.1006439286049" type="line"/>
      <point x="-17.72130205430097" y="51.490232835956846"/>
      <point x="3.966600201870655" y="0.0"/>
      <point x="46.75" y="0.0" type="curve"/>
      <point x="161.49381917277717" y="0.0" type="line"/>
      <point x="177.74685377939562" y="0.0"/>
      <point x="193.25417866621615" y="6.819528150167869"/>
      <point x="204.23956459599196" y="18.797943316533598" type="curve"/>
      <point x="364" y="193" type="line"/>
      <point x="256" y="193" type="line"/>
      <point x="335.99869253249017" y="32.169295221139514" type="line"/>
      <point x="345.80194973503336" y="12.46066355352663"/>
      <point x="365.91703859595276" y="0.0"/>
      <point x="387.9291719316576" y="0.0" type="curve"/>
      <point x="495.35045986284837" y="0.0" type="line"/>
      <point x="539.1318575367882" y="0.0"/>
      <point x="567.128167803709" y="46.65225022129164"/>
      <point x="546.5311971985276" y="85.2861159892025" type="curve"/>
      <point x="415" y="332" type="line"/>
      <point x="395" y="216" type="line"/>
      <point x="635.9948486554159" y="466.8468393237191" type="line"/>
      <point x="664.9042028035861" y="496.9380224150535"/>
      <point x="643.5780488053364" y="547.0"/>
      <point x="601.85" y="547.0" type="curve"/>
      <point x="491.34114300685167" y="547.0" type="line"/>
      <point x="475.1844529877611" y="547.0"/>
      <point x="459.7600088751965" y="540.2608095852122"/>
      <point x="448.7830239137979" y="528.4056658269017" type="curve"/>
      <point x="291" y="358" type="line"/>
      <point x="395" y="358" type="line"/>
      <point x="316.06052589001206" y="515.0480063872392" type="line"/>
      <point x="306.2141038735546" y="534.6372038726124"/>
      <point x="286.16331632801143" y="547.0"/>
      <point x="264.238702656452" y="547.0" type="curve"/>
      <point x="159.2229680485654" y="547.0" type="line"/>
      <point x="115.54126957797233" y="547.0"/>
      <point x="87.5367069447492" y="500.53996318154"/>
      <point x="107.93600530260977" y="461.91407279979217" type="curve"/>
      <point x="232" y="227" type="line"/>
      <point x="264" y="340" type="line"/>
    </contour>
  </outline>
</glyph>
<glyph name="y" format="2">
  <advance width="644"/>
  <unicode hex="0079"/>
  <guideline x="377" y="325" angle="68.1541"/>
  <anchor x="473" y="0" name="bottom"/>
  <anchor x="368" y="547" name="top"/>
  <outline>
    <contour>
      <point x="85" y="-204" type="curve" smooth="yes"/>
      <point x="211" y="-204"/>
      <point x="288" y="-161"/>
      <point x="378" y="-11" type="curve" smooth="yes"/>
      <point x="662.6987412788682" y="461.80326676669176" type="line"/>
      <point x="685.2551379163949" y="499.26299689687016"/>
      <point x="658.2766784777351" y="547.0"/>
      <point x="614.55" y="547.0" type="curve"/>
      <point x="526.2597786327311" y="547.0" type="line"/>
      <point x="505.6599328394652" y="547.0"/>
      <point x="486.6058004007117" y="536.0735133284193"/>
      <point x="476.20135928818956" y="518.2942767913124" type="curve"/>
      <point x="232" y="101" type="line"/>
      <point x="215" y="79" type="line"/>
      <point x="180" y="21" type="line" smooth="yes"/>
      <point x="160" y="-12"/>
      <point x="140" y="-29"/>
      <point x="104" y="-29" type="curve" smooth="yes"/>
      <point x="73" y="-29"/>
      <point x="44" y="-17"/>
      <point x="22" y="0" type="curve"/>
      <point x="-76" y="-157" type="line"/>
      <point x="-40" y="-185"/>
      <point x="25" y="-204"/>
    </contour>
    <contour>
      <point x="144.14086664388964" y="66.60826032012194" type="line"/>
      <point x="153.2699222700701" y="24.49681017354751"/>
      <point x="203.50588885713825" y="6.691537215066948"/>
      <point x="237.11715114394698" y="33.65441795063878" type="curve"/>
      <point x="318.80023821253155" y="99.18041087378907" type="line"/>
      <point x="335.53742763339835" y="112.60694744217672"/>
      <point x="343.49452826781067" y="134.17692540632908"/>
      <point x="339.4864742729688" y="155.25632049031233" type="curve"/>
      <point x="273.96817112488054" y="499.83406297285046" type="line"/>
      <point x="268.76506256039346" y="527.1985598675602"/>
      <point x="244.84379183967695" y="547.0"/>
      <point x="216.989025119519" y="547.0" type="curve"/>
      <point x="111.9206342229643" y="547.0" type="line"/>
      <point x="74.93859297484066" y="547.0"/>
      <point x="47.40216516912095" y="512.8545284134099"/>
      <point x="55.237259667831324" y="476.7119957258103" type="curve"/>
    </contour>
  </outline>
</glyph>
<glyph name="z" format="2">
  <advance width="570"/>
  <unicode hex="007A"/>
  <anchor x="235" y="0" name="bottom"/>
  <anchor x="344" y="547" name="top"/>
  <outline>
    <contour>
      <point x="-13.299999999999999" y="58.5" type="line"/>
      <point x="-19.3528115542995" y="28.2359422285025"/>
      <point x="3.7951240815625553" y="0.0"/>
      <point x="34.65852830903558" y="0.0" type="curve"/>
      <point x="449.4513736423237" y="0.0" type="line"/>
      <point x="477.0988728044643" y="0.0"/>
      <point x="500.9029321504819" y="19.51466075240934"/>
      <point x="506.3250528323971" y="46.62526416198532" type="curve"/>
      <point x="516.125052832397" y="95.62526416198534" type="line"/>
      <point x="523.3030392025989" y="131.5151960129948"/>
      <point x="495.8520662122862" y="165.0"/>
      <point x="459.2513736423237" y="165.0" type="curve"/>
      <point x="226.8308526273099" y="165.0" type="line"/>
      <point x="210.17466652582374" y="165.0"/>
      <point x="199.18770351061917" y="147.66133374221823"/>
      <point x="206.3" y="132.6" type="curve"/>
      <point x="209.7" y="125.4" type="line"/>
      <point x="217.25149514848152" y="109.40859850909794"/>
      <point x="238.20948947550593" y="105.44149590134862"/>
      <point x="251.08312091791933" y="117.56666039943563" type="curve"/>
      <point x="555.5234724781753" y="404.30699152014193" type="line"/>
      <point x="564.289953354107" y="412.5637932753798"/>
      <point x="570.2689254919942" y="423.3446274599712"/>
      <point x="572.6306878894536" y="435.15343944726783" type="curve"/>
      <point x="583.3" y="488.5" type="line"/>
      <point x="589.3528115542995" y="518.7640577714975"/>
      <point x="566.2048759184374" y="547.0"/>
      <point x="535.3414716909645" y="547.0" type="curve"/>
      <point x="139.5486263576763" y="547.0" type="line"/>
      <point x="111.9011271955357" y="547.0"/>
      <point x="88.09706784951813" y="527.4853392475907"/>
      <point x="82.67494716760294" y="500.37473583801466" type="curve"/>
      <point x="72.87494716760293" y="451.37473583801466" type="line"/>
      <point x="65.69696079740103" y="415.4848039870052"/>
      <point x="93.14793378771378" y="382.0"/>
      <point x="129.7486263576763" y="382.0" type="curve"/>
      <point x="343.358977287401" y="382.0" type="line"/>
      <point x="360.023660246566" y="382.0"/>
      <point x="371.09341865381214" y="399.2507229371372"/>
      <point x="364.15" y="414.4" type="curve"/>
      <point x="360.85" y="421.6" type="line"/>
      <point x="353.5524188489768" y="437.5219952385961"/>
      <point x="332.7869253737735" y="441.59119948145684"/>
      <point x="320.01969327667155" y="429.60110325113504" type="curve"/>
      <point x="14.528652518432889" y="142.7051693216587" type="line"/>
      <point x="5.729307613724071" y="134.4414367154974"/>
      <point x="-0.27237982057543086" y="123.63810089712284"/>
      <point x="-2.639768412204474" y="111.80115793897764" type="curve"/>
    </contour>
  </outline>
</glyph>
<glyph name="braceleft" format="2">
  <advance width="438"/>
  <unicode hex="007B"/>
  <outline>
    <contour>
      <point x="260" y="-194" type="curve" smooth="yes"/>
      <point x="300.7" y="-194.0" type="line"/>
      <point x="320.06253037414297" y="-194.0"/>
      <point x="336.73336267662893" y="-180.33318661685541"/>
      <point x="340.5306673001015" y="-161.34666349949237" type="curve"/>
      <point x="367.1174773918782" y="-28.41261304060914" type="line"/>
      <point x="367.5740366260124" y="-26.129816869938058"/>
      <point x="365.82800444396133" y="-24.0"/>
      <point x="363.5" y="-24.0" type="curve"/>
      <point x="358" y="-24" type="line" smooth="yes"/>
      <point x="314" y="-24"/>
      <point x="293" y="4"/>
      <point x="302" y="48" type="curve" smooth="yes"/>
      <point x="320" y="140" type="line" smooth="yes"/>
      <point x="338" y="230"/>
      <point x="301" y="278"/>
      <point x="194" y="286" type="curve"/>
      <point x="189" y="262" type="line"/>
      <point x="312" y="270"/>
      <point x="352" y="298"/>
      <point x="374" y="408" type="curve" smooth="yes"/>
      <point x="393" y="503" type="line" smooth="yes"/>
      <point x="403" y="552"/>
      <point x="424" y="572"/>
      <point x="477" y="572" type="curve" smooth="yes"/>
      <point x="482.5" y="572.0" type="line"/>
      <point x="485.11655815866794" y="572.0"/>
      <point x="487.3693733346796" y="573.8468666733979"/>
      <point x="487.8825226081218" y="576.4126130406091" type="curve"/>
      <point x="514.4693326998985" y="709.3466634994924" type="line"/>
      <point x="517.8478710324916" y="726.2393551624583"/>
      <point x="504.92723288531397" y="742.0"/>
      <point x="487.7" y="742.0" type="curve"/>
      <point x="447" y="742" type="line" smooth="yes"/>
      <point x="283" y="742"/>
      <point x="202" y="679"/>
      <point x="172" y="529" type="curve" smooth="yes"/>
      <point x="147" y="403" type="line" smooth="yes"/>
      <point x="141" y="373"/>
      <point x="120" y="359"/>
      <point x="95" y="359" type="curve" smooth="yes"/>
      <point x="76.85" y="359.0" type="line"/>
      <point x="68.2153580763957" y="359.0"/>
      <point x="60.78106799555738" y="352.90533997778687"/>
      <point x="59.08767539319797" y="344.43837696598985" type="curve"/>
      <point x="30.91232460680203" y="203.56162303401015" type="line"/>
      <point x="29.40567913415912" y="196.0283956707956"/>
      <point x="35.16758533492756" y="189.0"/>
      <point x="42.85" y="189.0" type="curve"/>
      <point x="61" y="189" type="line" smooth="yes"/>
      <point x="86" y="189"/>
      <point x="101" y="175"/>
      <point x="95" y="145" type="curve" smooth="yes"/>
      <point x="70" y="19" type="line" smooth="yes"/>
      <point x="45" y="-106"/>
      <point x="115" y="-194"/>
    </contour>
  </outline>
</glyph>
<glyph name="bar" format="2">
  <advance width="320"/>
  <unicode hex="007C"/>
  <outline>
    <contour>
      <point x="-22.142211159313774" y="-124.63694997389142" type="line"/>
      <point x="-29.311870700968218" y="-160.52358810752006"/>
      <point x="-1.8620266167491977" y="-194.0"/>
      <point x="34.733803944630964" y="-194.0" type="curve"/>
      <point x="122.44140973058268" y="-194.0" type="line"/>
      <point x="150.0933890248609" y="-194.0"/>
      <point x="173.8999968338067" y="-174.47916023292476"/>
      <point x="179.31742483452743" y="-147.36305002610862" type="curve"/>
      <point x="343.1422111593138" y="672.6369499738914" type="line"/>
      <point x="350.3118707009682" y="708.52358810752"/>
      <point x="322.8620266167492" y="742.0"/>
      <point x="286.26619605536905" y="742.0" type="curve"/>
      <point x="198.55859026941732" y="742.0" type="line"/>
      <point x="170.9066109751391" y="742.0"/>
      <point x="147.1000031661933" y="722.4791602329248"/>
      <point x="141.68257516547257" y="695.3630500261087" type="curve"/>
    </contour>
  </outline>
</glyph>
<glyph name="braceright" format="2">
  <advance width="438"/>
  <unicode hex="007D"/>
  <outline>
    <contour>
      <point x="-76.46933269989847" y="-161.34666349949237" type="line"/>
      <point x="-79.84787103249167" y="-178.23935516245837"/>
      <point x="-66.92723288531396" y="-194.0"/>
      <point x="-49.699999999999996" y="-194.0" type="curve"/>
      <point x="-9" y="-194" type="line" smooth="yes"/>
      <point x="155" y="-194"/>
      <point x="236" y="-131"/>
      <point x="266" y="19" type="curve" smooth="yes"/>
      <point x="291" y="145" type="line" smooth="yes"/>
      <point x="297" y="175"/>
      <point x="318" y="189"/>
      <point x="343" y="189" type="curve" smooth="yes"/>
      <point x="361.15" y="189.0" type="line"/>
      <point x="369.7846419236043" y="189.0"/>
      <point x="377.21893200444265" y="195.09466002221313"/>
      <point x="378.91232460680203" y="203.56162303401015" type="curve"/>
      <point x="407.08767539319797" y="344.43837696598985" type="line"/>
      <point x="408.59432086584087" y="351.9716043292044"/>
      <point x="402.83241466507246" y="359.0"/>
      <point x="395.15" y="359.0" type="curve"/>
      <point x="377" y="359" type="line" smooth="yes"/>
      <point x="352" y="359"/>
      <point x="337" y="373"/>
      <point x="343" y="403" type="curve" smooth="yes"/>
      <point x="368" y="529" type="line" smooth="yes"/>
      <point x="393" y="654"/>
      <point x="323" y="742"/>
      <point x="178" y="742" type="curve" smooth="yes"/>
      <point x="137.3" y="742.0" type="line"/>
      <point x="117.93746962585705" y="742.0"/>
      <point x="101.26663732337109" y="728.3331866168554"/>
      <point x="97.46933269989847" y="709.3466634994924" type="curve"/>
      <point x="70.88252260812183" y="576.4126130406091" type="line"/>
      <point x="70.42596337398761" y="574.129816869938"/>
      <point x="72.17199555603865" y="572.0"/>
      <point x="74.5" y="572.0" type="curve"/>
      <point x="80" y="572" type="line" smooth="yes"/>
      <point x="124" y="572"/>
      <point x="145" y="544"/>
      <point x="136" y="500" type="curve" smooth="yes"/>
      <point x="118" y="408" type="line" smooth="yes"/>
      <point x="100" y="318"/>
      <point x="137" y="270"/>
      <point x="244" y="262" type="curve"/>
      <point x="249" y="286" type="line"/>
      <point x="126" y="278"/>
      <point x="86" y="250"/>
      <point x="64" y="140" type="curve" smooth="yes"/>
      <point x="45" y="45" type="line" smooth="yes"/>
      <point x="35" y="-4"/>
      <point x="14" y="-24"/>
      <point x="-39" y="-24" type="curve" smooth="yes"/>
      <point x="-44.5" y="-24.0" type="line"/>
      <point x="-47.11655815866797" y="-24.0"/>
      <point x="-49.36937333467958" y="-25.846866673397916"/>
      <point x="-49.882522608121825" y="-28.41261304060914" type="curve"/>
    </contour>
  </outline>
</glyph>
<glyph name="asciitilde" format="2">
  <advance width="620"/>
  <unicode hex="007E"/>
  <outline>
    <contour>
      <point x="411" y="235" type="curve" smooth="yes"/>
      <point x="494.6295528268379" y="235.0"/>
      <point x="568.9824270108618" y="293.51443451621094"/>
      <point x="602.1101860402687" y="395.47328632608406" type="curve"/>
      <point x="612.2347497828854" y="426.63412921185625"/>
      <point x="586.6643849374605" y="456.0"/>
      <point x="553.9" y="456.0" type="curve"/>
      <point x="478" y="456" type="line"/>
      <point x="471" y="416"/>
      <point x="449" y="393"/>
      <point x="417" y="393" type="curve" smooth="yes"/>
      <point x="372" y="393"/>
      <point x="331" y="468"/>
      <point x="240" y="468" type="curve" smooth="yes"/>
      <point x="156.36665561374548" y="468.0"/>
      <point x="81.29717568201174" y="409.48025956077464"/>
      <point x="47.95010766786085" y="307.5128457109885" type="curve"/>
      <point x="37.76574861251257" y="276.37149456878797"/>
      <point x="63.33561506253952" y="247.0"/>
      <point x="96.1" y="247.0" type="curve"/>
      <point x="172" y="247" type="line"/>
      <point x="179" y="287"/>
      <point x="202" y="310"/>
      <point x="234" y="310" type="curve" smooth="yes"/>
      <point x="279" y="310"/>
      <point x="320" y="235"/>
    </contour>
  </outline>
</glyph>
<glyph name="exclamdown" format="2">
  <advance width="314"/>
  <unicode hex="00A1"/>
  <outline>
    <contour>
      <point x="-40.37133275077342" y="-79.20448153499916" type="line"/>
      <point x="-51.6383559543978" y="-116.4458635744599"/>
      <point x="-23.76481020707245" y="-154.0"/>
      <point x="15.143625228962236" y="-154.0" type="curve"/>
      <point x="154.23248714351746" y="-154.0" type="line"/>
      <point x="184.1469641495408" y="-154.0"/>
      <point x="209.15427740164864" y="-131.24872890453986"/>
      <point x="211.97421267055162" y="-101.46746130856444" type="curve"/>
      <point x="241.99037895230683" y="215.53253869143558" type="line"/>
      <point x="245.21357777809897" y="249.57266287602073"/>
      <point x="218.44103657082962" y="279.0"/>
      <point x="184.24865342527266" y="279.0" type="curve"/>
      <point x="111.04893700725323" y="279.0" type="line"/>
      <point x="85.48561782474135" y="279.0"/>
      <point x="62.936551430217385" y="262.2635631243063"/>
      <point x="55.53397902751758" y="237.79551846500087" type="curve"/>
    </contour>
    <contour>
      <point x="183" y="319" type="curve" smooth="yes"/>
      <point x="262" y="319"/>
      <point x="322" y="372"/>
      <point x="322" y="447" type="curve" smooth="yes"/>
      <point x="322" y="508"/>
      <point x="271" y="557"/>
      <point x="197" y="557" type="curve" smooth="yes"/>
      <point x="118" y="557"/>
      <point x="58" y="500"/>
      <point x="58" y="427" type="curve" smooth="yes"/>
      <point x="58" y="366"/>
      <point x="109" y="319"/>
    </contour>
  </outline>
</glyph>
<glyph name="cent" format="2">
  <advance width="614"/>
  <unicode hex="00A2"/>
  <outline>
    <contour>
      <point x="317" y="-10" type="curve" smooth="yes"/>
      <point x="426.3661795890025" y="-10.0"/>
      <point x="515.6069511700109" y="30.250816015988292"/>
      <point x="573.1443134297415" y="101.00255220519972" type="curve"/>
      <point x="590.4887533989119" y="122.33041974818615"/>
      <point x="581.9192717510863" y="153.10151461754978"/>
      <point x="558.1582191117542" y="166.9261270622521" type="curve"/>
      <point x="458.2658631545088" y="225.04531598283126" type="line"/>
      <point x="446.1737363703074" y="232.08073520273027"/>
      <point x="430.8476818589683" y="227.33679701866038"/>
      <point x="422.94475834589343" y="215.79294784642087" type="curve"/>
      <point x="399.38041854971243" y="181.37237120785548"/>
      <point x="370.9130633404948" y="168.0"/>
      <point x="334" y="168" type="curve" smooth="yes"/>
      <point x="278" y="168"/>
      <point x="248" y="205"/>
      <point x="248" y="257" type="curve" smooth="yes"/>
      <point x="248" y="330"/>
      <point x="292" y="379"/>
      <point x="353" y="379" type="curve" smooth="yes"/>
      <point x="384.8687697391697" y="379.0"/>
      <point x="413.2208549745713" y="365.63659888568134"/>
      <point x="432.7475626627153" y="331.2416844831146" type="curve"/>
      <point x="439.2774906193063" y="319.7396782714765"/>
      <point x="453.2402291632379" y="313.6934383664841"/>
      <point x="465.2638308374391" y="319.20425580049294" type="curve"/>
      <point x="591.471977066632" y="377.0496561555397" type="line"/>
      <point x="615.8860813874037" y="388.2394539692267"/>
      <point x="627.7275284478361" y="417.08063362800493"/>
      <point x="612.9303985373637" y="439.492795757289" type="curve"/>
      <point x="564.2933900983525" y="513.1598193769842"/>
      <point x="474.20837584790115" y="557.0"/>
      <point x="364" y="557" type="curve" smooth="yes"/>
      <point x="162" y="557"/>
      <point x="19" y="423"/>
      <point x="19" y="243" type="curve" smooth="yes"/>
      <point x="19" y="90"/>
      <point x="137" y="-10"/>
    </contour>
    <contour>
      <point x="194.4131577885007" y="-57.776081658916844" type="line"/>
      <point x="187.9902339422437" y="-89.97252157614153"/>
      <point x="212.61915026871407" y="-120.0"/>
      <point x="245.45" y="-120.0" type="curve"/>
      <point x="275.4276688581256" y="-120.0" type="line"/>
      <point x="303.08582557349064" y="-120.0"/>
      <point x="326.89594624718654" y="-100.47063887556808"/>
      <point x="332.306900753836" y="-73.34693698554833" type="curve"/>
      <point x="467.5868422114993" y="604.7760816589168" type="line"/>
      <point x="474.00976605775634" y="636.9725215761415"/>
      <point x="449.38084973128593" y="667.0"/>
      <point x="416.55" y="667.0" type="curve"/>
      <point x="386.5723311418744" y="667.0" type="line"/>
      <point x="358.91417442650936" y="667.0"/>
      <point x="335.10405375281346" y="647.470638875568"/>
      <point x="329.693099246164" y="620.3469369855483" type="curve"/>
    </contour>
  </outline>
</glyph>
<glyph name="sterling" format="2">
  <advance width="694"/>
  <unicode hex="00A3"/>
  <outline>
    <contour>
      <point x="69" y="20" type="line"/>
      <point x="305" y="20" type="line"/>
      <point x="382" y="405" type="line" smooth="yes"/>
      <point x="400" y="493"/>
      <point x="452" y="525"/>
      <point x="535" y="525" type="curve" smooth="yes"/>
      <point x="571.44164535955" y="525.0"/>
      <point x="607.8832907190999" y="519.972442068373"/>
      <point x="644.3249360786499" y="506.26525012866136" type="curve"/>
      <point x="655.5449564670309" y="502.0449419753493"/>
      <point x="668.4456001778555" y="506.22908969092396"/>
      <point x="674.1433189770971" y="516.775930872499" type="curve"/>
      <point x="745.5558656344282" y="648.9651129828776" type="line"/>
      <point x="752.4421749018661" y="661.7121109885604"/>
      <point x="747.7679854144453" y="677.7298595055911"/>
      <point x="734.4696456458971" y="683.479761494663" type="curve"/>
      <point x="686.2489619627647" y="704.3292968389022"/>
      <point x="624.5951230881469" y="716.0"/>
      <point x="552" y="716" type="curve" smooth="yes"/>
      <point x="348" y="716"/>
      <point x="190" y="623"/>
      <point x="145" y="400" type="curve" smooth="yes"/>
    </contour>
    <contour>
      <point x="-10.94431647037457" y="69.49754634092574" type="line"/>
      <point x="-18.209936279142767" y="33.573092842016315"/>
      <point x="9.252847010313587" y="0.0"/>
      <point x="45.90466265975816" y="0.0" type="curve"/>
      <point x="557.5560114975452" y="0.0" type="line"/>
      <point x="585.1564260746179" y="0.0"/>
      <point x="608.9336622547702" y="19.449774481918837"/>
      <point x="614.404990627678" y="46.50245365907427" type="curve"/>
      <point x="626.9443164703746" y="108.50245365907426" type="line"/>
      <point x="634.2099362791428" y="144.4269071579837"/>
      <point x="606.7471529896864" y="178.0"/>
      <point x="570.0953373402418" y="178.0" type="curve"/>
      <point x="58.443988502454765" y="178.0" type="line"/>
      <point x="30.843573925382096" y="178.0"/>
      <point x="7.066337745229897" y="158.55022551808116"/>
      <point x="1.5950093723220569" y="131.49754634092574" type="curve"/>
    </contour>
    <contour>
      <point x="43.7" y="343.4" type="line"/>
      <point x="37.64061014616915" y="312.6369438190126"/>
      <point x="61.18717242410354" y="284.0"/>
      <point x="92.5413082118317" y="284.0" type="curve"/>
      <point x="520.3098337325549" y="284.0" type="line"/>
      <point x="548.0209189828105" y="284.0"/>
      <point x="571.8610868315435" y="303.6024408370668"/>
      <point x="577.216433569238" y="330.79112427459273" type="curve"/>
      <point x="582.3" y="356.6" type="line"/>
      <point x="588.3593898538309" y="387.3630561809874"/>
      <point x="564.8128275758964" y="416.0"/>
      <point x="533.4586917881683" y="416.0" type="curve"/>
      <point x="105.6901662674451" y="416.0" type="line"/>
      <point x="77.97908101718954" y="416.0"/>
      <point x="54.13891316845653" y="396.3975591629332"/>
      <point x="48.783566430762036" y="369.20887572540727" type="curve"/>
    </contour>
  </outline>
</glyph>
<glyph name="currency" format="2">
  <advance width="700"/>
  <unicode hex="00A4"/>
  <outline>
    <contour>
      <point x="135" y="417" type="line"/>
      <point x="260" y="542" type="line"/>
      <point x="194.01219330881975" y="607.9878066911803" type="line"/>
      <point x="171.36178438724608" y="630.6382156127539"/>
      <point x="134.63821561275392" y="630.6382156127539"/>
      <point x="111.98780669118025" y="607.9878066911803" type="curve"/>
      <point x="69.01219330881975" y="565.0121933088197" type="line"/>
      <point x="46.36178438724609" y="542.3617843872461"/>
      <point x="46.36178438724608" y="505.6382156127539"/>
      <point x="69.01219330881975" y="482.98780669118025" type="curve"/>
    </contour>
    <contour>
      <point x="584" y="417" type="line"/>
      <point x="649.9878066911803" y="482.98780669118025" type="line"/>
      <point x="672.6382156127539" y="505.6382156127539"/>
      <point x="672.6382156127539" y="542.3617843872461"/>
      <point x="649.9878066911803" y="565.0121933088197" type="curve"/>
      <point x="607.0121933088197" y="607.9878066911803" type="line"/>
      <point x="584.3617843872461" y="630.6382156127539"/>
      <point x="547.6382156127539" y="630.6382156127539"/>
      <point x="524.9878066911803" y="607.9878066911803" type="curve"/>
      <point x="459" y="542" type="line"/>
    </contour>
    <contour>
      <point x="524.9878066911803" y="27.012193308819754" type="line"/>
      <point x="547.6382156127539" y="4.3617843872460895"/>
      <point x="584.3617843872461" y="4.361784387246086"/>
      <point x="607.0121933088197" y="27.012193308819747" type="curve"/>
      <point x="649.9878066911803" y="69.98780669118025" type="line"/>
      <point x="672.6382156127539" y="92.63821561275391"/>
      <point x="672.6382156127539" y="129.36178438724608"/>
      <point x="649.9878066911803" y="152.01219330881975" type="curve"/>
      <point x="584" y="218" type="line"/>
      <point x="459" y="93" type="line"/>
    </contour>
    <contour>
      <point x="111.98780669118025" y="27.012193308819747" type="line"/>
      <point x="134.63821561275392" y="4.361784387246086"/>
      <point x="171.36178438724608" y="4.3617843872460895"/>
      <point x="194.01219330881975" y="27.012193308819754" type="curve"/>
      <point x="218.98780669118025" y="51.987806691180246" type="line"/>
      <point x="241.63821561275392" y="74.63821561275391"/>
      <point x="241.63821561275392" y="111.36178438724609"/>
      <point x="218.98780669118025" y="134.01219330881975" type="curve"/>
      <point x="135" y="218" type="line"/>
      <point x="69.01219330881975" y="152.01219330881975" type="line"/>
      <point x="46.36178438724608" y="129.36178438724608"/>
      <point x="46.36178438724609" y="92.63821561275391"/>
      <point x="69.01219330881975" y="69.98780669118025" type="curve"/>
    </contour>
    <contour>
      <point x="359" y="69" type="curve" smooth="yes"/>
      <point x="499" y="69"/>
      <point x="613" y="183"/>
      <point x="613" y="323" type="curve" smooth="yes"/>
      <point x="613" y="463"/>
      <point x="500" y="577"/>
      <point x="359" y="577" type="curve" smooth="yes"/>
      <point x="219" y="577"/>
      <point x="105" y="463"/>
      <point x="105" y="323" type="curve" smooth="yes"/>
      <point x="105" y="183"/>
      <point x="219" y="69"/>
    </contour>
    <contour>
      <point x="359" y="244" type="curve" smooth="yes"/>
      <point x="315" y="244"/>
      <point x="280" y="279"/>
      <point x="280" y="323" type="curve" smooth="yes"/>
      <point x="280" y="367"/>
      <point x="315" y="403"/>
      <point x="359" y="403" type="curve" smooth="yes"/>
      <point x="403" y="403"/>
      <point x="439" y="367"/>
      <point x="439" y="323" type="curve" smooth="yes"/>
      <point x="439" y="279"/>
      <point x="403" y="244"/>
    </contour>
  </outline>
</glyph>
